<?xml version="1.0" encoding="UTF-8" standalone="no"?>
<svg
   xmlns:dc="http://purl.org/dc/elements/1.1/"
   xmlns:cc="http://creativecommons.org/ns#"
   xmlns:rdf="http://www.w3.org/1999/02/22-rdf-syntax-ns#"
   xmlns:svg="http://www.w3.org/2000/svg"
   xmlns="http://www.w3.org/2000/svg"
   id="svg6937"
   viewBox="0 0 143.99991 155.50901"
   height="54.860218mm"
   width="50.799999mm"
   y="0in"
   x="0in"
   version="1.2">
  <metadata
     id="metadata6943">
    <rdf:RDF>
      <cc:Work
         rdf:about="">
        <dc:title></dc:title>
        <dc:format>image/svg+xml</dc:format>
        <dc:type
           rdf:resource="http://purl.org/dc/dcmitype/StillImage" />
      </cc:Work>
    </rdf:RDF>
  </metadata>
  <defs
     id="defs6941" />
  <g
     style="fill:#aa87de"
     transform="matrix(-1,0,0,1,144.00024,2.3600639e-4)"
     id="board">
    <path
       id="boardoutline"
       transform="matrix(-0.74999953,0,0,0.74999953,144.00024,-3.2108162e-4)"
       d="M 9.5996094 0 C 4.2812193 0 0 4.2812089 0 9.5996094 L 0 197.74609 C 0 203.0645 4.2812193 207.3457 9.5996094 207.3457 L 35.644531 207.3457 L 35.644531 189.58203 L 59.644531 189.58203 L 59.644531 207.3457 L 132.35547 207.3457 L 132.35547 189.58203 L 156.35547 189.58203 L 156.35547 207.3457 L 182.40039 207.3457 C 187.71879 207.3457 192 203.0645 192 197.74609 L 192 9.5996094 C 192 4.2812089 187.71879 3.5527137e-15 182.40039 0 L 9.5996094 0 z M 35.644531 86.400391 L 59.644531 86.400391 L 59.644531 104.16406 L 35.644531 104.16406 L 35.644531 86.400391 z M 132.35547 86.400391 L 156.35547 86.400391 L 156.35547 104.16406 L 132.35547 104.16406 L 132.35547 86.400391 z "
       style="opacity:1;fill:#aa87de;fill-opacity:1;stroke:none;stroke-width:1.88976383;stroke-linecap:round;stroke-linejoin:round;stroke-miterlimit:4;stroke-dasharray:none;stroke-dashoffset:0;stroke-opacity:1;paint-order:markers stroke fill" />
  </g>
</svg>
