<?xml version="1.0" encoding="UTF-8" standalone="no"?>
<!-- Created with Fritzing (http://www.fritzing.org/) -->

<svg
   xmlns:dc="http://purl.org/dc/elements/1.1/"
   xmlns:cc="http://creativecommons.org/ns#"
   xmlns:rdf="http://www.w3.org/1999/02/22-rdf-syntax-ns#"
   xmlns:svg="http://www.w3.org/2000/svg"
   xmlns="http://www.w3.org/2000/svg"
   xmlns:sodipodi="http://sodipodi.sourceforge.net/DTD/sodipodi-0.dtd"
   xmlns:inkscape="http://www.inkscape.org/namespaces/inkscape"
   sodipodi:docname="fluffbug_legs_v3.svg"
   id="svg9709"
   viewBox="0 0 283.46427 283.46421"
   height="10cm"
   width="10cm"
   y="0in"
   x="0in"
   version="1.2"
   inkscape:version="0.92.5 (2060ec1f9f, 2020-04-08)">
  <metadata
     id="metadata9715">
    <rdf:RDF>
      <cc:Work
         rdf:about="">
        <dc:title></dc:title>
        <dc:format>image/svg+xml</dc:format>
        <dc:type
           rdf:resource="http://purl.org/dc/dcmitype/StillImage" />
      </cc:Work>
    </rdf:RDF>
  </metadata>
  <defs
     id="defs9713">
    <marker
       inkscape:stockid="Arrow1Mstart"
       orient="auto"
       refY="0.0"
       refX="0.0"
       id="Arrow1Mstart"
       style="overflow:visible"
       inkscape:isstock="true">
      <path
         id="path24894"
         d="M 0.0,0.0 L 5.0,-5.0 L -12.5,0.0 L 5.0,5.0 L 0.0,0.0 z "
         style="fill-rule:evenodd;stroke:#000000;stroke-width:1pt;stroke-opacity:1;fill:#000000;fill-opacity:1"
         transform="scale(0.4) translate(10,0)" />
    </marker>
    <marker
       inkscape:stockid="Arrow1Mend"
       orient="auto"
       refY="0.0"
       refX="0.0"
       id="Arrow1Mend"
       style="overflow:visible;"
       inkscape:isstock="true">
      <path
         id="path24897"
         d="M 0.0,0.0 L 5.0,-5.0 L -12.5,0.0 L 5.0,5.0 L 0.0,0.0 z "
         style="fill-rule:evenodd;stroke:#000000;stroke-width:1pt;stroke-opacity:1;fill:#000000;fill-opacity:1"
         transform="scale(0.4) rotate(180) translate(10,0)" />
    </marker>
    <marker
       inkscape:stockid="Arrow1Lend"
       orient="auto"
       refY="0.0"
       refX="0.0"
       id="Arrow1Lend"
       style="overflow:visible;"
       inkscape:isstock="true">
      <path
         id="path24891"
         d="M 0.0,0.0 L 5.0,-5.0 L -12.5,0.0 L 5.0,5.0 L 0.0,0.0 z "
         style="fill-rule:evenodd;stroke:#000000;stroke-width:1pt;stroke-opacity:1;fill:#000000;fill-opacity:1"
         transform="scale(0.8) rotate(180) translate(12.5,0)" />
    </marker>
    <marker
       inkscape:stockid="Arrow1Lstart"
       orient="auto"
       refY="0.0"
       refX="0.0"
       id="Arrow1Lstart"
       style="overflow:visible"
       inkscape:isstock="true">
      <path
         id="path24888"
         d="M 0.0,0.0 L 5.0,-5.0 L -12.5,0.0 L 5.0,5.0 L 0.0,0.0 z "
         style="fill-rule:evenodd;stroke:#000000;stroke-width:1pt;stroke-opacity:1;fill:#000000;fill-opacity:1"
         transform="scale(0.8) translate(12.5,0)" />
    </marker>
    <defs
       id="defs4" />
    <defs
       id="defs8572" />
    <defs
       id="defs8544" />
    <defs
       id="defs8516" />
    <defs
       id="defs8488" />
    <defs
       id="defs1220" />
    <defs
       id="defs1200" />
    <defs
       id="defs1180" />
    <defs
       id="defs1160" />
    <defs
       id="defs1140" />
    <defs
       id="defs1120" />
    <defs
       id="defs1100" />
    <defs
       id="defs1080" />
    <defs
       id="defs1060" />
    <defs
       id="defs1040" />
    <defs
       id="defs8369" />
    <defs
       id="defs8398" />
    <defs
       id="defs8428" />
    <defs
       id="defs8458" />
    <defs
       id="defs2" />
    <defs
       id="defs9396" />
  </defs>
  <sodipodi:namedview
     pagecolor="#ffffff"
     bordercolor="#666666"
     borderopacity="1"
     objecttolerance="10"
     gridtolerance="10"
     guidetolerance="10"
     inkscape:pageopacity="0"
     inkscape:pageshadow="2"
     inkscape:window-width="640"
     inkscape:window-height="480"
     id="namedview9711"
     showgrid="false"
     showguides="true"
     inkscape:guide-bbox="true"
     inkscape:snap-bbox="true"
     inkscape:snap-center="true"
     inkscape:snap-bbox-midpoints="false"
     inkscape:snap-smooth-nodes="true"
     inkscape:snap-object-midpoints="true"
     fit-margin-top="2"
     fit-margin-left="2"
     fit-margin-right="2"
     fit-margin-bottom="2"
     inkscape:zoom="1.4142136"
     inkscape:cx="391.91731"
     inkscape:cy="166.02845"
     inkscape:current-layer="svg9709"
     inkscape:snap-to-guides="true"
     inkscape:snap-global="false"
     inkscape:object-paths="true"
     units="cm" />
  <path
     sodipodi:nodetypes="csscsssscssssscccccccacccca"
     inkscape:connector-curvature="0"
     id="path999"
     d="m 173.35656,8.4539841 c 0,76.7992309 9.65712,86.9896489 -0.25341,86.9896409 -3.14079,0 -5.66895,2.528158 -5.66895,5.668945 v 8.39354 h 21.79685 c 0.7852,0 1.41797,0.63278 1.41797,1.41797 v 62.36272 c 0,0.78519 -0.63277,1.4165 -1.41797,1.4165 H 167.4342 v 7.79589 c 0,3.14079 2.52816,5.66894 5.66895,5.66894 h 14.14451 c 6.28157,0 11.33788,-5.05778 11.33788,-11.33934 v -2.69238 c 0,-64.06293 3.31511,-116.242608 -25.22898,-165.6824259 z m -0.0175,92.5487159 c 1.40153,-0.0101 2.54877,1.11227 2.56933,2.51368 0.0208,1.40217 -1.09407,2.55824 -2.49608,2.58837 -1.40117,0.0299 -2.56409,-1.07614 -2.60449,-2.47705 l -0.001,-0.0732 c -3.6e-4,-1.40203 1.13072,-2.54161 2.5327,-2.55176 z m 0,77.10197 c 1.40208,-0.0101 2.54956,1.11315 2.56933,2.51513 0.0199,1.40161 -1.09466,2.55678 -2.49608,2.58691 -1.40117,0.0299 -2.56408,-1.07614 -2.60449,-2.47705 l -0.001,-0.0733 c -3.6e-4,-1.40202 1.13072,-2.54161 2.5327,-2.55175 z"
     style="fill:#729fcf;fill-opacity:1;stroke:none;stroke-width:1.41732121;stroke-linecap:round;stroke-linejoin:round;stroke-miterlimit:4;stroke-dasharray:none;stroke-opacity:1;paint-order:markers stroke fill" />
  <path
     style="fill:#729fcf;fill-opacity:1;stroke:none;stroke-width:1.41732121;stroke-linecap:round;stroke-linejoin:round;stroke-miterlimit:4;stroke-dasharray:none;stroke-opacity:1;paint-order:markers stroke fill"
     d="m 246.85646,8.4539841 c 0,76.7992309 9.65712,86.9896489 -0.25341,86.9896409 -3.14079,0 -5.66895,2.528158 -5.66895,5.668945 v 8.39354 h 21.79685 c 0.7852,0 1.41797,0.63278 1.41797,1.41797 v 62.36272 c 0,0.78519 -0.63277,1.4165 -1.41797,1.4165 H 240.9341 v 7.79589 c 0,3.14079 2.52816,5.66894 5.66895,5.66894 h 14.14451 c 6.28157,0 11.33788,-5.05778 11.33788,-11.33934 v -2.69238 c 0,-64.06293 3.31511,-116.242608 -25.22898,-165.6824259 z m -0.0175,92.5487159 c 1.40153,-0.0101 2.54877,1.11227 2.56933,2.51368 0.0208,1.40217 -1.09407,2.55824 -2.49608,2.58837 -1.40117,0.0299 -2.56409,-1.07614 -2.60449,-2.47705 l -10e-4,-0.0732 c -3.6e-4,-1.40203 1.13072,-2.54161 2.5327,-2.55176 z m 0,77.10197 c 1.40208,-0.0101 2.54956,1.11315 2.56933,2.51513 0.0199,1.40161 -1.09466,2.55678 -2.49608,2.58691 -1.40117,0.0299 -2.56408,-1.07614 -2.60449,-2.47705 l -10e-4,-0.0733 c -3.6e-4,-1.40202 1.13072,-2.54161 2.5327,-2.55175 z"
     id="rect78"
     inkscape:connector-curvature="0"
     sodipodi:nodetypes="csscsssscssssscccccccacccca" />
  <g
     id="g5608"
     transform="matrix(-1,0,0,1,190.06007,216.78605)"
     style="fill:#b3b3b3" />
  <g
     id="g5927"
     transform="matrix(1,0,0,-1,129.32128,202.04605)"
     style="fill:#b3b3b3" />
  <g
     id="g5951"
     transform="matrix(0,1,1,0,154.23757,148.47776)"
     style="fill:#b3b3b3" />
  <g
     id="g5975"
     transform="matrix(0,1,1,0,150.63757,148.47776)"
     style="fill:#b3b3b3" />
  <g
     id="g5999"
     transform="matrix(0,1,1,0,170.43757,146.67776)"
     style="fill:#b3b3b3" />
  <g
     id="g6023"
     transform="matrix(0,1,1,0,166.83757,146.67776)"
     style="fill:#b3b3b3" />
  <g
     id="g6053"
     transform="matrix(1,0,0,-1,164.70057,173.67105)"
     style="fill:#b3b3b3" />
  <g
     style="fill:#b3b3b3"
     d="M2.338,3.401L2.338,3.401L2.338,3.401z"
     id="connector0terminal"
     transform="matrix(-1,0,0,1,164.15157,165.86805)" />
  <g
     style="fill:#b3b3b3"
     d="M11.551,3.401L11.551,3.401L11.551,3.401z"
     id="connector1terminal"
     transform="matrix(-1,0,0,1,164.15157,165.86805)" />
  <g
     style="fill:#b3b3b3"
     d="M2.338,3.401L2.338,3.401L2.338,3.401z"
     id="g6131"
     transform="matrix(-1,0,0,1,134.71057,191.86105)" />
  <g
     style="fill:#b3b3b3"
     d="M11.551,3.401L11.551,3.401L11.551,3.401z"
     id="g6135"
     transform="matrix(-1,0,0,1,134.71057,191.86105)" />
  <g
     gorn="0.0.5"
     id="g6233"
     transform="matrix(-1,0,0,1,197.62557,192.76905)"
     style="fill:#b3b3b3" />
  <g
     id="g6281"
     transform="matrix(-1,0,0,1,203.30586,200.39505)"
     style="fill:#b3b3b3" />
  <g
     id="g6307"
     transform="matrix(1,0,0,-1,197.72128,195.74605)"
     style="fill:#b3b3b3" />
  <g
     gorn="0.1.6"
     id="g6335"
     transform="matrix(-1,0,0,1,128.34057,200.86905)"
     style="fill:#b3b3b3" />
  <g
     id="g6357"
     transform="matrix(-1,0,0,1,140.30586,212.99505)"
     style="fill:#b3b3b3" />
  <g
     id="g6379"
     transform="matrix(-1,0,0,1,134.00586,212.99505)"
     style="fill:#b3b3b3" />
  <g
     id="g6401"
     transform="matrix(-1,0,0,1,134.90586,208.49505)"
     style="fill:#b3b3b3" />
  <g
     id="g6427"
     transform="matrix(1,0,0,-1,129.32128,205.64605)"
     style="fill:#b3b3b3" />
  <path
     style="opacity:1;fill:#729fcf;fill-opacity:1;stroke:none;stroke-width:1.41732132;stroke-linecap:round;stroke-linejoin:round;stroke-miterlimit:4;stroke-dasharray:none;stroke-dashoffset:0;stroke-opacity:1;paint-order:markers stroke fill"
     d="m 223.75297,160.42144 c 3.46073,10.37581 11.59947,12.2664 18.93546,10.39775 7.33596,-1.86866 13.30327,-8.84978 10.67046,-18.2329 -1.07369,-3.82652 -4.40136,-9.82611 -8.0409,-16.26245 -6.96732,-12.32138 -10.40512,-24.06859 -13.45306,-36.11651 -3.5979,-14.221786 -6.13094,-28.862592 -5.75018,-45.361456 0.18367,-7.958714 -1.41857,-13.890069 -1.84448,-14.845529 -5.37599,-12.060048 -14.36529,-11.69014 -19.32155,-10.38985 -4.95626,1.30028 -14.1953,7.898041 -10.88698,18.87313 2.35062,7.798023 4.3609,9.389128 7.39433,13.58583 7.17039,9.920111 6.2331,28.197269 9.53734,44.361925 2.97126,14.53567 10.48878,26.80489 11.38116,39.2704 0.47672,6.65917 0.14634,11.02578 1.3784,14.71966 z m 4.72607,-1.02219 c -1.65655,-5.68272 1.58269,-11.63739 7.25354,-13.33414 l 0.30007,-0.0856 c 5.71672,-1.53157 11.59833,1.83588 13.17161,7.54126 1.57314,5.70526 -1.75115,11.61117 -7.44472,13.22613 -5.69387,1.61511 -11.6243,-1.66625 -13.28065,-7.34825 z M 198.50547,47.536375 c -1.65654,-5.68272 1.58269,-11.63737 7.25354,-13.33412 l 0.30008,-0.0856 c 5.71671,-1.53159 11.59832,1.83587 13.1716,7.54124 1.57314,5.70528 -1.75114,11.61117 -7.44472,13.22613 -5.69387,1.61511 -11.6243,-1.66624 -13.28065,-7.34825 z m 13.3819,13.8103 c -0.21781,-0.74797 0.20894,-1.53151 0.95544,-1.75434 l 0.0396,-0.0106 c 0.75174,-0.20098 1.52493,0.24169 1.7322,0.99171 0.20735,0.75068 -0.22965,1.52804 -0.97878,1.74087 -0.74975,0.21312 -1.53088,-0.21917 -1.74848,-0.96763 z m 21.17078,79.006545 c -0.21768,-0.74744 0.20829,-1.53052 0.95403,-1.75394 l 0.0408,-0.012 c 0.75229,-0.20113 1.52596,0.24234 1.73259,0.99314 0.20624,0.75037 -0.23059,1.52676 -0.97915,1.73945 -0.74922,0.21296 -1.5299,-0.21852 -1.74812,-0.96622 z m -2.93485,-10.95297 c -0.21767,-0.74743 0.2083,-1.53053 0.95403,-1.75395 l 0.0396,-0.0106 c 0.75208,-0.20192 1.52621,0.24074 1.73361,0.99134 0.2075,0.7512 -0.23029,1.52902 -0.98019,1.74124 -0.74941,0.2122 -1.52962,-0.22011 -1.74708,-0.96802 z m -2.93446,-10.95156 c -0.21766,-0.74743 0.2083,-1.53053 0.95404,-1.75395 l 0.0393,-0.0116 c 0.75264,-0.20205 1.52722,0.24141 1.73401,0.99275 0.20638,0.75092 -0.23124,1.52778 -0.98058,1.73984 -0.74887,0.21204 -1.52863,-0.21947 -1.7467,-0.96662 z M 214.82317,72.299375 c -0.21767,-0.74743 0.20829,-1.53052 0.95403,-1.75394 l 0.0393,-0.0116 c 0.75264,-0.20206 1.52721,0.24139 1.734,0.99274 0.20639,0.75092 -0.23123,1.52777 -0.98058,1.73983 -0.74887,0.21205 -1.52862,-0.21945 -1.74669,-0.96659 z m 2.97406,10.940939 c -0.21766,-0.74744 0.2083,-1.53052 0.95405,-1.75395 l 0.0393,-0.0116 c 0.75263,-0.20205 1.5272,0.2414 1.734,0.99273 0.20638,0.75093 -0.23126,1.52777 -0.98058,1.73984 -0.74887,0.21204 -1.52862,-0.21947 -1.74669,-0.9666 z"
     id="path24870"
     inkscape:connector-curvature="0"
     sodipodi:nodetypes="szssssssssssscccccccccccccccccccccccccccccccccccccccccccccccccccccccc" />
  <path
     style="opacity:1;fill:#729fcf;fill-opacity:1;stroke:none;stroke-width:1.41732132;stroke-linecap:round;stroke-linejoin:round;stroke-miterlimit:4;stroke-dasharray:none;stroke-dashoffset:0;stroke-opacity:1;paint-order:markers stroke fill"
     d="m 244.18293,8.7478738 h -8.36278 c -3.14078,0 -5.66894,2.5296202 -5.66894,5.6704102 l -4.8e-4,60.0937 c 0,3.14079 2.52816,5.67041 5.66894,5.67041 h 8.36278 c -2.1e-4,-23.59999 5.1e-4,-49.97457 4.8e-4,-71.4345202 z m -9.07078,54.7646102 c -0.0298,-1.40062 1.07525,-2.5633 2.47558,-2.60449 l 0.0747,-0.002 c 1.40145,4.5e-4 2.54014,1.1313 2.55029,2.53271 0.0101,1.40151 -1.11226,2.54876 -2.51367,2.56933 -1.40161,0.0199 -2.55678,-1.09466 -2.58691,-2.49609 z m 4.8e-4,-37.98338 c -0.0307,-1.40118 1.07467,-2.56476 2.47558,-2.60595 l 0.0747,-0.001 c 1.40145,4.5e-4 2.54014,1.13129 2.55029,2.53271 0.0101,1.40152 -1.11226,2.54876 -2.51367,2.56933 -1.40105,0.02 -2.55599,-1.09377 -2.58691,-2.49462 z"
     id="path25317"
     inkscape:connector-curvature="0"
     sodipodi:nodetypes="csccscccccccccccccc" />
  <path
     style="fill:none;fill-rule:evenodd;stroke:#000000;stroke-width:0.74999911px;stroke-linecap:butt;stroke-linejoin:miter;stroke-opacity:1"
     d="M 240.9341,109.50611 H 186.99862"
     id="path106"
     inkscape:connector-curvature="0" />
  <path
     style="fill:none;fill-rule:evenodd;stroke:#000000;stroke-width:0.74999911px;stroke-linecap:butt;stroke-linejoin:miter;stroke-opacity:1"
     d="M 240.9341,174.7033 H 188.87362"
     id="path108"
     inkscape:connector-curvature="0" />
  <path
     style="fill:none;fill-rule:evenodd;stroke:#000000;stroke-width:0.74999911;stroke-linecap:butt;stroke-linejoin:miter;stroke-miterlimit:4;stroke-dasharray:none;stroke-opacity:1;marker-start:url(#Arrow1Mstart);marker-end:url(#Arrow1Mend)"
     d="m 194.68611,109.50611 v 64.9684"
     id="path110"
     inkscape:connector-curvature="0" />
  <text
     xml:space="preserve"
     style="font-style:normal;font-variant:normal;font-weight:bold;font-stretch:normal;font-size:11.99998569px;line-height:31.99996376px;font-family:sans-serif;-inkscape-font-specification:'sans-serif, Bold';font-variant-ligatures:normal;font-variant-caps:normal;font-variant-numeric:normal;font-feature-settings:normal;text-align:center;letter-spacing:0px;word-spacing:0px;writing-mode:lr-tb;text-anchor:middle;fill:#000000;fill-opacity:1;stroke:none;stroke-width:0.74999911px;stroke-linecap:butt;stroke-linejoin:miter;stroke-opacity:1"
     x="-142.53624"
     y="192.36995"
     id="text973"
     transform="rotate(-90)"><tspan
       sodipodi:role="line"
       id="tspan971"
       x="-142.53624"
       y="192.36995"
       style="stroke-width:0.74999911px">23mm</tspan></text>
  <path
     sodipodi:nodetypes="szssssssssssscccccccccccccccccccccccccccccccccccccccccccccccccccccccc"
     inkscape:connector-curvature="0"
     id="path1001"
     d="m 150.25307,160.42144 c 3.46073,10.37581 11.59947,12.2664 18.93546,10.39775 7.33596,-1.86866 13.30327,-8.84978 10.67046,-18.2329 -1.07369,-3.82652 -4.40136,-9.82611 -8.0409,-16.26245 -6.96732,-12.32138 -10.40512,-24.06859 -13.45306,-36.11651 -3.5979,-14.221786 -6.13094,-28.862592 -5.75018,-45.361456 0.18367,-7.958714 -1.41857,-13.890069 -1.84448,-14.845529 -5.37599,-12.060048 -14.36529,-11.69014 -19.32155,-10.38985 -4.95626,1.30028 -14.1953,7.898041 -10.88698,18.87313 2.35062,7.798023 4.3609,9.389128 7.39433,13.58583 7.17039,9.920111 6.2331,28.197269 9.53734,44.361925 2.97126,14.53567 10.48878,26.80489 11.38116,39.2704 0.47672,6.65917 0.14634,11.02578 1.3784,14.71966 z m 4.72607,-1.02219 c -1.65655,-5.68272 1.58269,-11.63739 7.25354,-13.33414 l 0.30007,-0.0856 c 5.71672,-1.53157 11.59833,1.83588 13.17161,7.54126 1.57314,5.70526 -1.75115,11.61117 -7.44472,13.22613 -5.69387,1.61511 -11.6243,-1.66625 -13.28065,-7.34825 z M 125.00557,47.536375 c -1.65654,-5.68272 1.58269,-11.63737 7.25354,-13.33412 l 0.30008,-0.0856 c 5.71671,-1.53159 11.59832,1.83587 13.1716,7.54124 1.57314,5.70528 -1.75114,11.61117 -7.44472,13.22613 -5.69387,1.61511 -11.6243,-1.66624 -13.28065,-7.34825 z m 13.3819,13.8103 c -0.21781,-0.74797 0.20894,-1.53151 0.95544,-1.75434 l 0.0396,-0.0106 c 0.75174,-0.20098 1.52493,0.24169 1.7322,0.99171 0.20735,0.75068 -0.22965,1.52804 -0.97878,1.74087 -0.74975,0.21312 -1.53088,-0.21917 -1.74848,-0.96763 z m 21.17078,79.006545 c -0.21768,-0.74744 0.20829,-1.53052 0.95403,-1.75394 l 0.0408,-0.012 c 0.75229,-0.20113 1.52596,0.24234 1.73259,0.99314 0.20624,0.75037 -0.23059,1.52676 -0.97915,1.73945 -0.74922,0.21296 -1.5299,-0.21852 -1.74812,-0.96622 z m -2.93485,-10.95297 c -0.21767,-0.74743 0.2083,-1.53053 0.95403,-1.75395 l 0.0396,-0.0106 c 0.75208,-0.20192 1.52621,0.24074 1.73361,0.99134 0.2075,0.7512 -0.23029,1.52902 -0.98019,1.74124 -0.74941,0.2122 -1.52962,-0.22011 -1.74708,-0.96802 z m -2.93446,-10.95156 c -0.21766,-0.74743 0.2083,-1.53053 0.95404,-1.75395 l 0.0393,-0.0116 c 0.75264,-0.20205 1.52722,0.24141 1.73401,0.99275 0.20638,0.75092 -0.23124,1.52778 -0.98058,1.73984 -0.74887,0.21204 -1.52863,-0.21947 -1.7467,-0.96662 z M 141.32327,72.299375 c -0.21767,-0.74743 0.20829,-1.53052 0.95403,-1.75394 l 0.0393,-0.0116 c 0.75264,-0.20206 1.52721,0.24139 1.734,0.99274 0.20639,0.75092 -0.23123,1.52777 -0.98058,1.73983 -0.74887,0.21205 -1.52862,-0.21945 -1.74669,-0.96659 z m 2.97406,10.940939 c -0.21766,-0.74744 0.2083,-1.53052 0.95405,-1.75395 l 0.0393,-0.0116 c 0.75263,-0.20205 1.5272,0.2414 1.734,0.99273 0.20638,0.75093 -0.23126,1.52777 -0.98058,1.73984 -0.74887,0.21204 -1.52862,-0.21947 -1.74669,-0.9666 z"
     style="opacity:1;fill:#729fcf;fill-opacity:1;stroke:none;stroke-width:1.41732132;stroke-linecap:round;stroke-linejoin:round;stroke-miterlimit:4;stroke-dasharray:none;stroke-dashoffset:0;stroke-opacity:1;paint-order:markers stroke fill" />
  <path
     sodipodi:nodetypes="csccscccccccccccccc"
     inkscape:connector-curvature="0"
     id="path1003"
     d="m 170.68303,8.7478738 h -8.36278 c -3.14078,0 -5.66894,2.5296202 -5.66894,5.6704102 l -4.8e-4,60.0937 c 0,3.14079 2.52816,5.67041 5.66894,5.67041 h 8.36278 c -2.1e-4,-23.59999 5.1e-4,-49.97457 4.8e-4,-71.4345202 z m -9.07078,54.7646102 c -0.0298,-1.40062 1.07525,-2.5633 2.47558,-2.60449 l 0.0747,-0.002 c 1.40145,4.5e-4 2.54014,1.1313 2.55029,2.53271 0.0101,1.40151 -1.11226,2.54876 -2.51367,2.56933 -1.40161,0.0199 -2.55678,-1.09466 -2.58691,-2.49609 z m 4.8e-4,-37.98338 c -0.0307,-1.40118 1.07467,-2.56476 2.47558,-2.60595 l 0.0747,-0.001 c 1.40145,4.5e-4 2.54014,1.13129 2.55029,2.53271 0.0101,1.40152 -1.11226,2.54876 -2.51367,2.56933 -1.40105,0.02 -2.55599,-1.09377 -2.58691,-2.49462 z"
     style="opacity:1;fill:#729fcf;fill-opacity:1;stroke:none;stroke-width:1.41732132;stroke-linecap:round;stroke-linejoin:round;stroke-miterlimit:4;stroke-dasharray:none;stroke-dashoffset:0;stroke-opacity:1;paint-order:markers stroke fill" />
  <path
     style="fill:#729fcf;fill-opacity:1;stroke:none;stroke-width:1.41732121;stroke-linecap:round;stroke-linejoin:round;stroke-miterlimit:4;stroke-dasharray:none;stroke-opacity:1;paint-order:markers stroke fill"
     d="m 98.356657,8.4539841 c 0,76.7992309 9.657123,86.9896489 -0.25341,86.9896409 -3.14079,0 -5.66895,2.528158 -5.66895,5.668945 v 8.39354 h 21.796853 c 0.7852,0 1.41797,0.63278 1.41797,1.41797 v 62.36272 c 0,0.78519 -0.63277,1.4165 -1.41797,1.4165 H 92.434297 v 7.79589 c 0,3.14079 2.52816,5.66894 5.66895,5.66894 h 14.144513 c 6.28157,0 11.33788,-5.05778 11.33788,-11.33934 v -2.69238 c 0,-64.06293 3.31511,-116.242608 -25.228983,-165.6824259 z m -0.0175,92.5487159 c 1.40153,-0.0101 2.548773,1.11227 2.569333,2.51368 0.0208,1.40217 -1.094073,2.55824 -2.496083,2.58837 -1.40117,0.0299 -2.56409,-1.07614 -2.60449,-2.47705 l -0.001,-0.0732 c -3.6e-4,-1.40203 1.13072,-2.54161 2.5327,-2.55176 z m 0,77.10197 c 1.40208,-0.0101 2.549563,1.11315 2.569333,2.51513 0.0199,1.40161 -1.094663,2.55678 -2.496083,2.58691 -1.40117,0.0299 -2.56408,-1.07614 -2.60449,-2.47705 l -0.001,-0.0733 c -3.6e-4,-1.40202 1.13072,-2.54161 2.5327,-2.55175 z"
     id="path1005"
     inkscape:connector-curvature="0"
     sodipodi:nodetypes="csscsssscssssscccccccacccca" />
  <path
     style="opacity:1;fill:#729fcf;fill-opacity:1;stroke:none;stroke-width:1.41732132;stroke-linecap:round;stroke-linejoin:round;stroke-miterlimit:4;stroke-dasharray:none;stroke-dashoffset:0;stroke-opacity:1;paint-order:markers stroke fill"
     d="m 75.253164,160.42144 c 3.46073,10.37581 11.599473,12.2664 18.935463,10.39775 7.335963,-1.86866 13.303273,-8.84978 10.670463,-18.2329 -1.07369,-3.82652 -4.40136,-9.82611 -8.040903,-16.26245 -6.96732,-12.32138 -10.40512,-24.06859 -13.453063,-36.11651 -3.5979,-14.221786 -6.13094,-28.862592 -5.75018,-45.361456 0.18367,-7.958714 -1.41857,-13.890069 -1.84448,-14.845529 -5.37599,-12.060048 -14.365293,-11.69014 -19.321553,-10.38985 -4.956263,1.30028 -14.195303,7.898041 -10.886983,18.87313 2.35062,7.798023 4.3609,9.389128 7.39433,13.58583 7.170393,9.920111 6.233103,28.197269 9.537343,44.361925 2.97126,14.53567 10.488783,26.80489 11.381163,39.2704 0.47672,6.65917 0.14634,11.02578 1.3784,14.71966 z m 4.72607,-1.02219 c -1.65655,-5.68272 1.58269,-11.63739 7.253543,-13.33414 l 0.30007,-0.0856 c 5.71672,-1.53157 11.59833,1.83588 13.171613,7.54126 1.57314,5.70526 -1.751153,11.61117 -7.444723,13.22613 -5.69387,1.61511 -11.624303,-1.66625 -13.280653,-7.34825 z M 50.005658,47.536375 c -1.65654,-5.68272 1.58269,-11.63737 7.253543,-13.33412 l 0.30008,-0.0856 c 5.71671,-1.53159 11.59832,1.83587 13.171603,7.54124 1.57314,5.70528 -1.751143,11.61117 -7.444723,13.22613 -5.69387,1.61511 -11.624303,-1.66624 -13.280653,-7.34825 z m 13.381903,13.8103 c -0.21781,-0.74797 0.20894,-1.53151 0.95544,-1.75434 l 0.0396,-0.0106 c 0.75174,-0.20098 1.52493,0.24169 1.7322,0.99171 0.20735,0.75068 -0.22965,1.52804 -0.97878,1.74087 -0.74975,0.21312 -1.53088,-0.21917 -1.74848,-0.96763 z m 21.170783,79.006545 c -0.21768,-0.74744 0.20829,-1.53052 0.954033,-1.75394 l 0.0408,-0.012 c 0.75229,-0.20113 1.52596,0.24234 1.73259,0.99314 0.20624,0.75037 -0.23059,1.52676 -0.97915,1.73945 -0.74922,0.21296 -1.529903,-0.21852 -1.748123,-0.96622 z m -2.93485,-10.95297 c -0.21767,-0.74743 0.2083,-1.53053 0.95403,-1.75395 l 0.0396,-0.0106 c 0.75208,-0.20192 1.52621,0.24074 1.73361,0.99134 0.2075,0.7512 -0.23029,1.52902 -0.98019,1.74124 -0.74941,0.2122 -1.52962,-0.22011 -1.74708,-0.96802 z m -2.93446,-10.95156 c -0.21766,-0.74743 0.2083,-1.53053 0.95404,-1.75395 l 0.0393,-0.0116 c 0.75264,-0.20205 1.52722,0.24141 1.73401,0.99275 0.20638,0.75092 -0.23124,1.52778 -0.98058,1.73984 -0.74887,0.21204 -1.52863,-0.21947 -1.7467,-0.96662 z M 66.323361,72.299375 c -0.21767,-0.74743 0.20829,-1.53052 0.95403,-1.75394 l 0.0393,-0.0116 c 0.75264,-0.20206 1.52721,0.24139 1.734,0.99274 0.20639,0.75092 -0.23123,1.52777 -0.98058,1.73983 -0.74887,0.21205 -1.52862,-0.21945 -1.74669,-0.96659 z m 2.97406,10.940939 c -0.21766,-0.74744 0.2083,-1.53052 0.954053,-1.75395 l 0.0393,-0.0116 c 0.75263,-0.20205 1.5272,0.2414 1.734,0.99273 0.20638,0.75093 -0.23126,1.52777 -0.98058,1.73984 -0.74887,0.21204 -1.528623,-0.21947 -1.746693,-0.9666 z"
     id="path1007"
     inkscape:connector-curvature="0"
     sodipodi:nodetypes="szssssssssssscccccccccccccccccccccccccccccccccccccccccccccccccccccccc" />
  <path
     style="opacity:1;fill:#729fcf;fill-opacity:1;stroke:none;stroke-width:1.41732132;stroke-linecap:round;stroke-linejoin:round;stroke-miterlimit:4;stroke-dasharray:none;stroke-dashoffset:0;stroke-opacity:1;paint-order:markers stroke fill"
     d="m 95.683127,8.7478738 h -8.36278 c -3.140783,0 -5.668943,2.5296202 -5.668943,5.6704102 l -4.8e-4,60.0937 c 0,3.14079 2.52816,5.67041 5.668943,5.67041 h 8.36278 c -2.1e-4,-23.59999 5.1e-4,-49.97457 4.8e-4,-71.4345202 z m -9.07078,54.7646102 c -0.0298,-1.40062 1.07525,-2.5633 2.47558,-2.60449 l 0.0747,-0.002 c 1.40145,4.5e-4 2.54014,1.1313 2.55029,2.53271 0.0101,1.40151 -1.11226,2.54876 -2.51367,2.56933 -1.40161,0.0199 -2.55678,-1.09466 -2.58691,-2.49609 z m 4.8e-4,-37.98338 c -0.0307,-1.40118 1.07467,-2.56476 2.47558,-2.60595 l 0.0747,-0.001 c 1.40145,4.5e-4 2.54014,1.13129 2.55029,2.53271 0.0101,1.40152 -1.11226,2.54876 -2.51367,2.56933 -1.40105,0.02 -2.55599,-1.09377 -2.58691,-2.49462 z"
     id="path1009"
     inkscape:connector-curvature="0"
     sodipodi:nodetypes="csccscccccccccccccc" />
  <g
     id="g1020"
     transform="rotate(90,71.533149,300.0608)">
    <path
       style="fill:#729fcf;fill-opacity:1;stroke:none;stroke-width:1.41732121;stroke-linecap:round;stroke-linejoin:round;stroke-miterlimit:4;stroke-dasharray:none;stroke-opacity:1;paint-order:markers stroke fill"
       d="m 23.356743,98.453883 c 0,76.799217 9.65712,86.989637 -0.25341,86.989627 -3.14079,0 -5.66895,2.52816 -5.66895,5.66894 v 8.39354 h 21.79685 c 0.7852,0 1.41797,0.63278 1.41797,1.41797 v 62.36272 c 0,0.78519 -0.63277,1.4165 -1.41797,1.4165 h -21.79685 v 7.79589 c 0,3.14079 2.52816,5.66894 5.66895,5.66894 h 14.14451 c 6.28157,0 11.33788,-5.05778 11.33788,-11.33934 v -2.69238 c 0,-64.06293 3.31511,-116.2426 -25.22898,-165.682407 z m -0.0175,92.548697 c 1.40153,-0.0101 2.54877,1.11227 2.56933,2.51368 0.0208,1.40217 -1.09407,2.55824 -2.49608,2.58837 -1.40117,0.0299 -2.56409,-1.07614 -2.60449,-2.47705 l -10e-4,-0.0732 c -3.6e-4,-1.40203 1.13072,-2.54161 2.5327,-2.55176 z m 0,77.10197 c 1.40208,-0.0101 2.54956,1.11315 2.56933,2.51513 0.0199,1.40161 -1.09466,2.55678 -2.49608,2.58691 -1.40117,0.0299 -2.56408,-1.07614 -2.60449,-2.47705 l -10e-4,-0.0733 c -3.6e-4,-1.40202 1.13072,-2.54161 2.5327,-2.55175 z"
       id="path1011"
       inkscape:connector-curvature="0"
       sodipodi:nodetypes="csscsssscssssscccccccacccca" />
    <path
       style="opacity:1;fill:#729fcf;fill-opacity:1;stroke:none;stroke-width:1.41732132;stroke-linecap:round;stroke-linejoin:round;stroke-miterlimit:4;stroke-dasharray:none;stroke-dashoffset:0;stroke-opacity:1;paint-order:markers stroke fill"
       d="m 0.25324936,250.42132 c 3.46073004,10.37581 11.59946964,12.2664 18.93545964,10.39775 7.33597,-1.86866 13.30328,-8.84978 10.67047,-18.2329 -1.07369,-3.82652 -4.40136,-9.82611 -8.04091,-16.26245 -6.96732,-12.32138 -10.40512,-24.06859 -13.4530596,-36.11651 -3.5979,-14.22178 -6.13094,-28.86259 -5.75018,-45.36144 0.18367,-7.95872 -1.41857,-13.89007 -1.84448004,-14.84553 C -4.6054406,117.94019 -13.594741,118.3101 -18.551001,119.61039 c -4.95627,1.30028 -14.19531,7.89804 -10.88699,18.87313 2.35062,7.79802 4.3609,9.38912 7.39433,13.58582 7.1704,9.92011 6.23311,28.19727 9.53735,44.36192 2.9712604,14.53567 10.4887804,26.80489 11.3811604,39.2704 0.47671996,6.65917 0.14633996,11.02578 1.37839996,14.71966 z m 4.72607004,-1.02219 c -1.65655,-5.68272 1.58269,-11.63739 7.2535396,-13.33414 l 0.30007,-0.0856 c 5.71672,-1.53157 11.59833,1.83588 13.17162,7.54126 1.57314,5.70526 -1.75116,11.61117 -7.44473,13.22613 -5.69387,1.61511 -11.6242996,-1.66625 -13.2806496,-7.34825 z M -24.994261,137.53627 c -1.65654,-5.68272 1.58269,-11.63737 7.25355,-13.33412 l 0.30008,-0.0856 c 5.71671,-1.53159 11.5983204,1.83587 13.1716004,7.54124 1.57314,5.70528 -1.75114,11.61117 -7.4447204,13.22613 -5.69387,1.6151 -11.62431,-1.66624 -13.28066,-7.34825 z m 13.38191,13.81029 c -0.21781,-0.74797 0.20894,-1.53151 0.95544,-1.75434 l 0.0396,-0.0106 c 0.7517404,-0.20098 1.5249304,0.24169 1.7322004,0.99171 0.20735,0.75068 -0.22965,1.52804 -0.97878,1.74087 -0.7497504,0.21312 -1.5308804,-0.21917 -1.7484804,-0.96763 z M 9.5584294,230.3531 c -0.21768,-0.74744 0.20829,-1.53052 0.9540296,-1.75394 l 0.0408,-0.012 c 0.75229,-0.20113 1.52596,0.24234 1.73259,0.99314 0.20624,0.75037 -0.23059,1.52676 -0.97915,1.73945 -0.74922,0.21296 -1.5298996,-0.21852 -1.7481196,-0.96622 z m -2.93485,-10.95297 c -0.21767,-0.74743 0.2083,-1.53053 0.95403,-1.75395 l 0.0396,-0.0106 c 0.75208,-0.20192 1.52621,0.24074 1.73361,0.99134 0.2075,0.7512 -0.23029,1.52902 -0.98019,1.74124 -0.74941,0.2122 -1.52962,-0.22011 -1.74708,-0.96802 z m -2.93446,-10.95156 c -0.21766,-0.74743 0.2083,-1.53053 0.95404,-1.75395 l 0.0393,-0.0116 c 0.75264,-0.20205 1.52722,0.24141 1.73401,0.99275 0.20638,0.75092 -0.23124,1.52778 -0.98058,1.73984 -0.74887,0.21204 -1.52863,-0.21947 -1.7467,-0.96662 z m -12.36567,-46.14931 c -0.21767,-0.74743 0.20829,-1.53052 0.95403,-1.75394 l 0.0393,-0.0116 c 0.75264,-0.20206 1.52721,0.24139 1.734,0.99274 0.20639,0.75092 -0.23123,1.52777 -0.98058,1.73983 -0.74887,0.21205 -1.52862,-0.21945 -1.74669,-0.96659 z m 2.97406,10.94094 c -0.21766,-0.74744 0.2083,-1.53052 0.95405,-1.75395 l 0.0393,-0.0116 c 0.75263,-0.20205 1.5272,0.2414 1.734,0.99273 0.20638,0.75093 -0.23126,1.52777 -0.98058,1.73984 -0.74887,0.21204 -1.52862,-0.21947 -1.74669,-0.9666 z"
       id="path1013"
       inkscape:connector-curvature="0"
       sodipodi:nodetypes="szssssssssssscccccccccccccccccccccccccccccccccccccccccccccccccccccccc" />
    <path
       style="opacity:1;fill:#729fcf;fill-opacity:1;stroke:none;stroke-width:1.41732132;stroke-linecap:round;stroke-linejoin:round;stroke-miterlimit:4;stroke-dasharray:none;stroke-dashoffset:0;stroke-opacity:1;paint-order:markers stroke fill"
       d="m 20.683216,98.74777 h -8.36278 c -3.14079,0 -5.66895,2.52962 -5.66895,5.67041 l -4.8e-4,60.09369 c 0,3.14079 2.52816,5.67041 5.66895,5.67041 h 8.36278 c -2.1e-4,-23.59999 5.1e-4,-49.97456 4.8e-4,-71.43451 z m -9.07078,54.7646 c -0.0298,-1.40062 1.07525,-2.5633 2.47558,-2.60449 l 0.0747,-0.002 c 1.40145,4.5e-4 2.54014,1.1313 2.55029,2.53271 0.0101,1.40151 -1.11226,2.54876 -2.51367,2.56933 -1.40161,0.0199 -2.55678,-1.09466 -2.58691,-2.49609 z m 4.8e-4,-37.98337 c -0.0307,-1.40118 1.07467,-2.56476 2.47558,-2.60595 l 0.0747,-0.001 c 1.40145,4.5e-4 2.54014,1.13129 2.55029,2.53271 0.0101,1.40152 -1.11226,2.54876 -2.51367,2.56933 -1.40105,0.02 -2.55599,-1.09377 -2.58691,-2.49462 z"
       id="path1015"
       inkscape:connector-curvature="0"
       sodipodi:nodetypes="csccscccccccccccccc" />
  </g>
  <path
     style="fill:#729fcf;fill-opacity:1;stroke:none;stroke-width:1.41732121;stroke-linecap:round;stroke-linejoin:round;stroke-miterlimit:4;stroke-dasharray:none;stroke-opacity:1;paint-order:markers stroke fill"
     d="m 20.309901,8.479863 c 0,76.799217 9.65712,86.989637 -0.25341,86.989627 -3.14079,0 -5.66895,2.52816 -5.66895,5.66894 v 8.39354 h 21.79685 c 0.7852,0 1.41797,0.63278 1.41797,1.41797 v 62.36272 c 0,0.78519 -0.63277,1.4165 -1.41797,1.4165 h -21.79685 v 7.79589 c 0,3.14079 2.52816,5.66894 5.66895,5.66894 h 14.14451 c 6.28157,0 11.33788,-5.05778 11.33788,-11.33934 v -2.69238 c 0,-64.06293 3.31511,-116.2426 -25.22898,-165.682407 z m -0.0175,92.548697 c 1.40153,-0.0101 2.54877,1.11227 2.56933,2.51368 0.0208,1.40217 -1.09407,2.55824 -2.49608,2.58837 -1.40117,0.0299 -2.56409,-1.07614 -2.60449,-2.47705 l -0.001,-0.0732 c -3.6e-4,-1.40203 1.13072,-2.54161 2.5327,-2.55176 z m 0,77.10197 c 1.40208,-0.0101 2.54956,1.11315 2.56933,2.51513 0.0199,1.40161 -1.09466,2.55678 -2.49608,2.58691 -1.40117,0.0299 -2.56408,-1.07614 -2.60449,-2.47705 l -0.001,-0.0733 c -3.6e-4,-1.40202 1.13072,-2.54161 2.5327,-2.55175 z"
     id="path1022"
     inkscape:connector-curvature="0"
     sodipodi:nodetypes="csscsssscssssscccccccacccca" />
  <path
     style="opacity:1;fill:#729fcf;fill-opacity:1;stroke:none;stroke-width:1.41732132;stroke-linecap:round;stroke-linejoin:round;stroke-miterlimit:4;stroke-dasharray:none;stroke-dashoffset:0;stroke-opacity:1;paint-order:markers stroke fill"
     d="m 145.36544,216.31408 c 10.37581,-3.46073 12.2664,-11.59947 10.39775,-18.93546 -1.86866,-7.33597 -8.84978,-13.30328 -18.2329,-10.67047 -3.82652,1.07369 -9.82611,4.40136 -16.26245,8.04091 -12.32138,6.96732 -24.068587,10.40512 -36.116507,13.45306 -14.22178,3.5979 -28.86259,6.13094 -45.36144,5.75018 -7.95872,-0.18367 -13.890069,1.41857 -14.845529,1.84448 -12.06005,5.37599 -11.69014,14.36529 -10.38985,19.32155 1.30028,4.95627 7.89804,14.19531 18.873129,10.88699 7.79802,-2.35062 9.38912,-4.3609 13.58582,-7.39433 9.92011,-7.1704 28.19727,-6.23311 44.36192,-9.53735 14.535667,-2.97126 26.804887,-10.48878 39.270397,-11.38116 6.65917,-0.47672 11.02578,-0.14634 14.71966,-1.3784 z m -1.02219,-4.72607 c -5.68272,1.65655 -11.63739,-1.58269 -13.33414,-7.25354 l -0.0856,-0.30007 c -1.53157,-5.71672 1.83588,-11.59833 7.54126,-13.17162 5.70526,-1.57314 11.61117,1.75116 13.22613,7.44473 1.61511,5.69387 -1.66625,11.6243 -7.34825,13.28065 z M 32.480393,241.56159 c -5.68272,1.65654 -11.637369,-1.58269 -13.334119,-7.25355 l -0.0856,-0.30008 c -1.53159,-5.71671 1.83587,-11.59832 7.541239,-13.1716 5.70528,-1.57314 11.61117,1.75114 13.22613,7.44472 1.6151,5.69387 -1.66624,11.62431 -7.34825,13.28066 z m 13.81029,-13.38191 c -0.74797,0.21781 -1.53151,-0.20894 -1.75434,-0.95544 l -0.0106,-0.0396 c -0.20098,-0.75174 0.24169,-1.52493 0.99171,-1.7322 0.75068,-0.20735 1.52804,0.22965 1.74087,0.97878 0.21312,0.74975 -0.21917,1.53088 -0.96763,1.74848 z M 125.29722,207.0089 c -0.74744,0.21768 -1.53052,-0.20829 -1.75394,-0.95403 l -0.012,-0.0408 c -0.20113,-0.75229 0.24234,-1.52596 0.99314,-1.73259 0.75037,-0.20624 1.52676,0.23059 1.73945,0.97915 0.21296,0.74922 -0.21852,1.5299 -0.96622,1.74812 z m -10.95297,2.93485 c -0.74743,0.21767 -1.53053,-0.2083 -1.75395,-0.95403 l -0.0106,-0.0396 c -0.20192,-0.75208 0.24074,-1.52621 0.99134,-1.73361 0.7512,-0.2075 1.52902,0.23029 1.74124,0.98019 0.2122,0.74941 -0.22011,1.52962 -0.96802,1.74708 z m -10.95156,2.93446 c -0.74743,0.21766 -1.53053,-0.2083 -1.75395,-0.95404 l -0.0116,-0.0393 c -0.20205,-0.75264 0.24141,-1.52722 0.99275,-1.73401 0.75092,-0.20638 1.52778,0.23124 1.73984,0.98058 0.21204,0.74887 -0.21947,1.52863 -0.96662,1.7467 z m -46.149307,12.36567 c -0.74743,0.21767 -1.53052,-0.20829 -1.75394,-0.95403 l -0.0116,-0.0393 c -0.20206,-0.75264 0.24139,-1.52721 0.99274,-1.734 0.75092,-0.20639 1.52777,0.23123 1.73983,0.98058 0.21205,0.74887 -0.21945,1.52862 -0.96659,1.74669 z m 10.94094,-2.97406 c -0.74744,0.21766 -1.53052,-0.2083 -1.75395,-0.95405 l -0.0116,-0.0393 c -0.20205,-0.75263 0.2414,-1.5272 0.99273,-1.734 0.75093,-0.20638 1.52777,0.23126 1.73984,0.98058 0.21204,0.74887 -0.21947,1.52862 -0.9666,1.74669 z"
     id="path1024"
     inkscape:connector-curvature="0"
     sodipodi:nodetypes="szssssssssssscccccccccccccccccccccccccccccccccccccccccccccccccccccccc" />
  <path
     style="opacity:1;fill:#729fcf;fill-opacity:1;stroke:none;stroke-width:1.41732132;stroke-linecap:round;stroke-linejoin:round;stroke-miterlimit:4;stroke-dasharray:none;stroke-dashoffset:0;stroke-opacity:1;paint-order:markers stroke fill"
     d="m 66.490079,135.56612 h -8.36278 c -3.14079,0 -5.66895,2.52962 -5.66895,5.67041 l -4.8e-4,60.09369 c 0,3.14079 2.52816,5.67041 5.66895,5.67041 h 8.36278 c -2.1e-4,-23.59999 5.1e-4,-49.97456 4.8e-4,-71.43451 z m -9.07078,54.7646 c -0.0298,-1.40062 1.07525,-2.5633 2.47558,-2.60449 l 0.0747,-0.002 c 1.40145,4.5e-4 2.54014,1.1313 2.55029,2.53271 0.0101,1.40151 -1.11226,2.54876 -2.51367,2.56933 -1.40161,0.0199 -2.55678,-1.09466 -2.58691,-2.49609 z m 4.8e-4,-37.98337 c -0.0307,-1.40118 1.07467,-2.56476 2.47558,-2.60595 l 0.0747,-0.001 c 1.40145,4.5e-4 2.54014,1.13129 2.55029,2.53271 0.0101,1.40152 -1.11226,2.54876 -2.51367,2.56933 -1.40105,0.02 -2.55599,-1.09377 -2.58691,-2.49462 z"
     id="path1026"
     inkscape:connector-curvature="0"
     sodipodi:nodetypes="csccscccccccccccccc" />
</svg>
