  0
SECTION
  2
HEADER
  9
$ACADVER
  1
AC1014
  9
$HANDSEED
  5
FFFF
  9
$MEASUREMENT
 70
     1
  0
ENDSEC
  0
SECTION
  2
TABLES
  0
TABLE
  2
VPORT
  5
8
330
0
100
AcDbSymbolTable
 70
     4
  0
VPORT
  5
2E
330
8
100
AcDbSymbolTableRecord
100
AcDbViewportTableRecord
  2
*ACTIVE
 70
     0
 10
0.0
 20
0.0
 11
1.0
 21
1.0
 12
210.0
 22
148.5
 13
0.0
 23
0.0
 14
10.0
 24
10.0
 15
10.0
 25
10.0
 16
0.0
 26
0.0
 36
1.0
 17
0.0
 27
0.0
 37
0.0
 40
341.0
 41
1.24
 42
50.0
 43
0.0
 44
0.0
 50
0.0
 51
0.0
 71
     0
 72
   100
 73
     1
 74
     3
 75
     0
 76
     0
 77
     0
 78
     0
  0
ENDTAB
  0
TABLE
  2
LTYPE
  5
5
330
0
100
AcDbSymbolTable
 70
     1
  0
LTYPE
  5
14
330
5
100
AcDbSymbolTableRecord
100
AcDbLinetypeTableRecord
  2
BYBLOCK
 70
     0
  3

 72
    65
 73
     0
 40
0.0
  0
LTYPE
  5
15
330
5
100
AcDbSymbolTableRecord
100
AcDbLinetypeTableRecord
  2
BYLAYER
 70
     0
  3

 72
    65
 73
     0
 40
0.0
  0
LTYPE
  5
16
330
5
100
AcDbSymbolTableRecord
100
AcDbLinetypeTableRecord
  2
CONTINUOUS
 70
     0
  3
Solid line
 72
    65
 73
     0
 40
0.0
  0
ENDTAB
  0
TABLE
  2
LAYER
  5
2
100
AcDbSymbolTable
 70
1
  0
LAYER
  5
50
100
AcDbSymbolTableRecord
100
AcDbLayerTableRecord
  2
0
 70
0
  6
CONTINUOUS
  0
ENDTAB
  0
TABLE
  2
STYLE
  5
3
330
0
100
AcDbSymbolTable
 70
     1
  0
STYLE
  5
11
330
3
100
AcDbSymbolTableRecord
100
AcDbTextStyleTableRecord
  2
STANDARD
 70
     0
 40
0.0
 41
1.0
 50
0.0
 71
     0
 42
2.5
  3
txt
  4

  0
ENDTAB
  0
TABLE
  2
VIEW
  5
6
330
0
100
AcDbSymbolTable
 70
     0
  0
ENDTAB
  0
TABLE
  2
UCS
  5
7
330
0
100
AcDbSymbolTable
 70
     0
  0
ENDTAB
  0
TABLE
  2
APPID
  5
9
330
0
100
AcDbSymbolTable
 70
     2
  0
APPID
  5
12
330
9
100
AcDbSymbolTableRecord
100
AcDbRegAppTableRecord
  2
ACAD
 70
     0
  0
ENDTAB
  0
TABLE
  2
DIMSTYLE
  5
A
330
0
100
AcDbSymbolTable
 70
     1
  0
DIMSTYLE
105
27
330
A
100
AcDbSymbolTableRecord
100
AcDbDimStyleTableRecord
  2
ISO-25
 70
     0
  3

  4

  5

  6

  7

 40
1.0
 41
2.5
 42
0.625
 43
3.75
 44
1.25
 45
0.0
 46
0.0
 47
0.0
 48
0.0
140
2.5
141
2.5
142
0.0
143
0.03937007874016
144
1.0
145
0.0
146
1.0
147
0.625
 71
     0
 72
     0
 73
     0
 74
     0
 75
     0
 76
     0
 77
     1
 78
     8
170
     0
171
     3
172
     1
173
     0
174
     0
175
     0
176
     0
177
     0
178
     0
270
     2
271
     2
272
     2
273
     2
274
     3
340
11
275
     0
280
     0
281
     0
282
     0
283
     0
284
     8
285
     0
286
     0
287
     3
288
     0
  0
ENDTAB
  0
TABLE
  2
BLOCK_RECORD
  5
1
330
0
100
AcDbSymbolTable
 70
     1
  0
BLOCK_RECORD
  5
1F
330
1
100
AcDbSymbolTableRecord
100
AcDbBlockTableRecord
  2
*MODEL_SPACE
  0
BLOCK_RECORD
  5
1B
330
1
100
AcDbSymbolTableRecord
100
AcDbBlockTableRecord
  2
*PAPER_SPACE
  0
ENDTAB
  0
ENDSEC
  0
SECTION
  2
BLOCKS
  0
BLOCK
  5
20
330
1F
100
AcDbEntity
  8
0
100
AcDbBlockBegin
  2
*MODEL_SPACE
 70
     0
 10
0.0
 20
0.0
 30
0.0
  3
*MODEL_SPACE
  1

  0
ENDBLK
  5
21
330
1F
100
AcDbEntity
  8
0
100
AcDbBlockEnd
  0
BLOCK
  5
1C
330
1B
100
AcDbEntity
 67
     1
  8
0
100
AcDbBlockBegin
  2
*PAPER_SPACE
  1

  0
ENDBLK
  5
1D
330
1B
100
AcDbEntity
 67
     1
  8
0
100
AcDbBlockEnd
  0
ENDSEC
  0
SECTION
  2
ENTITIES
  0
SPLINE
  5
100
100
AcDbEntity
  8
0
 62
7
100
AcDbSpline
 70
8
 71
3
 72
8
 73
4
 74
0
 40
0
 40
0
 40
0
 40
0
 40
1
 40
1
 40
1
 40
1
 10
61.156419
 20
97.017744
 30
0.0
 10
61.156419
 20
69.924648
 30
0.0
 10
64.563241
 20
66.329691
 30
0.0
 10
61.067021
 20
66.329694
 30
0.0
  0
SPLINE
  5
101
100
AcDbEntity
  8
0
 62
7
100
AcDbSpline
 70
8
 71
3
 72
8
 73
4
 74
0
 40
0
 40
0
 40
0
 40
0
 40
1
 40
1
 40
1
 40
1
 10
61.067021
 20
66.329694
 30
0.0
 10
59.959019
 20
66.329694
 30
0.0
 10
59.067139
 20
65.437815
 30
0.0
 10
59.067139
 20
64.329813
 30
0.0
  0
LINE
  5
102
100
AcDbEntity
  8
0
 62
7
100
AcDbLine
 10
59.067139
 20
64.329813
 30
0.0
 11
59.067139
 21
61.368755
 31
0.0
  0
LINE
  5
103
100
AcDbEntity
  8
0
 62
7
100
AcDbLine
 10
59.067139
 20
61.368755
 30
0.0
 11
66.756593
 21
61.368755
 31
0.0
  0
SPLINE
  5
104
100
AcDbEntity
  8
0
 62
7
100
AcDbSpline
 70
8
 71
3
 72
8
 73
4
 74
0
 40
0
 40
0
 40
0
 40
0
 40
1
 40
1
 40
1
 40
1
 10
66.756593
 20
61.368755
 30
0.0
 10
67.033595
 20
61.368755
 30
0.0
 10
67.256822
 20
61.145524
 30
0.0
 10
67.256822
 20
60.868526
 30
0.0
  0
LINE
  5
105
100
AcDbEntity
  8
0
 62
7
100
AcDbLine
 10
67.256822
 20
60.868526
 30
0.0
 11
67.256822
 21
38.868317
 31
0.0
  0
SPLINE
  5
106
100
AcDbEntity
  8
0
 62
7
100
AcDbSpline
 70
8
 71
3
 72
8
 73
4
 74
0
 40
0
 40
0
 40
0
 40
0
 40
1
 40
1
 40
1
 40
1
 10
67.256822
 20
38.868317
 30
0.0
 10
67.256822
 20
38.591319
 30
0.0
 10
67.033595
 20
38.368606
 30
0.0
 10
66.756593
 20
38.368606
 30
0.0
  0
LINE
  5
107
100
AcDbEntity
  8
0
 62
7
100
AcDbLine
 10
66.756593
 20
38.368606
 30
0.0
 11
59.067139
 21
38.368606
 31
0.0
  0
LINE
  5
108
100
AcDbEntity
  8
0
 62
7
100
AcDbLine
 10
59.067139
 20
38.368606
 30
0.0
 11
59.067139
 21
35.618386
 31
0.0
  0
SPLINE
  5
109
100
AcDbEntity
  8
0
 62
7
100
AcDbSpline
 70
8
 71
3
 72
8
 73
4
 74
0
 40
0
 40
0
 40
0
 40
0
 40
1
 40
1
 40
1
 40
1
 10
59.067139
 20
35.618386
 30
0.0
 10
59.067139
 20
34.510384
 30
0.0
 10
59.959019
 20
33.618508
 30
0.0
 10
61.067021
 20
33.618508
 30
0.0
  0
LINE
  5
10a
100
AcDbEntity
  8
0
 62
7
100
AcDbLine
 10
61.067021
 20
33.618508
 30
0.0
 11
66.056897
 21
33.618508
 31
0.0
  0
SPLINE
  5
10b
100
AcDbEntity
  8
0
 62
7
100
AcDbSpline
 70
8
 71
3
 72
8
 73
4
 74
0
 40
0
 40
0
 40
0
 40
0
 40
1
 40
1
 40
1
 40
1
 10
66.056897
 20
33.618508
 30
0.0
 10
68.272898
 20
33.618508
 30
0.0
 10
70.056654
 20
35.402782
 30
0.0
 10
70.056654
 20
37.618780
 30
0.0
  0
LINE
  5
10c
100
AcDbEntity
  8
0
 62
7
100
AcDbLine
 10
70.056654
 20
37.618780
 30
0.0
 11
70.056654
 21
38.568593
 31
0.0
  0
SPLINE
  5
10d
100
AcDbEntity
  8
0
 62
7
100
AcDbSpline
 70
8
 71
3
 72
8
 73
4
 74
0
 40
0
 40
0
 40
0
 40
0
 40
1
 40
1
 40
1
 40
1
 10
70.056654
 20
38.568593
 30
0.0
 10
70.056654
 20
61.168599
 30
0.0
 10
71.226152
 20
79.576453
 30
0.0
 10
61.156419
 20
97.017744
 30
0.0
  0
LINE
  5
10e
100
AcDbEntity
  8
0
 62
7
100
AcDbLine
 10
61.156419
 20
97.017744
 30
0.0
 11
61.156419
 21
97.017744
 31
0.0
  0
SPLINE
  5
10f
100
AcDbEntity
  8
0
 62
7
100
AcDbSpline
 70
8
 71
3
 72
8
 73
4
 74
0
 40
0
 40
0
 40
0
 40
0
 40
1
 40
1
 40
1
 40
1
 10
61.150245
 20
64.368573
 30
0.0
 10
61.644675
 20
64.372136
 30
0.0
 10
62.049396
 20
63.976188
 30
0.0
 10
62.056649
 20
63.481801
 30
0.0
  0
SPLINE
  5
110
100
AcDbEntity
  8
0
 62
7
100
AcDbSpline
 70
8
 71
3
 72
8
 73
4
 74
0
 40
0
 40
0
 40
0
 40
0
 40
1
 40
1
 40
1
 40
1
 10
62.056649
 20
63.481801
 30
0.0
 10
62.063987
 20
62.987146
 30
0.0
 10
61.670685
 20
62.579310
 30
0.0
 10
61.176086
 20
62.568681
 30
0.0
  0
SPLINE
  5
111
100
AcDbEntity
  8
0
 62
7
100
AcDbSpline
 70
8
 71
3
 72
8
 73
4
 74
0
 40
0
 40
0
 40
0
 40
0
 40
1
 40
1
 40
1
 40
1
 10
61.176086
 20
62.568681
 30
0.0
 10
60.681784
 20
62.558133
 30
0.0
 10
60.271531
 20
62.948320
 30
0.0
 10
60.257279
 20
63.442530
 30
0.0
  0
LINE
  5
112
100
AcDbEntity
  8
0
 62
7
100
AcDbLine
 10
60.257279
 20
63.442530
 30
0.0
 11
60.256926
 21
63.468354
 31
0.0
  0
SPLINE
  5
113
100
AcDbEntity
  8
0
 62
7
100
AcDbSpline
 70
8
 71
3
 72
8
 73
4
 74
0
 40
0
 40
0
 40
0
 40
0
 40
1
 40
1
 40
1
 40
1
 10
60.256926
 20
63.468354
 30
0.0
 10
60.256799
 20
63.962959
 30
0.0
 10
60.655820
 20
64.364978
 30
0.0
 10
61.150408
 20
64.368559
 30
0.0
  0
LINE
  5
114
100
AcDbEntity
  8
0
 62
7
100
AcDbLine
 10
61.150408
 20
64.368559
 30
0.0
 11
61.150245
 21
64.368573
 31
0.0
  0
SPLINE
  5
115
100
AcDbEntity
  8
0
 62
7
100
AcDbSpline
 70
8
 71
3
 72
8
 73
4
 74
0
 40
0
 40
0
 40
0
 40
0
 40
1
 40
1
 40
1
 40
1
 10
61.150245
 20
37.168677
 30
0.0
 10
61.644869
 20
37.172240
 30
0.0
 10
62.049675
 20
36.775982
 30
0.0
 10
62.056649
 20
36.281394
 30
0.0
  0
SPLINE
  5
116
100
AcDbEntity
  8
0
 62
7
100
AcDbSpline
 70
8
 71
3
 72
8
 73
4
 74
0
 40
0
 40
0
 40
0
 40
0
 40
1
 40
1
 40
1
 40
1
 10
62.056649
 20
36.281394
 30
0.0
 10
62.063669
 20
35.786937
 30
0.0
 10
61.670477
 20
35.379418
 30
0.0
 10
61.176086
 20
35.368789
 30
0.0
  0
SPLINE
  5
117
100
AcDbEntity
  8
0
 62
7
100
AcDbSpline
 70
8
 71
3
 72
8
 73
4
 74
0
 40
0
 40
0
 40
0
 40
0
 40
1
 40
1
 40
1
 40
1
 10
61.176086
 20
35.368789
 30
0.0
 10
60.681784
 20
35.358240
 30
0.0
 10
60.271535
 20
35.748427
 30
0.0
 10
60.257279
 20
36.242638
 30
0.0
  0
LINE
  5
118
100
AcDbEntity
  8
0
 62
7
100
AcDbLine
 10
60.257279
 20
36.242638
 30
0.0
 11
60.256926
 21
36.268496
 31
0.0
  0
SPLINE
  5
119
100
AcDbEntity
  8
0
 62
7
100
AcDbSpline
 70
8
 71
3
 72
8
 73
4
 74
0
 40
0
 40
0
 40
0
 40
0
 40
1
 40
1
 40
1
 40
1
 10
60.256926
 20
36.268496
 30
0.0
 10
60.256799
 20
36.763099
 30
0.0
 10
60.655820
 20
37.165121
 30
0.0
 10
61.150408
 20
37.168698
 30
0.0
  0
LINE
  5
11a
100
AcDbEntity
  8
0
 62
7
100
AcDbLine
 10
61.150408
 20
37.168698
 30
0.0
 11
61.150245
 21
37.168677
 31
0.0
  0
SPLINE
  5
11b
100
AcDbEntity
  8
0
 62
7
100
AcDbSpline
 70
8
 71
3
 72
8
 73
4
 74
0
 40
0
 40
0
 40
0
 40
0
 40
1
 40
1
 40
1
 40
1
 10
87.085583
 20
97.017744
 30
0.0
 10
87.085583
 20
69.924648
 30
0.0
 10
90.492405
 20
66.329691
 30
0.0
 10
86.996186
 20
66.329694
 30
0.0
  0
SPLINE
  5
11c
100
AcDbEntity
  8
0
 62
7
100
AcDbSpline
 70
8
 71
3
 72
8
 73
4
 74
0
 40
0
 40
0
 40
0
 40
0
 40
1
 40
1
 40
1
 40
1
 10
86.996186
 20
66.329694
 30
0.0
 10
85.888183
 20
66.329694
 30
0.0
 10
84.996303
 20
65.437815
 30
0.0
 10
84.996303
 20
64.329813
 30
0.0
  0
LINE
  5
11d
100
AcDbEntity
  8
0
 62
7
100
AcDbLine
 10
84.996303
 20
64.329813
 30
0.0
 11
84.996303
 21
61.368755
 31
0.0
  0
LINE
  5
11e
100
AcDbEntity
  8
0
 62
7
100
AcDbLine
 10
84.996303
 20
61.368755
 30
0.0
 11
92.685757
 21
61.368755
 31
0.0
  0
SPLINE
  5
11f
100
AcDbEntity
  8
0
 62
7
100
AcDbSpline
 70
8
 71
3
 72
8
 73
4
 74
0
 40
0
 40
0
 40
0
 40
0
 40
1
 40
1
 40
1
 40
1
 10
92.685757
 20
61.368755
 30
0.0
 10
92.962759
 20
61.368755
 30
0.0
 10
93.185986
 20
61.145524
 30
0.0
 10
93.185986
 20
60.868526
 30
0.0
  0
LINE
  5
120
100
AcDbEntity
  8
0
 62
7
100
AcDbLine
 10
93.185986
 20
60.868526
 30
0.0
 11
93.185986
 21
38.868317
 31
0.0
  0
SPLINE
  5
121
100
AcDbEntity
  8
0
 62
7
100
AcDbSpline
 70
8
 71
3
 72
8
 73
4
 74
0
 40
0
 40
0
 40
0
 40
0
 40
1
 40
1
 40
1
 40
1
 10
93.185986
 20
38.868317
 30
0.0
 10
93.185986
 20
38.591319
 30
0.0
 10
92.962759
 20
38.368606
 30
0.0
 10
92.685757
 20
38.368606
 30
0.0
  0
LINE
  5
122
100
AcDbEntity
  8
0
 62
7
100
AcDbLine
 10
92.685757
 20
38.368606
 30
0.0
 11
84.996303
 21
38.368606
 31
0.0
  0
LINE
  5
123
100
AcDbEntity
  8
0
 62
7
100
AcDbLine
 10
84.996303
 20
38.368606
 30
0.0
 11
84.996303
 21
35.618386
 31
0.0
  0
SPLINE
  5
124
100
AcDbEntity
  8
0
 62
7
100
AcDbSpline
 70
8
 71
3
 72
8
 73
4
 74
0
 40
0
 40
0
 40
0
 40
0
 40
1
 40
1
 40
1
 40
1
 10
84.996303
 20
35.618386
 30
0.0
 10
84.996303
 20
34.510384
 30
0.0
 10
85.888183
 20
33.618508
 30
0.0
 10
86.996186
 20
33.618508
 30
0.0
  0
LINE
  5
125
100
AcDbEntity
  8
0
 62
7
100
AcDbLine
 10
86.996186
 20
33.618508
 30
0.0
 11
91.986061
 21
33.618508
 31
0.0
  0
SPLINE
  5
126
100
AcDbEntity
  8
0
 62
7
100
AcDbSpline
 70
8
 71
3
 72
8
 73
4
 74
0
 40
0
 40
0
 40
0
 40
0
 40
1
 40
1
 40
1
 40
1
 10
91.986061
 20
33.618508
 30
0.0
 10
94.202062
 20
33.618508
 30
0.0
 10
95.985818
 20
35.402782
 30
0.0
 10
95.985818
 20
37.618780
 30
0.0
  0
LINE
  5
127
100
AcDbEntity
  8
0
 62
7
100
AcDbLine
 10
95.985818
 20
37.618780
 30
0.0
 11
95.985818
 21
38.568593
 31
0.0
  0
SPLINE
  5
128
100
AcDbEntity
  8
0
 62
7
100
AcDbSpline
 70
8
 71
3
 72
8
 73
4
 74
0
 40
0
 40
0
 40
0
 40
0
 40
1
 40
1
 40
1
 40
1
 10
95.985818
 20
38.568593
 30
0.0
 10
95.985818
 20
61.168599
 30
0.0
 10
97.155316
 20
79.576453
 30
0.0
 10
87.085583
 20
97.017744
 30
0.0
  0
LINE
  5
129
100
AcDbEntity
  8
0
 62
7
100
AcDbLine
 10
87.085583
 20
97.017744
 30
0.0
 11
87.085583
 21
97.017744
 31
0.0
  0
SPLINE
  5
12a
100
AcDbEntity
  8
0
 62
7
100
AcDbSpline
 70
8
 71
3
 72
8
 73
4
 74
0
 40
0
 40
0
 40
0
 40
0
 40
1
 40
1
 40
1
 40
1
 10
87.079409
 20
64.368573
 30
0.0
 10
87.573839
 20
64.372136
 30
0.0
 10
87.978560
 20
63.976188
 30
0.0
 10
87.985813
 20
63.481801
 30
0.0
  0
SPLINE
  5
12b
100
AcDbEntity
  8
0
 62
7
100
AcDbSpline
 70
8
 71
3
 72
8
 73
4
 74
0
 40
0
 40
0
 40
0
 40
0
 40
1
 40
1
 40
1
 40
1
 10
87.985813
 20
63.481801
 30
0.0
 10
87.993151
 20
62.987146
 30
0.0
 10
87.599849
 20
62.579310
 30
0.0
 10
87.105250
 20
62.568681
 30
0.0
  0
SPLINE
  5
12c
100
AcDbEntity
  8
0
 62
7
100
AcDbSpline
 70
8
 71
3
 72
8
 73
4
 74
0
 40
0
 40
0
 40
0
 40
0
 40
1
 40
1
 40
1
 40
1
 10
87.105250
 20
62.568681
 30
0.0
 10
86.610948
 20
62.558133
 30
0.0
 10
86.200695
 20
62.948320
 30
0.0
 10
86.186443
 20
63.442530
 30
0.0
  0
LINE
  5
12d
100
AcDbEntity
  8
0
 62
7
100
AcDbLine
 10
86.186443
 20
63.442530
 30
0.0
 11
86.186090
 21
63.468354
 31
0.0
  0
SPLINE
  5
12e
100
AcDbEntity
  8
0
 62
7
100
AcDbSpline
 70
8
 71
3
 72
8
 73
4
 74
0
 40
0
 40
0
 40
0
 40
0
 40
1
 40
1
 40
1
 40
1
 10
86.186090
 20
63.468354
 30
0.0
 10
86.185963
 20
63.962959
 30
0.0
 10
86.584984
 20
64.364978
 30
0.0
 10
87.079572
 20
64.368559
 30
0.0
  0
LINE
  5
12f
100
AcDbEntity
  8
0
 62
7
100
AcDbLine
 10
87.079572
 20
64.368559
 30
0.0
 11
87.079409
 21
64.368573
 31
0.0
  0
SPLINE
  5
130
100
AcDbEntity
  8
0
 62
7
100
AcDbSpline
 70
8
 71
3
 72
8
 73
4
 74
0
 40
0
 40
0
 40
0
 40
0
 40
1
 40
1
 40
1
 40
1
 10
87.079409
 20
37.168677
 30
0.0
 10
87.574033
 20
37.172240
 30
0.0
 10
87.978839
 20
36.775982
 30
0.0
 10
87.985813
 20
36.281394
 30
0.0
  0
SPLINE
  5
131
100
AcDbEntity
  8
0
 62
7
100
AcDbSpline
 70
8
 71
3
 72
8
 73
4
 74
0
 40
0
 40
0
 40
0
 40
0
 40
1
 40
1
 40
1
 40
1
 10
87.985813
 20
36.281394
 30
0.0
 10
87.992833
 20
35.786937
 30
0.0
 10
87.599641
 20
35.379418
 30
0.0
 10
87.105250
 20
35.368789
 30
0.0
  0
SPLINE
  5
132
100
AcDbEntity
  8
0
 62
7
100
AcDbSpline
 70
8
 71
3
 72
8
 73
4
 74
0
 40
0
 40
0
 40
0
 40
0
 40
1
 40
1
 40
1
 40
1
 10
87.105250
 20
35.368789
 30
0.0
 10
86.610948
 20
35.358240
 30
0.0
 10
86.200699
 20
35.748427
 30
0.0
 10
86.186443
 20
36.242638
 30
0.0
  0
LINE
  5
133
100
AcDbEntity
  8
0
 62
7
100
AcDbLine
 10
86.186443
 20
36.242638
 30
0.0
 11
86.186090
 21
36.268496
 31
0.0
  0
SPLINE
  5
134
100
AcDbEntity
  8
0
 62
7
100
AcDbSpline
 70
8
 71
3
 72
8
 73
4
 74
0
 40
0
 40
0
 40
0
 40
0
 40
1
 40
1
 40
1
 40
1
 10
86.186090
 20
36.268496
 30
0.0
 10
86.185963
 20
36.763099
 30
0.0
 10
86.584984
 20
37.165121
 30
0.0
 10
87.079572
 20
37.168698
 30
0.0
  0
LINE
  5
135
100
AcDbEntity
  8
0
 62
7
100
AcDbLine
 10
87.079572
 20
37.168698
 30
0.0
 11
87.079409
 21
37.168677
 31
0.0
  0
SPLINE
  5
136
100
AcDbEntity
  8
0
 62
7
100
AcDbSpline
 70
8
 71
3
 72
8
 73
4
 74
0
 40
0
 40
0
 40
0
 40
0
 40
1
 40
1
 40
1
 40
1
 10
78.935175
 20
43.406936
 30
0.0
 10
80.156045
 20
39.746576
 30
0.0
 10
83.027215
 20
39.079617
 30
0.0
 10
85.615193
 20
39.738836
 30
0.0
  0
SPLINE
  5
137
100
AcDbEntity
  8
0
 62
7
100
AcDbSpline
 70
8
 71
3
 72
8
 73
4
 74
0
 40
0
 40
0
 40
0
 40
0
 40
1
 40
1
 40
1
 40
1
 10
85.615193
 20
39.738836
 30
0.0
 10
88.203160
 20
40.398058
 30
0.0
 10
90.308297
 20
42.860845
 30
0.0
 10
89.379499
 20
46.171006
 30
0.0
  0
SPLINE
  5
138
100
AcDbEntity
  8
0
 62
7
100
AcDbSpline
 70
8
 71
3
 72
8
 73
4
 74
0
 40
0
 40
0
 40
0
 40
0
 40
1
 40
1
 40
1
 40
1
 10
89.379499
 20
46.171006
 30
0.0
 10
89.000724
 20
47.520919
 30
0.0
 10
87.826795
 20
49.637443
 30
0.0
 10
86.542844
 20
51.908044
 30
0.0
  0
SPLINE
  5
139
100
AcDbEntity
  8
0
 62
7
100
AcDbSpline
 70
8
 71
3
 72
8
 73
4
 74
0
 40
0
 40
0
 40
0
 40
0
 40
1
 40
1
 40
1
 40
1
 10
86.542844
 20
51.908044
 30
0.0
 10
84.084926
 20
56.254759
 30
0.0
 10
82.872145
 20
60.398918
 30
0.0
 10
81.796898
 20
64.649162
 30
0.0
  0
SPLINE
  5
13a
100
AcDbEntity
  8
0
 62
7
100
AcDbSpline
 70
8
 71
3
 72
8
 73
4
 74
0
 40
0
 40
0
 40
0
 40
0
 40
1
 40
1
 40
1
 40
1
 10
81.796898
 20
64.649162
 30
0.0
 10
80.527637
 20
69.666299
 30
0.0
 10
79.634036
 20
74.831256
 30
0.0
 10
79.768359
 20
80.651696
 30
0.0
  0
SPLINE
  5
13b
100
AcDbEntity
  8
0
 62
7
100
AcDbSpline
 70
8
 71
3
 72
8
 73
4
 74
0
 40
0
 40
0
 40
0
 40
0
 40
1
 40
1
 40
1
 40
1
 10
79.768359
 20
80.651696
 30
0.0
 10
79.833154
 20
83.459357
 30
0.0
 10
79.267919
 20
85.551810
 30
0.0
 10
79.117667
 20
85.888875
 30
0.0
  0
SPLINE
  5
13c
100
AcDbEntity
  8
0
 62
7
100
AcDbSpline
 70
8
 71
3
 72
8
 73
4
 74
0
 40
0
 40
0
 40
0
 40
0
 40
1
 40
1
 40
1
 40
1
 10
79.117667
 20
85.888875
 30
0.0
 10
77.221135
 20
90.143398
 30
0.0
 10
74.049906
 20
90.012902
 30
0.0
 10
72.301445
 20
89.554188
 30
0.0
  0
SPLINE
  5
13d
100
AcDbEntity
  8
0
 62
7
100
AcDbSpline
 70
8
 71
3
 72
8
 73
4
 74
0
 40
0
 40
0
 40
0
 40
0
 40
1
 40
1
 40
1
 40
1
 10
72.301445
 20
89.554188
 30
0.0
 10
70.552984
 20
89.095478
 30
0.0
 10
67.293652
 20
86.767931
 30
0.0
 10
68.460756
 20
82.896159
 30
0.0
  0
SPLINE
  5
13e
100
AcDbEntity
  8
0
 62
7
100
AcDbSpline
 70
8
 71
3
 72
8
 73
4
 74
0
 40
0
 40
0
 40
0
 40
0
 40
1
 40
1
 40
1
 40
1
 10
68.460756
 20
82.896159
 30
0.0
 10
69.290003
 20
80.145186
 30
0.0
 10
69.999186
 20
79.583879
 30
0.0
 10
71.069314
 20
78.103374
 30
0.0
  0
SPLINE
  5
13f
100
AcDbEntity
  8
0
 62
7
100
AcDbSpline
 70
8
 71
3
 72
8
 73
4
 74
0
 40
0
 40
0
 40
0
 40
0
 40
1
 40
1
 40
1
 40
1
 10
71.069314
 20
78.103374
 30
0.0
 10
73.598872
 20
74.603775
 30
0.0
 10
73.268216
 20
68.155992
 30
0.0
 10
74.433880
 20
62.453453
 30
0.0
  0
SPLINE
  5
140
100
AcDbEntity
  8
0
 62
7
100
AcDbSpline
 70
8
 71
3
 72
8
 73
4
 74
0
 40
0
 40
0
 40
0
 40
0
 40
1
 40
1
 40
1
 40
1
 10
74.433880
 20
62.453453
 30
0.0
 10
75.482076
 20
57.325585
 30
0.0
 10
78.134093
 20
52.997271
 30
0.0
 10
78.448905
 20
48.599711
 30
0.0
  0
SPLINE
  5
141
100
AcDbEntity
  8
0
 62
7
100
AcDbSpline
 70
8
 71
3
 72
8
 73
4
 74
0
 40
0
 40
0
 40
0
 40
0
 40
1
 40
1
 40
1
 40
1
 10
78.448905
 20
48.599711
 30
0.0
 10
78.617082
 20
46.250501
 30
0.0
 10
78.500531
 20
44.710056
 30
0.0
 10
78.935175
 20
43.406936
 30
0.0
  0
LINE
  5
142
100
AcDbEntity
  8
0
 62
7
100
AcDbLine
 10
78.935175
 20
43.406936
 30
0.0
 11
78.935175
 21
43.406936
 31
0.0
  0
SPLINE
  5
143
100
AcDbEntity
  8
0
 62
7
100
AcDbSpline
 70
8
 71
3
 72
8
 73
4
 74
0
 40
0
 40
0
 40
0
 40
0
 40
1
 40
1
 40
1
 40
1
 10
80.602429
 20
43.767542
 30
0.0
 10
80.018035
 20
45.772282
 30
0.0
 10
81.160768
 20
47.872960
 30
0.0
 10
83.161320
 20
48.471536
 30
0.0
  0
LINE
  5
144
100
AcDbEntity
  8
0
 62
7
100
AcDbLine
 10
83.161320
 20
48.471536
 30
0.0
 11
83.267179
 21
48.501734
 31
0.0
  0
SPLINE
  5
145
100
AcDbEntity
  8
0
 62
7
100
AcDbSpline
 70
8
 71
3
 72
8
 73
4
 74
0
 40
0
 40
0
 40
0
 40
0
 40
1
 40
1
 40
1
 40
1
 10
83.267179
 20
48.501734
 30
0.0
 10
85.283913
 20
49.042038
 30
0.0
 10
87.358817
 20
47.854075
 30
0.0
 10
87.913836
 20
45.841342
 30
0.0
  0
SPLINE
  5
146
100
AcDbEntity
  8
0
 62
7
100
AcDbSpline
 70
8
 71
3
 72
8
 73
4
 74
0
 40
0
 40
0
 40
0
 40
0
 40
1
 40
1
 40
1
 40
1
 10
87.913836
 20
45.841342
 30
0.0
 10
88.468805
 20
43.828650
 30
0.0
 10
87.296068
 20
41.745174
 30
0.0
 10
85.287501
 20
41.175451
 30
0.0
  0
SPLINE
  5
147
100
AcDbEntity
  8
0
 62
7
100
AcDbSpline
 70
8
 71
3
 72
8
 73
4
 74
0
 40
0
 40
0
 40
0
 40
0
 40
1
 40
1
 40
1
 40
1
 10
85.287501
 20
41.175451
 30
0.0
 10
83.278827
 20
40.605675
 30
0.0
 10
81.186701
 20
41.763268
 30
0.0
 10
80.602377
 20
43.767754
 30
0.0
  0
LINE
  5
148
100
AcDbEntity
  8
0
 62
7
100
AcDbLine
 10
80.602377
 20
43.767754
 30
0.0
 11
80.602429
 21
43.767542
 31
0.0
  0
SPLINE
  5
149
100
AcDbEntity
  8
0
 62
7
100
AcDbSpline
 70
8
 71
3
 72
8
 73
4
 74
0
 40
0
 40
0
 40
0
 40
0
 40
1
 40
1
 40
1
 40
1
 10
70.028407
 20
83.230328
 30
0.0
 10
69.444016
 20
85.235068
 30
0.0
 10
70.586745
 20
87.335739
 30
0.0
 10
72.587298
 20
87.934315
 30
0.0
  0
LINE
  5
14a
100
AcDbEntity
  8
0
 62
7
100
AcDbLine
 10
72.587298
 20
87.934315
 30
0.0
 11
72.693159
 21
87.964513
 31
0.0
  0
SPLINE
  5
14b
100
AcDbEntity
  8
0
 62
7
100
AcDbSpline
 70
8
 71
3
 72
8
 73
4
 74
0
 40
0
 40
0
 40
0
 40
0
 40
1
 40
1
 40
1
 40
1
 10
72.693159
 20
87.964513
 30
0.0
 10
74.709890
 20
88.504825
 30
0.0
 10
76.784794
 20
87.316858
 30
0.0
 10
77.339813
 20
85.304128
 30
0.0
  0
SPLINE
  5
14c
100
AcDbEntity
  8
0
 62
7
100
AcDbSpline
 70
8
 71
3
 72
8
 73
4
 74
0
 40
0
 40
0
 40
0
 40
0
 40
1
 40
1
 40
1
 40
1
 10
77.339813
 20
85.304128
 30
0.0
 10
77.894783
 20
83.291429
 30
0.0
 10
76.722049
 20
81.207960
 30
0.0
 10
74.713478
 20
80.638237
 30
0.0
  0
SPLINE
  5
14d
100
AcDbEntity
  8
0
 62
7
100
AcDbSpline
 70
8
 71
3
 72
8
 73
4
 74
0
 40
0
 40
0
 40
0
 40
0
 40
1
 40
1
 40
1
 40
1
 10
74.713478
 20
80.638237
 30
0.0
 10
72.704805
 20
80.068462
 30
0.0
 10
70.612678
 20
81.226050
 30
0.0
 10
70.028354
 20
83.230540
 30
0.0
  0
LINE
  5
14e
100
AcDbEntity
  8
0
 62
7
100
AcDbLine
 10
70.028354
 20
83.230540
 30
0.0
 11
70.028407
 21
83.230328
 31
0.0
  0
SPLINE
  5
14f
100
AcDbEntity
  8
0
 62
7
100
AcDbSpline
 70
8
 71
3
 72
8
 73
4
 74
0
 40
0
 40
0
 40
0
 40
0
 40
1
 40
1
 40
1
 40
1
 10
74.749250
 20
78.358355
 30
0.0
 10
74.672411
 20
78.622223
 30
0.0
 10
74.822959
 20
78.898638
 30
0.0
 10
75.086308
 20
78.977248
 30
0.0
  0
LINE
  5
150
100
AcDbEntity
  8
0
 62
7
100
AcDbLine
 10
75.086308
 20
78.977248
 30
0.0
 11
75.100278
 21
78.980987
 31
0.0
  0
SPLINE
  5
151
100
AcDbEntity
  8
0
 62
7
100
AcDbSpline
 70
8
 71
3
 72
8
 73
4
 74
0
 40
0
 40
0
 40
0
 40
0
 40
1
 40
1
 40
1
 40
1
 10
75.100278
 20
78.980987
 30
0.0
 10
75.365476
 20
79.051889
 30
0.0
 10
75.638240
 20
78.895724
 30
0.0
 10
75.711361
 20
78.631134
 30
0.0
  0
SPLINE
  5
152
100
AcDbEntity
  8
0
 62
7
100
AcDbSpline
 70
8
 71
3
 72
8
 73
4
 74
0
 40
0
 40
0
 40
0
 40
0
 40
1
 40
1
 40
1
 40
1
 10
75.711361
 20
78.631134
 30
0.0
 10
75.784509
 20
78.366310
 30
0.0
 10
75.630345
 20
78.092074
 30
0.0
 10
75.366068
 20
78.016993
 30
0.0
  0
SPLINE
  5
153
100
AcDbEntity
  8
0
 62
7
100
AcDbSpline
 70
8
 71
3
 72
8
 73
4
 74
0
 40
0
 40
0
 40
0
 40
0
 40
1
 40
1
 40
1
 40
1
 10
75.366068
 20
78.016993
 30
0.0
 10
75.101573
 20
77.941809
 30
0.0
 10
74.826007
 20
78.094311
 30
0.0
 10
74.749243
 20
78.358351
 30
0.0
  0
LINE
  5
154
100
AcDbEntity
  8
0
 62
7
100
AcDbLine
 10
74.749243
 20
78.358351
 30
0.0
 11
74.749250
 21
78.358355
 31
0.0
  0
SPLINE
  5
155
100
AcDbEntity
  8
0
 62
7
100
AcDbSpline
 70
8
 71
3
 72
8
 73
4
 74
0
 40
0
 40
0
 40
0
 40
0
 40
1
 40
1
 40
1
 40
1
 10
82.217840
 20
50.486567
 30
0.0
 10
82.141047
 20
50.750247
 30
0.0
 10
82.291320
 20
51.026501
 30
0.0
 10
82.554401
 20
51.105318
 30
0.0
  0
LINE
  5
156
100
AcDbEntity
  8
0
 62
7
100
AcDbLine
 10
82.554401
 20
51.105318
 30
0.0
 11
82.568794
 21
51.109552
 31
0.0
  0
SPLINE
  5
157
100
AcDbEntity
  8
0
 62
7
100
AcDbSpline
 70
8
 71
3
 72
8
 73
4
 74
0
 40
0
 40
0
 40
0
 40
0
 40
1
 40
1
 40
1
 40
1
 10
82.568794
 20
51.109552
 30
0.0
 10
82.834186
 20
51.180506
 30
0.0
 10
83.107120
 20
51.024059
 30
0.0
 10
83.180014
 20
50.759194
 30
0.0
  0
SPLINE
  5
158
100
AcDbEntity
  8
0
 62
7
100
AcDbSpline
 70
8
 71
3
 72
8
 73
4
 74
0
 40
0
 40
0
 40
0
 40
0
 40
1
 40
1
 40
1
 40
1
 10
83.180014
 20
50.759194
 30
0.0
 10
83.252771
 20
50.494479
 30
0.0
 10
83.098667
 20
50.220586
 30
0.0
 10
82.834591
 20
50.145553
 30
0.0
  0
SPLINE
  5
159
100
AcDbEntity
  8
0
 62
7
100
AcDbSpline
 70
8
 71
3
 72
8
 73
4
 74
0
 40
0
 40
0
 40
0
 40
0
 40
1
 40
1
 40
1
 40
1
 10
82.834591
 20
50.145553
 30
0.0
 10
82.570283
 20
50.070426
 30
0.0
 10
82.294876
 20
50.222643
 30
0.0
 10
82.217893
 20
50.486415
 30
0.0
  0
LINE
  5
15a
100
AcDbEntity
  8
0
 62
7
100
AcDbLine
 10
82.217893
 20
50.486415
 30
0.0
 11
82.217840
 21
50.486567
 31
0.0
  0
SPLINE
  5
15b
100
AcDbEntity
  8
0
 62
7
100
AcDbSpline
 70
8
 71
3
 72
8
 73
4
 74
0
 40
0
 40
0
 40
0
 40
0
 40
1
 40
1
 40
1
 40
1
 10
81.182489
 20
54.350536
 30
0.0
 10
81.105699
 20
54.614213
 30
0.0
 10
81.255972
 20
54.890473
 30
0.0
 10
81.519050
 20
54.969291
 30
0.0
  0
LINE
  5
15c
100
AcDbEntity
  8
0
 62
7
100
AcDbLine
 10
81.519050
 20
54.969291
 30
0.0
 11
81.533020
 21
54.973031
 31
0.0
  0
SPLINE
  5
15d
100
AcDbEntity
  8
0
 62
7
100
AcDbSpline
 70
8
 71
3
 72
8
 73
4
 74
0
 40
0
 40
0
 40
0
 40
0
 40
1
 40
1
 40
1
 40
1
 10
81.533020
 20
54.973031
 30
0.0
 10
81.798337
 20
55.044264
 30
0.0
 10
82.071433
 20
54.888103
 30
0.0
 10
82.144599
 20
54.623307
 30
0.0
  0
SPLINE
  5
15e
100
AcDbEntity
  8
0
 62
7
100
AcDbSpline
 70
8
 71
3
 72
8
 73
4
 74
0
 40
0
 40
0
 40
0
 40
0
 40
1
 40
1
 40
1
 40
1
 10
82.144599
 20
54.623307
 30
0.0
 10
82.217801
 20
54.358300
 30
0.0
 10
82.063358
 20
54.083902
 30
0.0
 10
81.798810
 20
54.009036
 30
0.0
  0
SPLINE
  5
15f
100
AcDbEntity
  8
0
 62
7
100
AcDbSpline
 70
8
 71
3
 72
8
 73
4
 74
0
 40
0
 40
0
 40
0
 40
0
 40
1
 40
1
 40
1
 40
1
 10
81.798810
 20
54.009036
 30
0.0
 10
81.534434
 20
53.934176
 30
0.0
 10
81.259193
 20
54.086686
 30
0.0
 10
81.182478
 20
54.350532
 30
0.0
  0
LINE
  5
160
100
AcDbEntity
  8
0
 62
7
100
AcDbLine
 10
81.182478
 20
54.350532
 30
0.0
 11
81.182489
 21
54.350536
 31
0.0
  0
SPLINE
  5
161
100
AcDbEntity
  8
0
 62
7
100
AcDbSpline
 70
8
 71
3
 72
8
 73
4
 74
0
 40
0
 40
0
 40
0
 40
0
 40
1
 40
1
 40
1
 40
1
 10
80.147275
 20
58.214008
 30
0.0
 10
80.070489
 20
58.477685
 30
0.0
 10
80.220759
 20
58.753945
 30
0.0
 10
80.483840
 20
58.832763
 30
0.0
  0
LINE
  5
162
100
AcDbEntity
  8
0
 62
7
100
AcDbLine
 10
80.483840
 20
58.832763
 30
0.0
 11
80.497704
 21
58.836855
 31
0.0
  0
SPLINE
  5
163
100
AcDbEntity
  8
0
 62
7
100
AcDbSpline
 70
8
 71
3
 72
8
 73
4
 74
0
 40
0
 40
0
 40
0
 40
0
 40
1
 40
1
 40
1
 40
1
 10
80.497704
 20
58.836855
 30
0.0
 10
80.763219
 20
58.908134
 30
0.0
 10
81.036474
 20
58.751691
 30
0.0
 10
81.109425
 20
58.486635
 30
0.0
  0
SPLINE
  5
164
100
AcDbEntity
  8
0
 62
7
100
AcDbSpline
 70
8
 71
3
 72
8
 73
4
 74
0
 40
0
 40
0
 40
0
 40
0
 40
1
 40
1
 40
1
 40
1
 10
81.109425
 20
58.486635
 30
0.0
 10
81.182231
 20
58.221726
 30
0.0
 10
81.027848
 20
57.947667
 30
0.0
 10
80.763497
 20
57.872857
 30
0.0
  0
SPLINE
  5
165
100
AcDbEntity
  8
0
 62
7
100
AcDbSpline
 70
8
 71
3
 72
8
 73
4
 74
0
 40
0
 40
0
 40
0
 40
0
 40
1
 40
1
 40
1
 40
1
 10
80.763497
 20
57.872857
 30
0.0
 10
80.499312
 20
57.798054
 30
0.0
 10
80.224230
 20
57.950281
 30
0.0
 10
80.147300
 20
58.213859
 30
0.0
  0
LINE
  5
166
100
AcDbEntity
  8
0
 62
7
100
AcDbLine
 10
80.147300
 20
58.213859
 30
0.0
 11
80.147275
 21
58.214008
 31
0.0
  0
SPLINE
  5
167
100
AcDbEntity
  8
0
 62
7
100
AcDbSpline
 70
8
 71
3
 72
8
 73
4
 74
0
 40
0
 40
0
 40
0
 40
0
 40
1
 40
1
 40
1
 40
1
 10
75.784936
 20
74.494481
 30
0.0
 10
75.708147
 20
74.758158
 30
0.0
 10
75.858416
 20
75.034415
 30
0.0
 10
76.121497
 20
75.113233
 30
0.0
  0
LINE
  5
168
100
AcDbEntity
  8
0
 62
7
100
AcDbLine
 10
76.121497
 20
75.113233
 30
0.0
 11
76.135361
 21
75.117325
 31
0.0
  0
SPLINE
  5
169
100
AcDbEntity
  8
0
 62
7
100
AcDbSpline
 70
8
 71
3
 72
8
 73
4
 74
0
 40
0
 40
0
 40
0
 40
0
 40
1
 40
1
 40
1
 40
1
 10
76.135361
 20
75.117325
 30
0.0
 10
76.400876
 20
75.188607
 30
0.0
 10
76.674128
 20
75.032168
 30
0.0
 10
76.747079
 20
74.767108
 30
0.0
  0
SPLINE
  5
16a
100
AcDbEntity
  8
0
 62
7
100
AcDbSpline
 70
8
 71
3
 72
8
 73
4
 74
0
 40
0
 40
0
 40
0
 40
0
 40
1
 40
1
 40
1
 40
1
 10
76.747079
 20
74.767108
 30
0.0
 10
76.819888
 20
74.502200
 30
0.0
 10
76.665506
 20
74.228144
 30
0.0
 10
76.401151
 20
74.153334
 30
0.0
  0
SPLINE
  5
16b
100
AcDbEntity
  8
0
 62
7
100
AcDbSpline
 70
8
 71
3
 72
8
 73
4
 74
0
 40
0
 40
0
 40
0
 40
0
 40
1
 40
1
 40
1
 40
1
 10
76.401151
 20
74.153334
 30
0.0
 10
76.136966
 20
74.078527
 30
0.0
 10
75.861887
 20
74.230751
 30
0.0
 10
75.784957
 20
74.494326
 30
0.0
  0
LINE
  5
16c
100
AcDbEntity
  8
0
 62
7
100
AcDbLine
 10
75.784957
 20
74.494326
 30
0.0
 11
75.784936
 21
74.494481
 31
0.0
  0
SPLINE
  5
16d
100
AcDbEntity
  8
0
 62
7
100
AcDbSpline
 70
8
 71
3
 72
8
 73
4
 74
0
 40
0
 40
0
 40
0
 40
0
 40
1
 40
1
 40
1
 40
1
 10
76.834120
 20
70.634756
 30
0.0
 10
76.757334
 20
70.898437
 30
0.0
 10
76.907603
 20
71.174690
 30
0.0
 10
77.170688
 20
71.253511
 30
0.0
  0
LINE
  5
16e
100
AcDbEntity
  8
0
 62
7
100
AcDbLine
 10
77.170688
 20
71.253511
 30
0.0
 11
77.184552
 21
71.257604
 31
0.0
  0
SPLINE
  5
16f
100
AcDbEntity
  8
0
 62
7
100
AcDbSpline
 70
8
 71
3
 72
8
 73
4
 74
0
 40
0
 40
0
 40
0
 40
0
 40
1
 40
1
 40
1
 40
1
 10
77.184552
 20
71.257604
 30
0.0
 10
77.450063
 20
71.328882
 30
0.0
 10
77.723315
 20
71.172443
 30
0.0
 10
77.796269
 20
70.907390
 30
0.0
  0
SPLINE
  5
170
100
AcDbEntity
  8
0
 62
7
100
AcDbSpline
 70
8
 71
3
 72
8
 73
4
 74
0
 40
0
 40
0
 40
0
 40
0
 40
1
 40
1
 40
1
 40
1
 10
77.796269
 20
70.907390
 30
0.0
 10
77.869076
 20
70.642478
 30
0.0
 10
77.714686
 20
70.368426
 30
0.0
 10
77.450342
 20
70.293612
 30
0.0
  0
SPLINE
  5
171
100
AcDbEntity
  8
0
 62
7
100
AcDbSpline
 70
8
 71
3
 72
8
 73
4
 74
0
 40
0
 40
0
 40
0
 40
0
 40
1
 40
1
 40
1
 40
1
 10
77.450342
 20
70.293612
 30
0.0
 10
77.186157
 20
70.218809
 30
0.0
 10
76.911078
 20
70.371037
 30
0.0
 10
76.834148
 20
70.634608
 30
0.0
  0
LINE
  5
172
100
AcDbEntity
  8
0
 62
7
100
AcDbLine
 10
76.834148
 20
70.634608
 30
0.0
 11
76.834120
 21
70.634756
 31
0.0
  0
LINE
  5
173
100
AcDbEntity
  8
0
 62
7
100
AcDbLine
 10
86.142420
 20
96.914067
 30
0.0
 11
83.192213
 21
96.914067
 31
0.0
  0
SPLINE
  5
174
100
AcDbEntity
  8
0
 62
7
100
AcDbSpline
 70
8
 71
3
 72
8
 73
4
 74
0
 40
0
 40
0
 40
0
 40
0
 40
1
 40
1
 40
1
 40
1
 10
83.192213
 20
96.914067
 30
0.0
 10
82.084214
 20
96.914067
 30
0.0
 10
81.192335
 20
96.021672
 30
0.0
 10
81.192335
 20
94.913669
 30
0.0
  0
LINE
  5
175
100
AcDbEntity
  8
0
 62
7
100
AcDbLine
 10
81.192335
 20
94.913669
 30
0.0
 11
81.192165
 21
73.713921
 31
0.0
  0
SPLINE
  5
176
100
AcDbEntity
  8
0
 62
7
100
AcDbSpline
 70
8
 71
3
 72
8
 73
4
 74
0
 40
0
 40
0
 40
0
 40
0
 40
1
 40
1
 40
1
 40
1
 10
81.192165
 20
73.713921
 30
0.0
 10
81.192165
 20
72.605918
 30
0.0
 10
82.084045
 20
71.713524
 30
0.0
 10
83.192044
 20
71.713524
 30
0.0
  0
LINE
  5
177
100
AcDbEntity
  8
0
 62
7
100
AcDbLine
 10
83.192044
 20
71.713524
 30
0.0
 11
86.142251
 21
71.713524
 31
0.0
  0
SPLINE
  5
178
100
AcDbEntity
  8
0
 62
7
100
AcDbSpline
 70
8
 71
3
 72
8
 73
4
 74
0
 40
0
 40
0
 40
0
 40
0
 40
1
 40
1
 40
1
 40
1
 10
86.142251
 20
71.713524
 30
0.0
 10
86.142176
 20
80.039086
 30
0.0
 10
86.142430
 20
89.343463
 30
0.0
 10
86.142420
 20
96.914067
 30
0.0
  0
LINE
  5
179
100
AcDbEntity
  8
0
 62
7
100
AcDbLine
 10
86.142420
 20
96.914067
 30
0.0
 11
86.142420
 21
96.914067
 31
0.0
  0
SPLINE
  5
17a
100
AcDbEntity
  8
0
 62
7
100
AcDbSpline
 70
8
 71
3
 72
8
 73
4
 74
0
 40
0
 40
0
 40
0
 40
0
 40
1
 40
1
 40
1
 40
1
 10
82.942446
 20
77.594305
 30
0.0
 10
82.931933
 20
78.088413
 30
0.0
 10
83.321771
 20
78.498581
 30
0.0
 10
83.815777
 20
78.513112
 30
0.0
  0
LINE
  5
17b
100
AcDbEntity
  8
0
 62
7
100
AcDbLine
 10
83.815777
 20
78.513112
 30
0.0
 11
83.842129
 21
78.513818
 31
0.0
  0
SPLINE
  5
17c
100
AcDbEntity
  8
0
 62
7
100
AcDbSpline
 70
8
 71
3
 72
8
 73
4
 74
0
 40
0
 40
0
 40
0
 40
0
 40
1
 40
1
 40
1
 40
1
 10
83.842129
 20
78.513818
 30
0.0
 10
84.336531
 20
78.513659
 30
0.0
 10
84.738236
 20
78.114720
 30
0.0
 10
84.741816
 20
77.620333
 30
0.0
  0
SPLINE
  5
17d
100
AcDbEntity
  8
0
 62
7
100
AcDbSpline
 70
8
 71
3
 72
8
 73
4
 74
0
 40
0
 40
0
 40
0
 40
0
 40
1
 40
1
 40
1
 40
1
 10
84.741816
 20
77.620333
 30
0.0
 10
84.745379
 20
77.125911
 30
0.0
 10
84.349435
 20
76.721186
 30
0.0
 10
83.855048
 20
76.713929
 30
0.0
  0
SPLINE
  5
17e
100
AcDbEntity
  8
0
 62
7
100
AcDbSpline
 70
8
 71
3
 72
8
 73
4
 74
0
 40
0
 40
0
 40
0
 40
0
 40
1
 40
1
 40
1
 40
1
 10
83.855048
 20
76.713929
 30
0.0
 10
83.360591
 20
76.706909
 30
0.0
 10
82.953072
 20
77.100101
 30
0.0
 10
82.942443
 20
77.594495
 30
0.0
  0
LINE
  5
17f
100
AcDbEntity
  8
0
 62
7
100
AcDbLine
 10
82.942443
 20
77.594495
 30
0.0
 11
82.942446
 21
77.594305
 31
0.0
  0
SPLINE
  5
180
100
AcDbEntity
  8
0
 62
7
100
AcDbSpline
 70
8
 71
3
 72
8
 73
4
 74
0
 40
0
 40
0
 40
0
 40
0
 40
1
 40
1
 40
1
 40
1
 10
82.942616
 20
90.994014
 30
0.0
 10
82.931785
 20
91.488320
 30
0.0
 10
83.321736
 20
91.898805
 30
0.0
 10
83.815946
 20
91.913336
 30
0.0
  0
LINE
  5
181
100
AcDbEntity
  8
0
 62
7
100
AcDbLine
 10
83.815946
 20
91.913336
 30
0.0
 11
83.842299
 21
91.913689
 31
0.0
  0
SPLINE
  5
182
100
AcDbEntity
  8
0
 62
7
100
AcDbSpline
 70
8
 71
3
 72
8
 73
4
 74
0
 40
0
 40
0
 40
0
 40
0
 40
1
 40
1
 40
1
 40
1
 10
83.842299
 20
91.913689
 30
0.0
 10
84.336700
 20
91.913530
 30
0.0
 10
84.738405
 20
91.514595
 30
0.0
 10
84.741986
 20
91.020204
 30
0.0
  0
SPLINE
  5
183
100
AcDbEntity
  8
0
 62
7
100
AcDbSpline
 70
8
 71
3
 72
8
 73
4
 74
0
 40
0
 40
0
 40
0
 40
0
 40
1
 40
1
 40
1
 40
1
 10
84.741986
 20
91.020204
 30
0.0
 10
84.745549
 20
90.525779
 30
0.0
 10
84.349604
 20
90.121057
 30
0.0
 10
83.855218
 20
90.113801
 30
0.0
  0
SPLINE
  5
184
100
AcDbEntity
  8
0
 62
7
100
AcDbSpline
 70
8
 71
3
 72
8
 73
4
 74
0
 40
0
 40
0
 40
0
 40
0
 40
1
 40
1
 40
1
 40
1
 10
83.855218
 20
90.113801
 30
0.0
 10
83.360958
 20
90.106745
 30
0.0
 10
82.953520
 20
90.499659
 30
0.0
 10
82.942612
 20
90.993848
 30
0.0
  0
LINE
  5
185
100
AcDbEntity
  8
0
 62
7
100
AcDbLine
 10
82.942612
 20
90.993848
 30
0.0
 11
82.942616
 21
90.994014
 31
0.0
  0
LINE
  5
186
100
AcDbEntity
  8
0
 62
7
100
AcDbLine
 10
84.996303
 20
61.368755
 30
0.0
 11
65.969041
 21
61.368755
 31
0.0
  0
LINE
  5
187
100
AcDbEntity
  8
0
 62
7
100
AcDbLine
 10
84.996303
 20
38.368606
 30
0.0
 11
66.630500
 21
38.368606
 31
0.0
  0
LINE
  5
188
100
AcDbEntity
  8
0
 62
7
100
AcDbLine
 10
68.681020
 20
61.368755
 30
0.0
 11
68.681020
 21
38.449319
 31
0.0
  0
SPLINE
  5
189
100
AcDbEntity
  8
0
 62
7
100
AcDbSpline
 70
8
 71
3
 72
8
 73
4
 74
0
 40
0
 40
0
 40
0
 40
0
 40
1
 40
1
 40
1
 40
1
 10
53.006011
 20
43.406936
 30
0.0
 10
54.226881
 20
39.746576
 30
0.0
 10
57.098051
 20
39.079617
 30
0.0
 10
59.686029
 20
39.738836
 30
0.0
  0
SPLINE
  5
18a
100
AcDbEntity
  8
0
 62
7
100
AcDbSpline
 70
8
 71
3
 72
8
 73
4
 74
0
 40
0
 40
0
 40
0
 40
0
 40
1
 40
1
 40
1
 40
1
 10
59.686029
 20
39.738836
 30
0.0
 10
62.273996
 20
40.398058
 30
0.0
 10
64.379133
 20
42.860845
 30
0.0
 10
63.450335
 20
46.171006
 30
0.0
  0
SPLINE
  5
18b
100
AcDbEntity
  8
0
 62
7
100
AcDbSpline
 70
8
 71
3
 72
8
 73
4
 74
0
 40
0
 40
0
 40
0
 40
0
 40
1
 40
1
 40
1
 40
1
 10
63.450335
 20
46.171006
 30
0.0
 10
63.071560
 20
47.520919
 30
0.0
 10
61.897631
 20
49.637443
 30
0.0
 10
60.613680
 20
51.908044
 30
0.0
  0
SPLINE
  5
18c
100
AcDbEntity
  8
0
 62
7
100
AcDbSpline
 70
8
 71
3
 72
8
 73
4
 74
0
 40
0
 40
0
 40
0
 40
0
 40
1
 40
1
 40
1
 40
1
 10
60.613680
 20
51.908044
 30
0.0
 10
58.155762
 20
56.254759
 30
0.0
 10
56.942981
 20
60.398918
 30
0.0
 10
55.867734
 20
64.649162
 30
0.0
  0
SPLINE
  5
18d
100
AcDbEntity
  8
0
 62
7
100
AcDbSpline
 70
8
 71
3
 72
8
 73
4
 74
0
 40
0
 40
0
 40
0
 40
0
 40
1
 40
1
 40
1
 40
1
 10
55.867734
 20
64.649162
 30
0.0
 10
54.598473
 20
69.666299
 30
0.0
 10
53.704872
 20
74.831256
 30
0.0
 10
53.839195
 20
80.651696
 30
0.0
  0
SPLINE
  5
18e
100
AcDbEntity
  8
0
 62
7
100
AcDbSpline
 70
8
 71
3
 72
8
 73
4
 74
0
 40
0
 40
0
 40
0
 40
0
 40
1
 40
1
 40
1
 40
1
 10
53.839195
 20
80.651696
 30
0.0
 10
53.903990
 20
83.459357
 30
0.0
 10
53.338755
 20
85.551810
 30
0.0
 10
53.188503
 20
85.888875
 30
0.0
  0
SPLINE
  5
18f
100
AcDbEntity
  8
0
 62
7
100
AcDbSpline
 70
8
 71
3
 72
8
 73
4
 74
0
 40
0
 40
0
 40
0
 40
0
 40
1
 40
1
 40
1
 40
1
 10
53.188503
 20
85.888875
 30
0.0
 10
51.291971
 20
90.143398
 30
0.0
 10
48.120742
 20
90.012902
 30
0.0
 10
46.372281
 20
89.554188
 30
0.0
  0
SPLINE
  5
190
100
AcDbEntity
  8
0
 62
7
100
AcDbSpline
 70
8
 71
3
 72
8
 73
4
 74
0
 40
0
 40
0
 40
0
 40
0
 40
1
 40
1
 40
1
 40
1
 10
46.372281
 20
89.554188
 30
0.0
 10
44.623820
 20
89.095478
 30
0.0
 10
41.364488
 20
86.767931
 30
0.0
 10
42.531592
 20
82.896159
 30
0.0
  0
SPLINE
  5
191
100
AcDbEntity
  8
0
 62
7
100
AcDbSpline
 70
8
 71
3
 72
8
 73
4
 74
0
 40
0
 40
0
 40
0
 40
0
 40
1
 40
1
 40
1
 40
1
 10
42.531592
 20
82.896159
 30
0.0
 10
43.360839
 20
80.145186
 30
0.0
 10
44.070022
 20
79.583879
 30
0.0
 10
45.140150
 20
78.103374
 30
0.0
  0
SPLINE
  5
192
100
AcDbEntity
  8
0
 62
7
100
AcDbSpline
 70
8
 71
3
 72
8
 73
4
 74
0
 40
0
 40
0
 40
0
 40
0
 40
1
 40
1
 40
1
 40
1
 10
45.140150
 20
78.103374
 30
0.0
 10
47.669708
 20
74.603775
 30
0.0
 10
47.339052
 20
68.155992
 30
0.0
 10
48.504716
 20
62.453453
 30
0.0
  0
SPLINE
  5
193
100
AcDbEntity
  8
0
 62
7
100
AcDbSpline
 70
8
 71
3
 72
8
 73
4
 74
0
 40
0
 40
0
 40
0
 40
0
 40
1
 40
1
 40
1
 40
1
 10
48.504716
 20
62.453453
 30
0.0
 10
49.552912
 20
57.325585
 30
0.0
 10
52.204929
 20
52.997271
 30
0.0
 10
52.519741
 20
48.599711
 30
0.0
  0
SPLINE
  5
194
100
AcDbEntity
  8
0
 62
7
100
AcDbSpline
 70
8
 71
3
 72
8
 73
4
 74
0
 40
0
 40
0
 40
0
 40
0
 40
1
 40
1
 40
1
 40
1
 10
52.519741
 20
48.599711
 30
0.0
 10
52.687918
 20
46.250501
 30
0.0
 10
52.571367
 20
44.710056
 30
0.0
 10
53.006011
 20
43.406936
 30
0.0
  0
LINE
  5
195
100
AcDbEntity
  8
0
 62
7
100
AcDbLine
 10
53.006011
 20
43.406936
 30
0.0
 11
53.006011
 21
43.406936
 31
0.0
  0
SPLINE
  5
196
100
AcDbEntity
  8
0
 62
7
100
AcDbSpline
 70
8
 71
3
 72
8
 73
4
 74
0
 40
0
 40
0
 40
0
 40
0
 40
1
 40
1
 40
1
 40
1
 10
54.673265
 20
43.767542
 30
0.0
 10
54.088871
 20
45.772282
 30
0.0
 10
55.231604
 20
47.872960
 30
0.0
 10
57.232156
 20
48.471536
 30
0.0
  0
LINE
  5
197
100
AcDbEntity
  8
0
 62
7
100
AcDbLine
 10
57.232156
 20
48.471536
 30
0.0
 11
57.338015
 21
48.501734
 31
0.0
  0
SPLINE
  5
198
100
AcDbEntity
  8
0
 62
7
100
AcDbSpline
 70
8
 71
3
 72
8
 73
4
 74
0
 40
0
 40
0
 40
0
 40
0
 40
1
 40
1
 40
1
 40
1
 10
57.338015
 20
48.501734
 30
0.0
 10
59.354749
 20
49.042038
 30
0.0
 10
61.429653
 20
47.854075
 30
0.0
 10
61.984672
 20
45.841342
 30
0.0
  0
SPLINE
  5
199
100
AcDbEntity
  8
0
 62
7
100
AcDbSpline
 70
8
 71
3
 72
8
 73
4
 74
0
 40
0
 40
0
 40
0
 40
0
 40
1
 40
1
 40
1
 40
1
 10
61.984672
 20
45.841342
 30
0.0
 10
62.539641
 20
43.828650
 30
0.0
 10
61.366904
 20
41.745174
 30
0.0
 10
59.358337
 20
41.175451
 30
0.0
  0
SPLINE
  5
19a
100
AcDbEntity
  8
0
 62
7
100
AcDbSpline
 70
8
 71
3
 72
8
 73
4
 74
0
 40
0
 40
0
 40
0
 40
0
 40
1
 40
1
 40
1
 40
1
 10
59.358337
 20
41.175451
 30
0.0
 10
57.349663
 20
40.605675
 30
0.0
 10
55.257537
 20
41.763268
 30
0.0
 10
54.673213
 20
43.767754
 30
0.0
  0
LINE
  5
19b
100
AcDbEntity
  8
0
 62
7
100
AcDbLine
 10
54.673213
 20
43.767754
 30
0.0
 11
54.673265
 21
43.767542
 31
0.0
  0
SPLINE
  5
19c
100
AcDbEntity
  8
0
 62
7
100
AcDbSpline
 70
8
 71
3
 72
8
 73
4
 74
0
 40
0
 40
0
 40
0
 40
0
 40
1
 40
1
 40
1
 40
1
 10
44.099243
 20
83.230328
 30
0.0
 10
43.514851
 20
85.235068
 30
0.0
 10
44.657581
 20
87.335739
 30
0.0
 10
46.658134
 20
87.934315
 30
0.0
  0
LINE
  5
19d
100
AcDbEntity
  8
0
 62
7
100
AcDbLine
 10
46.658134
 20
87.934315
 30
0.0
 11
46.763995
 21
87.964513
 31
0.0
  0
SPLINE
  5
19e
100
AcDbEntity
  8
0
 62
7
100
AcDbSpline
 70
8
 71
3
 72
8
 73
4
 74
0
 40
0
 40
0
 40
0
 40
0
 40
1
 40
1
 40
1
 40
1
 10
46.763995
 20
87.964513
 30
0.0
 10
48.780726
 20
88.504825
 30
0.0
 10
50.855630
 20
87.316858
 30
0.0
 10
51.410649
 20
85.304128
 30
0.0
  0
SPLINE
  5
19f
100
AcDbEntity
  8
0
 62
7
100
AcDbSpline
 70
8
 71
3
 72
8
 73
4
 74
0
 40
0
 40
0
 40
0
 40
0
 40
1
 40
1
 40
1
 40
1
 10
51.410649
 20
85.304128
 30
0.0
 10
51.965619
 20
83.291429
 30
0.0
 10
50.792885
 20
81.207960
 30
0.0
 10
48.784314
 20
80.638237
 30
0.0
  0
SPLINE
  5
1a0
100
AcDbEntity
  8
0
 62
7
100
AcDbSpline
 70
8
 71
3
 72
8
 73
4
 74
0
 40
0
 40
0
 40
0
 40
0
 40
1
 40
1
 40
1
 40
1
 10
48.784314
 20
80.638237
 30
0.0
 10
46.775641
 20
80.068462
 30
0.0
 10
44.683514
 20
81.226050
 30
0.0
 10
44.099190
 20
83.230540
 30
0.0
  0
LINE
  5
1a1
100
AcDbEntity
  8
0
 62
7
100
AcDbLine
 10
44.099190
 20
83.230540
 30
0.0
 11
44.099243
 21
83.230328
 31
0.0
  0
SPLINE
  5
1a2
100
AcDbEntity
  8
0
 62
7
100
AcDbSpline
 70
8
 71
3
 72
8
 73
4
 74
0
 40
0
 40
0
 40
0
 40
0
 40
1
 40
1
 40
1
 40
1
 10
48.820086
 20
78.358355
 30
0.0
 10
48.743247
 20
78.622223
 30
0.0
 10
48.893795
 20
78.898638
 30
0.0
 10
49.157144
 20
78.977248
 30
0.0
  0
LINE
  5
1a3
100
AcDbEntity
  8
0
 62
7
100
AcDbLine
 10
49.157144
 20
78.977248
 30
0.0
 11
49.171114
 21
78.980987
 31
0.0
  0
SPLINE
  5
1a4
100
AcDbEntity
  8
0
 62
7
100
AcDbSpline
 70
8
 71
3
 72
8
 73
4
 74
0
 40
0
 40
0
 40
0
 40
0
 40
1
 40
1
 40
1
 40
1
 10
49.171114
 20
78.980987
 30
0.0
 10
49.436312
 20
79.051889
 30
0.0
 10
49.709076
 20
78.895724
 30
0.0
 10
49.782196
 20
78.631134
 30
0.0
  0
SPLINE
  5
1a5
100
AcDbEntity
  8
0
 62
7
100
AcDbSpline
 70
8
 71
3
 72
8
 73
4
 74
0
 40
0
 40
0
 40
0
 40
0
 40
1
 40
1
 40
1
 40
1
 10
49.782196
 20
78.631134
 30
0.0
 10
49.855345
 20
78.366310
 30
0.0
 10
49.701181
 20
78.092074
 30
0.0
 10
49.436904
 20
78.016993
 30
0.0
  0
SPLINE
  5
1a6
100
AcDbEntity
  8
0
 62
7
100
AcDbSpline
 70
8
 71
3
 72
8
 73
4
 74
0
 40
0
 40
0
 40
0
 40
0
 40
1
 40
1
 40
1
 40
1
 10
49.436904
 20
78.016993
 30
0.0
 10
49.172409
 20
77.941809
 30
0.0
 10
48.896843
 20
78.094311
 30
0.0
 10
48.820079
 20
78.358351
 30
0.0
  0
LINE
  5
1a7
100
AcDbEntity
  8
0
 62
7
100
AcDbLine
 10
48.820079
 20
78.358351
 30
0.0
 11
48.820086
 21
78.358355
 31
0.0
  0
SPLINE
  5
1a8
100
AcDbEntity
  8
0
 62
7
100
AcDbSpline
 70
8
 71
3
 72
8
 73
4
 74
0
 40
0
 40
0
 40
0
 40
0
 40
1
 40
1
 40
1
 40
1
 10
56.288676
 20
50.486567
 30
0.0
 10
56.211883
 20
50.750247
 30
0.0
 10
56.362156
 20
51.026501
 30
0.0
 10
56.625237
 20
51.105318
 30
0.0
  0
LINE
  5
1a9
100
AcDbEntity
  8
0
 62
7
100
AcDbLine
 10
56.625237
 20
51.105318
 30
0.0
 11
56.639630
 21
51.109552
 31
0.0
  0
SPLINE
  5
1aa
100
AcDbEntity
  8
0
 62
7
100
AcDbSpline
 70
8
 71
3
 72
8
 73
4
 74
0
 40
0
 40
0
 40
0
 40
0
 40
1
 40
1
 40
1
 40
1
 10
56.639630
 20
51.109552
 30
0.0
 10
56.905022
 20
51.180506
 30
0.0
 10
57.177956
 20
51.024059
 30
0.0
 10
57.250850
 20
50.759194
 30
0.0
  0
SPLINE
  5
1ab
100
AcDbEntity
  8
0
 62
7
100
AcDbSpline
 70
8
 71
3
 72
8
 73
4
 74
0
 40
0
 40
0
 40
0
 40
0
 40
1
 40
1
 40
1
 40
1
 10
57.250850
 20
50.759194
 30
0.0
 10
57.323607
 20
50.494479
 30
0.0
 10
57.169503
 20
50.220586
 30
0.0
 10
56.905427
 20
50.145553
 30
0.0
  0
SPLINE
  5
1ac
100
AcDbEntity
  8
0
 62
7
100
AcDbSpline
 70
8
 71
3
 72
8
 73
4
 74
0
 40
0
 40
0
 40
0
 40
0
 40
1
 40
1
 40
1
 40
1
 10
56.905427
 20
50.145553
 30
0.0
 10
56.641119
 20
50.070426
 30
0.0
 10
56.365712
 20
50.222643
 30
0.0
 10
56.288729
 20
50.486415
 30
0.0
  0
LINE
  5
1ad
100
AcDbEntity
  8
0
 62
7
100
AcDbLine
 10
56.288729
 20
50.486415
 30
0.0
 11
56.288676
 21
50.486567
 31
0.0
  0
SPLINE
  5
1ae
100
AcDbEntity
  8
0
 62
7
100
AcDbSpline
 70
8
 71
3
 72
8
 73
4
 74
0
 40
0
 40
0
 40
0
 40
0
 40
1
 40
1
 40
1
 40
1
 10
55.253325
 20
54.350536
 30
0.0
 10
55.176535
 20
54.614213
 30
0.0
 10
55.326808
 20
54.890473
 30
0.0
 10
55.589886
 20
54.969291
 30
0.0
  0
LINE
  5
1af
100
AcDbEntity
  8
0
 62
7
100
AcDbLine
 10
55.589886
 20
54.969291
 30
0.0
 11
55.603856
 21
54.973031
 31
0.0
  0
SPLINE
  5
1b0
100
AcDbEntity
  8
0
 62
7
100
AcDbSpline
 70
8
 71
3
 72
8
 73
4
 74
0
 40
0
 40
0
 40
0
 40
0
 40
1
 40
1
 40
1
 40
1
 10
55.603856
 20
54.973031
 30
0.0
 10
55.869173
 20
55.044264
 30
0.0
 10
56.142269
 20
54.888103
 30
0.0
 10
56.215435
 20
54.623307
 30
0.0
  0
SPLINE
  5
1b1
100
AcDbEntity
  8
0
 62
7
100
AcDbSpline
 70
8
 71
3
 72
8
 73
4
 74
0
 40
0
 40
0
 40
0
 40
0
 40
1
 40
1
 40
1
 40
1
 10
56.215435
 20
54.623307
 30
0.0
 10
56.288637
 20
54.358300
 30
0.0
 10
56.134194
 20
54.083902
 30
0.0
 10
55.869646
 20
54.009036
 30
0.0
  0
SPLINE
  5
1b2
100
AcDbEntity
  8
0
 62
7
100
AcDbSpline
 70
8
 71
3
 72
8
 73
4
 74
0
 40
0
 40
0
 40
0
 40
0
 40
1
 40
1
 40
1
 40
1
 10
55.869646
 20
54.009036
 30
0.0
 10
55.605270
 20
53.934176
 30
0.0
 10
55.330029
 20
54.086686
 30
0.0
 10
55.253314
 20
54.350532
 30
0.0
  0
LINE
  5
1b3
100
AcDbEntity
  8
0
 62
7
100
AcDbLine
 10
55.253314
 20
54.350532
 30
0.0
 11
55.253325
 21
54.350536
 31
0.0
  0
SPLINE
  5
1b4
100
AcDbEntity
  8
0
 62
7
100
AcDbSpline
 70
8
 71
3
 72
8
 73
4
 74
0
 40
0
 40
0
 40
0
 40
0
 40
1
 40
1
 40
1
 40
1
 10
54.218111
 20
58.214008
 30
0.0
 10
54.141325
 20
58.477685
 30
0.0
 10
54.291595
 20
58.753945
 30
0.0
 10
54.554676
 20
58.832763
 30
0.0
  0
LINE
  5
1b5
100
AcDbEntity
  8
0
 62
7
100
AcDbLine
 10
54.554676
 20
58.832763
 30
0.0
 11
54.568540
 21
58.836855
 31
0.0
  0
SPLINE
  5
1b6
100
AcDbEntity
  8
0
 62
7
100
AcDbSpline
 70
8
 71
3
 72
8
 73
4
 74
0
 40
0
 40
0
 40
0
 40
0
 40
1
 40
1
 40
1
 40
1
 10
54.568540
 20
58.836855
 30
0.0
 10
54.834055
 20
58.908134
 30
0.0
 10
55.107310
 20
58.751691
 30
0.0
 10
55.180261
 20
58.486635
 30
0.0
  0
SPLINE
  5
1b7
100
AcDbEntity
  8
0
 62
7
100
AcDbSpline
 70
8
 71
3
 72
8
 73
4
 74
0
 40
0
 40
0
 40
0
 40
0
 40
1
 40
1
 40
1
 40
1
 10
55.180261
 20
58.486635
 30
0.0
 10
55.253067
 20
58.221726
 30
0.0
 10
55.098684
 20
57.947667
 30
0.0
 10
54.834333
 20
57.872857
 30
0.0
  0
SPLINE
  5
1b8
100
AcDbEntity
  8
0
 62
7
100
AcDbSpline
 70
8
 71
3
 72
8
 73
4
 74
0
 40
0
 40
0
 40
0
 40
0
 40
1
 40
1
 40
1
 40
1
 10
54.834333
 20
57.872857
 30
0.0
 10
54.570148
 20
57.798054
 30
0.0
 10
54.295066
 20
57.950281
 30
0.0
 10
54.218136
 20
58.213859
 30
0.0
  0
LINE
  5
1b9
100
AcDbEntity
  8
0
 62
7
100
AcDbLine
 10
54.218136
 20
58.213859
 30
0.0
 11
54.218111
 21
58.214008
 31
0.0
  0
SPLINE
  5
1ba
100
AcDbEntity
  8
0
 62
7
100
AcDbSpline
 70
8
 71
3
 72
8
 73
4
 74
0
 40
0
 40
0
 40
0
 40
0
 40
1
 40
1
 40
1
 40
1
 10
49.855772
 20
74.494481
 30
0.0
 10
49.778983
 20
74.758158
 30
0.0
 10
49.929252
 20
75.034415
 30
0.0
 10
50.192333
 20
75.113233
 30
0.0
  0
LINE
  5
1bb
100
AcDbEntity
  8
0
 62
7
100
AcDbLine
 10
50.192333
 20
75.113233
 30
0.0
 11
50.206197
 21
75.117325
 31
0.0
  0
SPLINE
  5
1bc
100
AcDbEntity
  8
0
 62
7
100
AcDbSpline
 70
8
 71
3
 72
8
 73
4
 74
0
 40
0
 40
0
 40
0
 40
0
 40
1
 40
1
 40
1
 40
1
 10
50.206197
 20
75.117325
 30
0.0
 10
50.471712
 20
75.188607
 30
0.0
 10
50.744964
 20
75.032168
 30
0.0
 10
50.817915
 20
74.767108
 30
0.0
  0
SPLINE
  5
1bd
100
AcDbEntity
  8
0
 62
7
100
AcDbSpline
 70
8
 71
3
 72
8
 73
4
 74
0
 40
0
 40
0
 40
0
 40
0
 40
1
 40
1
 40
1
 40
1
 10
50.817915
 20
74.767108
 30
0.0
 10
50.890724
 20
74.502200
 30
0.0
 10
50.736342
 20
74.228144
 30
0.0
 10
50.471987
 20
74.153334
 30
0.0
  0
SPLINE
  5
1be
100
AcDbEntity
  8
0
 62
7
100
AcDbSpline
 70
8
 71
3
 72
8
 73
4
 74
0
 40
0
 40
0
 40
0
 40
0
 40
1
 40
1
 40
1
 40
1
 10
50.471987
 20
74.153334
 30
0.0
 10
50.207802
 20
74.078527
 30
0.0
 10
49.932723
 20
74.230751
 30
0.0
 10
49.855793
 20
74.494326
 30
0.0
  0
LINE
  5
1bf
100
AcDbEntity
  8
0
 62
7
100
AcDbLine
 10
49.855793
 20
74.494326
 30
0.0
 11
49.855772
 21
74.494481
 31
0.0
  0
SPLINE
  5
1c0
100
AcDbEntity
  8
0
 62
7
100
AcDbSpline
 70
8
 71
3
 72
8
 73
4
 74
0
 40
0
 40
0
 40
0
 40
0
 40
1
 40
1
 40
1
 40
1
 10
50.904956
 20
70.634756
 30
0.0
 10
50.828170
 20
70.898437
 30
0.0
 10
50.978439
 20
71.174690
 30
0.0
 10
51.241524
 20
71.253511
 30
0.0
  0
LINE
  5
1c1
100
AcDbEntity
  8
0
 62
7
100
AcDbLine
 10
51.241524
 20
71.253511
 30
0.0
 11
51.255388
 21
71.257604
 31
0.0
  0
SPLINE
  5
1c2
100
AcDbEntity
  8
0
 62
7
100
AcDbSpline
 70
8
 71
3
 72
8
 73
4
 74
0
 40
0
 40
0
 40
0
 40
0
 40
1
 40
1
 40
1
 40
1
 10
51.255388
 20
71.257604
 30
0.0
 10
51.520899
 20
71.328882
 30
0.0
 10
51.794151
 20
71.172443
 30
0.0
 10
51.867105
 20
70.907390
 30
0.0
  0
SPLINE
  5
1c3
100
AcDbEntity
  8
0
 62
7
100
AcDbSpline
 70
8
 71
3
 72
8
 73
4
 74
0
 40
0
 40
0
 40
0
 40
0
 40
1
 40
1
 40
1
 40
1
 10
51.867105
 20
70.907390
 30
0.0
 10
51.939912
 20
70.642478
 30
0.0
 10
51.785522
 20
70.368426
 30
0.0
 10
51.521178
 20
70.293612
 30
0.0
  0
SPLINE
  5
1c4
100
AcDbEntity
  8
0
 62
7
100
AcDbSpline
 70
8
 71
3
 72
8
 73
4
 74
0
 40
0
 40
0
 40
0
 40
0
 40
1
 40
1
 40
1
 40
1
 10
51.521178
 20
70.293612
 30
0.0
 10
51.256993
 20
70.218809
 30
0.0
 10
50.981914
 20
70.371037
 30
0.0
 10
50.904984
 20
70.634608
 30
0.0
  0
LINE
  5
1c5
100
AcDbEntity
  8
0
 62
7
100
AcDbLine
 10
50.904984
 20
70.634608
 30
0.0
 11
50.904956
 21
70.634756
 31
0.0
  0
LINE
  5
1c6
100
AcDbEntity
  8
0
 62
7
100
AcDbLine
 10
60.213256
 20
96.914067
 30
0.0
 11
57.263049
 21
96.914067
 31
0.0
  0
SPLINE
  5
1c7
100
AcDbEntity
  8
0
 62
7
100
AcDbSpline
 70
8
 71
3
 72
8
 73
4
 74
0
 40
0
 40
0
 40
0
 40
0
 40
1
 40
1
 40
1
 40
1
 10
57.263049
 20
96.914067
 30
0.0
 10
56.155050
 20
96.914067
 30
0.0
 10
55.263171
 20
96.021672
 30
0.0
 10
55.263171
 20
94.913669
 30
0.0
  0
LINE
  5
1c8
100
AcDbEntity
  8
0
 62
7
100
AcDbLine
 10
55.263171
 20
94.913669
 30
0.0
 11
55.263001
 21
73.713921
 31
0.0
  0
SPLINE
  5
1c9
100
AcDbEntity
  8
0
 62
7
100
AcDbSpline
 70
8
 71
3
 72
8
 73
4
 74
0
 40
0
 40
0
 40
0
 40
0
 40
1
 40
1
 40
1
 40
1
 10
55.263001
 20
73.713921
 30
0.0
 10
55.263001
 20
72.605918
 30
0.0
 10
56.154881
 20
71.713524
 30
0.0
 10
57.262880
 20
71.713524
 30
0.0
  0
LINE
  5
1ca
100
AcDbEntity
  8
0
 62
7
100
AcDbLine
 10
57.262880
 20
71.713524
 30
0.0
 11
60.213087
 21
71.713524
 31
0.0
  0
SPLINE
  5
1cb
100
AcDbEntity
  8
0
 62
7
100
AcDbSpline
 70
8
 71
3
 72
8
 73
4
 74
0
 40
0
 40
0
 40
0
 40
0
 40
1
 40
1
 40
1
 40
1
 10
60.213087
 20
71.713524
 30
0.0
 10
60.213012
 20
80.039086
 30
0.0
 10
60.213266
 20
89.343463
 30
0.0
 10
60.213256
 20
96.914067
 30
0.0
  0
LINE
  5
1cc
100
AcDbEntity
  8
0
 62
7
100
AcDbLine
 10
60.213256
 20
96.914067
 30
0.0
 11
60.213256
 21
96.914067
 31
0.0
  0
SPLINE
  5
1cd
100
AcDbEntity
  8
0
 62
7
100
AcDbSpline
 70
8
 71
3
 72
8
 73
4
 74
0
 40
0
 40
0
 40
0
 40
0
 40
1
 40
1
 40
1
 40
1
 10
57.013282
 20
77.594305
 30
0.0
 10
57.002769
 20
78.088413
 30
0.0
 10
57.392607
 20
78.498581
 30
0.0
 10
57.886613
 20
78.513112
 30
0.0
  0
LINE
  5
1ce
100
AcDbEntity
  8
0
 62
7
100
AcDbLine
 10
57.886613
 20
78.513112
 30
0.0
 11
57.912965
 21
78.513818
 31
0.0
  0
SPLINE
  5
1cf
100
AcDbEntity
  8
0
 62
7
100
AcDbSpline
 70
8
 71
3
 72
8
 73
4
 74
0
 40
0
 40
0
 40
0
 40
0
 40
1
 40
1
 40
1
 40
1
 10
57.912965
 20
78.513818
 30
0.0
 10
58.407366
 20
78.513659
 30
0.0
 10
58.809072
 20
78.114720
 30
0.0
 10
58.812652
 20
77.620333
 30
0.0
  0
SPLINE
  5
1d0
100
AcDbEntity
  8
0
 62
7
100
AcDbSpline
 70
8
 71
3
 72
8
 73
4
 74
0
 40
0
 40
0
 40
0
 40
0
 40
1
 40
1
 40
1
 40
1
 10
58.812652
 20
77.620333
 30
0.0
 10
58.816215
 20
77.125911
 30
0.0
 10
58.420271
 20
76.721186
 30
0.0
 10
57.925884
 20
76.713929
 30
0.0
  0
SPLINE
  5
1d1
100
AcDbEntity
  8
0
 62
7
100
AcDbSpline
 70
8
 71
3
 72
8
 73
4
 74
0
 40
0
 40
0
 40
0
 40
0
 40
1
 40
1
 40
1
 40
1
 10
57.925884
 20
76.713929
 30
0.0
 10
57.431427
 20
76.706909
 30
0.0
 10
57.023908
 20
77.100101
 30
0.0
 10
57.013279
 20
77.594495
 30
0.0
  0
LINE
  5
1d2
100
AcDbEntity
  8
0
 62
7
100
AcDbLine
 10
57.013279
 20
77.594495
 30
0.0
 11
57.013282
 21
77.594305
 31
0.0
  0
SPLINE
  5
1d3
100
AcDbEntity
  8
0
 62
7
100
AcDbSpline
 70
8
 71
3
 72
8
 73
4
 74
0
 40
0
 40
0
 40
0
 40
0
 40
1
 40
1
 40
1
 40
1
 10
57.013452
 20
90.994014
 30
0.0
 10
57.002621
 20
91.488320
 30
0.0
 10
57.392572
 20
91.898805
 30
0.0
 10
57.886782
 20
91.913336
 30
0.0
  0
LINE
  5
1d4
100
AcDbEntity
  8
0
 62
7
100
AcDbLine
 10
57.886782
 20
91.913336
 30
0.0
 11
57.913135
 21
91.913689
 31
0.0
  0
SPLINE
  5
1d5
100
AcDbEntity
  8
0
 62
7
100
AcDbSpline
 70
8
 71
3
 72
8
 73
4
 74
0
 40
0
 40
0
 40
0
 40
0
 40
1
 40
1
 40
1
 40
1
 10
57.913135
 20
91.913689
 30
0.0
 10
58.407536
 20
91.913530
 30
0.0
 10
58.809241
 20
91.514595
 30
0.0
 10
58.812822
 20
91.020204
 30
0.0
  0
SPLINE
  5
1d6
100
AcDbEntity
  8
0
 62
7
100
AcDbSpline
 70
8
 71
3
 72
8
 73
4
 74
0
 40
0
 40
0
 40
0
 40
0
 40
1
 40
1
 40
1
 40
1
 10
58.812822
 20
91.020204
 30
0.0
 10
58.816385
 20
90.525779
 30
0.0
 10
58.420440
 20
90.121057
 30
0.0
 10
57.926054
 20
90.113801
 30
0.0
  0
SPLINE
  5
1d7
100
AcDbEntity
  8
0
 62
7
100
AcDbSpline
 70
8
 71
3
 72
8
 73
4
 74
0
 40
0
 40
0
 40
0
 40
0
 40
1
 40
1
 40
1
 40
1
 10
57.926054
 20
90.113801
 30
0.0
 10
57.431794
 20
90.106745
 30
0.0
 10
57.024356
 20
90.499659
 30
0.0
 10
57.013448
 20
90.993848
 30
0.0
  0
LINE
  5
1d8
100
AcDbEntity
  8
0
 62
7
100
AcDbLine
 10
57.013448
 20
90.993848
 30
0.0
 11
57.013452
 21
90.994014
 31
0.0
  0
SPLINE
  5
1d9
100
AcDbEntity
  8
0
 62
7
100
AcDbSpline
 70
8
 71
3
 72
8
 73
4
 74
0
 40
0
 40
0
 40
0
 40
0
 40
1
 40
1
 40
1
 40
1
 10
34.698087
 20
97.017744
 30
0.0
 10
34.698087
 20
69.924648
 30
0.0
 10
38.104909
 20
66.329691
 30
0.0
 10
34.608689
 20
66.329694
 30
0.0
  0
SPLINE
  5
1da
100
AcDbEntity
  8
0
 62
7
100
AcDbSpline
 70
8
 71
3
 72
8
 73
4
 74
0
 40
0
 40
0
 40
0
 40
0
 40
1
 40
1
 40
1
 40
1
 10
34.608689
 20
66.329694
 30
0.0
 10
33.500687
 20
66.329694
 30
0.0
 10
32.608807
 20
65.437815
 30
0.0
 10
32.608807
 20
64.329813
 30
0.0
  0
LINE
  5
1db
100
AcDbEntity
  8
0
 62
7
100
AcDbLine
 10
32.608807
 20
64.329813
 30
0.0
 11
32.608807
 21
61.368755
 31
0.0
  0
LINE
  5
1dc
100
AcDbEntity
  8
0
 62
7
100
AcDbLine
 10
32.608807
 20
61.368755
 30
0.0
 11
40.298262
 21
61.368755
 31
0.0
  0
SPLINE
  5
1dd
100
AcDbEntity
  8
0
 62
7
100
AcDbSpline
 70
8
 71
3
 72
8
 73
4
 74
0
 40
0
 40
0
 40
0
 40
0
 40
1
 40
1
 40
1
 40
1
 10
40.298262
 20
61.368755
 30
0.0
 10
40.575263
 20
61.368755
 30
0.0
 10
40.798491
 20
61.145524
 30
0.0
 10
40.798491
 20
60.868526
 30
0.0
  0
LINE
  5
1de
100
AcDbEntity
  8
0
 62
7
100
AcDbLine
 10
40.798491
 20
60.868526
 30
0.0
 11
40.798491
 21
38.868317
 31
0.0
  0
SPLINE
  5
1df
100
AcDbEntity
  8
0
 62
7
100
AcDbSpline
 70
8
 71
3
 72
8
 73
4
 74
0
 40
0
 40
0
 40
0
 40
0
 40
1
 40
1
 40
1
 40
1
 10
40.798491
 20
38.868317
 30
0.0
 10
40.798491
 20
38.591319
 30
0.0
 10
40.575263
 20
38.368606
 30
0.0
 10
40.298262
 20
38.368606
 30
0.0
  0
LINE
  5
1e0
100
AcDbEntity
  8
0
 62
7
100
AcDbLine
 10
40.298262
 20
38.368606
 30
0.0
 11
32.608807
 21
38.368606
 31
0.0
  0
LINE
  5
1e1
100
AcDbEntity
  8
0
 62
7
100
AcDbLine
 10
32.608807
 20
38.368606
 30
0.0
 11
32.608807
 21
35.618386
 31
0.0
  0
SPLINE
  5
1e2
100
AcDbEntity
  8
0
 62
7
100
AcDbSpline
 70
8
 71
3
 72
8
 73
4
 74
0
 40
0
 40
0
 40
0
 40
0
 40
1
 40
1
 40
1
 40
1
 10
32.608807
 20
35.618386
 30
0.0
 10
32.608807
 20
34.510384
 30
0.0
 10
33.500687
 20
33.618508
 30
0.0
 10
34.608689
 20
33.618508
 30
0.0
  0
LINE
  5
1e3
100
AcDbEntity
  8
0
 62
7
100
AcDbLine
 10
34.608689
 20
33.618508
 30
0.0
 11
39.598565
 21
33.618508
 31
0.0
  0
SPLINE
  5
1e4
100
AcDbEntity
  8
0
 62
7
100
AcDbSpline
 70
8
 71
3
 72
8
 73
4
 74
0
 40
0
 40
0
 40
0
 40
0
 40
1
 40
1
 40
1
 40
1
 10
39.598565
 20
33.618508
 30
0.0
 10
41.814566
 20
33.618508
 30
0.0
 10
43.598322
 20
35.402782
 30
0.0
 10
43.598322
 20
37.618780
 30
0.0
  0
LINE
  5
1e5
100
AcDbEntity
  8
0
 62
7
100
AcDbLine
 10
43.598322
 20
37.618780
 30
0.0
 11
43.598322
 21
38.568593
 31
0.0
  0
SPLINE
  5
1e6
100
AcDbEntity
  8
0
 62
7
100
AcDbSpline
 70
8
 71
3
 72
8
 73
4
 74
0
 40
0
 40
0
 40
0
 40
0
 40
1
 40
1
 40
1
 40
1
 10
43.598322
 20
38.568593
 30
0.0
 10
43.598322
 20
61.168599
 30
0.0
 10
44.767821
 20
79.576453
 30
0.0
 10
34.698087
 20
97.017744
 30
0.0
  0
LINE
  5
1e7
100
AcDbEntity
  8
0
 62
7
100
AcDbLine
 10
34.698087
 20
97.017744
 30
0.0
 11
34.698087
 21
97.017744
 31
0.0
  0
SPLINE
  5
1e8
100
AcDbEntity
  8
0
 62
7
100
AcDbSpline
 70
8
 71
3
 72
8
 73
4
 74
0
 40
0
 40
0
 40
0
 40
0
 40
1
 40
1
 40
1
 40
1
 10
34.691913
 20
64.368573
 30
0.0
 10
35.186342
 20
64.372136
 30
0.0
 10
35.591065
 20
63.976188
 30
0.0
 10
35.598318
 20
63.481801
 30
0.0
  0
SPLINE
  5
1e9
100
AcDbEntity
  8
0
 62
7
100
AcDbSpline
 70
8
 71
3
 72
8
 73
4
 74
0
 40
0
 40
0
 40
0
 40
0
 40
1
 40
1
 40
1
 40
1
 10
35.598318
 20
63.481801
 30
0.0
 10
35.605655
 20
62.987146
 30
0.0
 10
35.212353
 20
62.579310
 30
0.0
 10
34.717754
 20
62.568681
 30
0.0
  0
SPLINE
  5
1ea
100
AcDbEntity
  8
0
 62
7
100
AcDbSpline
 70
8
 71
3
 72
8
 73
4
 74
0
 40
0
 40
0
 40
0
 40
0
 40
1
 40
1
 40
1
 40
1
 10
34.717754
 20
62.568681
 30
0.0
 10
34.223452
 20
62.558133
 30
0.0
 10
33.813199
 20
62.948320
 30
0.0
 10
33.798947
 20
63.442530
 30
0.0
  0
LINE
  5
1eb
100
AcDbEntity
  8
0
 62
7
100
AcDbLine
 10
33.798947
 20
63.442530
 30
0.0
 11
33.798594
 21
63.468354
 31
0.0
  0
SPLINE
  5
1ec
100
AcDbEntity
  8
0
 62
7
100
AcDbSpline
 70
8
 71
3
 72
8
 73
4
 74
0
 40
0
 40
0
 40
0
 40
0
 40
1
 40
1
 40
1
 40
1
 10
33.798594
 20
63.468354
 30
0.0
 10
33.798467
 20
63.962959
 30
0.0
 10
34.197487
 20
64.364978
 30
0.0
 10
34.692075
 20
64.368559
 30
0.0
  0
LINE
  5
1ed
100
AcDbEntity
  8
0
 62
7
100
AcDbLine
 10
34.692075
 20
64.368559
 30
0.0
 11
34.691913
 21
64.368573
 31
0.0
  0
SPLINE
  5
1ee
100
AcDbEntity
  8
0
 62
7
100
AcDbSpline
 70
8
 71
3
 72
8
 73
4
 74
0
 40
0
 40
0
 40
0
 40
0
 40
1
 40
1
 40
1
 40
1
 10
34.691913
 20
37.168677
 30
0.0
 10
35.186536
 20
37.172240
 30
0.0
 10
35.591343
 20
36.775982
 30
0.0
 10
35.598318
 20
36.281394
 30
0.0
  0
SPLINE
  5
1ef
100
AcDbEntity
  8
0
 62
7
100
AcDbSpline
 70
8
 71
3
 72
8
 73
4
 74
0
 40
0
 40
0
 40
0
 40
0
 40
1
 40
1
 40
1
 40
1
 10
35.598318
 20
36.281394
 30
0.0
 10
35.605338
 20
35.786937
 30
0.0
 10
35.212144
 20
35.379418
 30
0.0
 10
34.717754
 20
35.368789
 30
0.0
  0
SPLINE
  5
1f0
100
AcDbEntity
  8
0
 62
7
100
AcDbSpline
 70
8
 71
3
 72
8
 73
4
 74
0
 40
0
 40
0
 40
0
 40
0
 40
1
 40
1
 40
1
 40
1
 10
34.717754
 20
35.368789
 30
0.0
 10
34.223452
 20
35.358240
 30
0.0
 10
33.813202
 20
35.748427
 30
0.0
 10
33.798947
 20
36.242638
 30
0.0
  0
LINE
  5
1f1
100
AcDbEntity
  8
0
 62
7
100
AcDbLine
 10
33.798947
 20
36.242638
 30
0.0
 11
33.798594
 21
36.268496
 31
0.0
  0
SPLINE
  5
1f2
100
AcDbEntity
  8
0
 62
7
100
AcDbSpline
 70
8
 71
3
 72
8
 73
4
 74
0
 40
0
 40
0
 40
0
 40
0
 40
1
 40
1
 40
1
 40
1
 10
33.798594
 20
36.268496
 30
0.0
 10
33.798467
 20
36.763099
 30
0.0
 10
34.197487
 20
37.165121
 30
0.0
 10
34.692075
 20
37.168698
 30
0.0
  0
LINE
  5
1f3
100
AcDbEntity
  8
0
 62
7
100
AcDbLine
 10
34.692075
 20
37.168698
 30
0.0
 11
34.691913
 21
37.168677
 31
0.0
  0
SPLINE
  5
1f4
100
AcDbEntity
  8
0
 62
7
100
AcDbSpline
 70
8
 71
3
 72
8
 73
4
 74
0
 40
0
 40
0
 40
0
 40
0
 40
1
 40
1
 40
1
 40
1
 10
26.547677
 20
43.406936
 30
0.0
 10
27.768548
 20
39.746576
 30
0.0
 10
30.639719
 20
39.079617
 30
0.0
 10
33.227696
 20
39.738836
 30
0.0
  0
SPLINE
  5
1f5
100
AcDbEntity
  8
0
 62
7
100
AcDbSpline
 70
8
 71
3
 72
8
 73
4
 74
0
 40
0
 40
0
 40
0
 40
0
 40
1
 40
1
 40
1
 40
1
 10
33.227696
 20
39.738836
 30
0.0
 10
35.815664
 20
40.398058
 30
0.0
 10
37.920801
 20
42.860845
 30
0.0
 10
36.992003
 20
46.171006
 30
0.0
  0
SPLINE
  5
1f6
100
AcDbEntity
  8
0
 62
7
100
AcDbSpline
 70
8
 71
3
 72
8
 73
4
 74
0
 40
0
 40
0
 40
0
 40
0
 40
1
 40
1
 40
1
 40
1
 10
36.992003
 20
46.171006
 30
0.0
 10
36.613229
 20
47.520919
 30
0.0
 10
35.439299
 20
49.637443
 30
0.0
 10
34.155348
 20
51.908044
 30
0.0
  0
SPLINE
  5
1f7
100
AcDbEntity
  8
0
 62
7
100
AcDbSpline
 70
8
 71
3
 72
8
 73
4
 74
0
 40
0
 40
0
 40
0
 40
0
 40
1
 40
1
 40
1
 40
1
 10
34.155348
 20
51.908044
 30
0.0
 10
31.697429
 20
56.254759
 30
0.0
 10
30.484648
 20
60.398918
 30
0.0
 10
29.409400
 20
64.649162
 30
0.0
  0
SPLINE
  5
1f8
100
AcDbEntity
  8
0
 62
7
100
AcDbSpline
 70
8
 71
3
 72
8
 73
4
 74
0
 40
0
 40
0
 40
0
 40
0
 40
1
 40
1
 40
1
 40
1
 10
29.409400
 20
64.649162
 30
0.0
 10
28.140139
 20
69.666299
 30
0.0
 10
27.246538
 20
74.831256
 30
0.0
 10
27.380862
 20
80.651696
 30
0.0
  0
SPLINE
  5
1f9
100
AcDbEntity
  8
0
 62
7
100
AcDbSpline
 70
8
 71
3
 72
8
 73
4
 74
0
 40
0
 40
0
 40
0
 40
0
 40
1
 40
1
 40
1
 40
1
 10
27.380862
 20
80.651696
 30
0.0
 10
27.445657
 20
83.459357
 30
0.0
 10
26.880421
 20
85.551810
 30
0.0
 10
26.730170
 20
85.888875
 30
0.0
  0
SPLINE
  5
1fa
100
AcDbEntity
  8
0
 62
7
100
AcDbSpline
 70
8
 71
3
 72
8
 73
4
 74
0
 40
0
 40
0
 40
0
 40
0
 40
1
 40
1
 40
1
 40
1
 10
26.730170
 20
85.888875
 30
0.0
 10
24.833637
 20
90.143398
 30
0.0
 10
21.662407
 20
90.012902
 30
0.0
 10
19.913946
 20
89.554188
 30
0.0
  0
SPLINE
  5
1fb
100
AcDbEntity
  8
0
 62
7
100
AcDbSpline
 70
8
 71
3
 72
8
 73
4
 74
0
 40
0
 40
0
 40
0
 40
0
 40
1
 40
1
 40
1
 40
1
 10
19.913946
 20
89.554188
 30
0.0
 10
18.165485
 20
89.095478
 30
0.0
 10
14.906153
 20
86.767931
 30
0.0
 10
16.073256
 20
82.896159
 30
0.0
  0
SPLINE
  5
1fc
100
AcDbEntity
  8
0
 62
7
100
AcDbSpline
 70
8
 71
3
 72
8
 73
4
 74
0
 40
0
 40
0
 40
0
 40
0
 40
1
 40
1
 40
1
 40
1
 10
16.073256
 20
82.896159
 30
0.0
 10
16.902503
 20
80.145186
 30
0.0
 10
17.611686
 20
79.583879
 30
0.0
 10
18.681815
 20
78.103374
 30
0.0
  0
SPLINE
  5
1fd
100
AcDbEntity
  8
0
 62
7
100
AcDbSpline
 70
8
 71
3
 72
8
 73
4
 74
0
 40
0
 40
0
 40
0
 40
0
 40
1
 40
1
 40
1
 40
1
 10
18.681815
 20
78.103374
 30
0.0
 10
21.211373
 20
74.603775
 30
0.0
 10
20.880718
 20
68.155992
 30
0.0
 10
22.046381
 20
62.453453
 30
0.0
  0
SPLINE
  5
1fe
100
AcDbEntity
  8
0
 62
7
100
AcDbSpline
 70
8
 71
3
 72
8
 73
4
 74
0
 40
0
 40
0
 40
0
 40
0
 40
1
 40
1
 40
1
 40
1
 10
22.046381
 20
62.453453
 30
0.0
 10
23.094577
 20
57.325585
 30
0.0
 10
25.746596
 20
52.997271
 30
0.0
 10
26.061408
 20
48.599711
 30
0.0
  0
SPLINE
  5
1ff
100
AcDbEntity
  8
0
 62
7
100
AcDbSpline
 70
8
 71
3
 72
8
 73
4
 74
0
 40
0
 40
0
 40
0
 40
0
 40
1
 40
1
 40
1
 40
1
 10
26.061408
 20
48.599711
 30
0.0
 10
26.229584
 20
46.250501
 30
0.0
 10
26.113033
 20
44.710056
 30
0.0
 10
26.547677
 20
43.406936
 30
0.0
  0
LINE
  5
200
100
AcDbEntity
  8
0
 62
7
100
AcDbLine
 10
26.547677
 20
43.406936
 30
0.0
 11
26.547677
 21
43.406936
 31
0.0
  0
SPLINE
  5
201
100
AcDbEntity
  8
0
 62
7
100
AcDbSpline
 70
8
 71
3
 72
8
 73
4
 74
0
 40
0
 40
0
 40
0
 40
0
 40
1
 40
1
 40
1
 40
1
 10
28.214932
 20
43.767542
 30
0.0
 10
27.630537
 20
45.772282
 30
0.0
 10
28.773271
 20
47.872960
 30
0.0
 10
30.773824
 20
48.471536
 30
0.0
  0
LINE
  5
202
100
AcDbEntity
  8
0
 62
7
100
AcDbLine
 10
30.773824
 20
48.471536
 30
0.0
 11
30.879682
 21
48.501734
 31
0.0
  0
SPLINE
  5
203
100
AcDbEntity
  8
0
 62
7
100
AcDbSpline
 70
8
 71
3
 72
8
 73
4
 74
0
 40
0
 40
0
 40
0
 40
0
 40
1
 40
1
 40
1
 40
1
 10
30.879682
 20
48.501734
 30
0.0
 10
32.896416
 20
49.042038
 30
0.0
 10
34.971320
 20
47.854075
 30
0.0
 10
35.526340
 20
45.841342
 30
0.0
  0
SPLINE
  5
204
100
AcDbEntity
  8
0
 62
7
100
AcDbSpline
 70
8
 71
3
 72
8
 73
4
 74
0
 40
0
 40
0
 40
0
 40
0
 40
1
 40
1
 40
1
 40
1
 10
35.526340
 20
45.841342
 30
0.0
 10
36.081310
 20
43.828650
 30
0.0
 10
34.908572
 20
41.745174
 30
0.0
 10
32.900004
 20
41.175451
 30
0.0
  0
SPLINE
  5
205
100
AcDbEntity
  8
0
 62
7
100
AcDbSpline
 70
8
 71
3
 72
8
 73
4
 74
0
 40
0
 40
0
 40
0
 40
0
 40
1
 40
1
 40
1
 40
1
 10
32.900004
 20
41.175451
 30
0.0
 10
30.891331
 20
40.605675
 30
0.0
 10
28.799203
 20
41.763268
 30
0.0
 10
28.214879
 20
43.767754
 30
0.0
  0
LINE
  5
206
100
AcDbEntity
  8
0
 62
7
100
AcDbLine
 10
28.214879
 20
43.767754
 30
0.0
 11
28.214932
 21
43.767542
 31
0.0
  0
SPLINE
  5
207
100
AcDbEntity
  8
0
 62
7
100
AcDbSpline
 70
8
 71
3
 72
8
 73
4
 74
0
 40
0
 40
0
 40
0
 40
0
 40
1
 40
1
 40
1
 40
1
 10
17.640907
 20
83.230328
 30
0.0
 10
17.056516
 20
85.235068
 30
0.0
 10
18.199246
 20
87.335739
 30
0.0
 10
20.199799
 20
87.934315
 30
0.0
  0
LINE
  5
208
100
AcDbEntity
  8
0
 62
7
100
AcDbLine
 10
20.199799
 20
87.934315
 30
0.0
 11
20.305661
 21
87.964513
 31
0.0
  0
SPLINE
  5
209
100
AcDbEntity
  8
0
 62
7
100
AcDbSpline
 70
8
 71
3
 72
8
 73
4
 74
0
 40
0
 40
0
 40
0
 40
0
 40
1
 40
1
 40
1
 40
1
 10
20.305661
 20
87.964513
 30
0.0
 10
22.322392
 20
88.504825
 30
0.0
 10
24.397296
 20
87.316858
 30
0.0
 10
24.952315
 20
85.304128
 30
0.0
  0
SPLINE
  5
20a
100
AcDbEntity
  8
0
 62
7
100
AcDbSpline
 70
8
 71
3
 72
8
 73
4
 74
0
 40
0
 40
0
 40
0
 40
0
 40
1
 40
1
 40
1
 40
1
 10
24.952315
 20
85.304128
 30
0.0
 10
25.507285
 20
83.291429
 30
0.0
 10
24.334550
 20
81.207960
 30
0.0
 10
22.325979
 20
80.638237
 30
0.0
  0
SPLINE
  5
20b
100
AcDbEntity
  8
0
 62
7
100
AcDbSpline
 70
8
 71
3
 72
8
 73
4
 74
0
 40
0
 40
0
 40
0
 40
0
 40
1
 40
1
 40
1
 40
1
 10
22.325979
 20
80.638237
 30
0.0
 10
20.317306
 20
80.068462
 30
0.0
 10
18.225178
 20
81.226050
 30
0.0
 10
17.640854
 20
83.230540
 30
0.0
  0
LINE
  5
20c
100
AcDbEntity
  8
0
 62
7
100
AcDbLine
 10
17.640854
 20
83.230540
 30
0.0
 11
17.640907
 21
83.230328
 31
0.0
  0
SPLINE
  5
20d
100
AcDbEntity
  8
0
 62
7
100
AcDbSpline
 70
8
 71
3
 72
8
 73
4
 74
0
 40
0
 40
0
 40
0
 40
0
 40
1
 40
1
 40
1
 40
1
 10
22.361751
 20
78.358355
 30
0.0
 10
22.284912
 20
78.622223
 30
0.0
 10
22.435461
 20
78.898638
 30
0.0
 10
22.698809
 20
78.977248
 30
0.0
  0
LINE
  5
20e
100
AcDbEntity
  8
0
 62
7
100
AcDbLine
 10
22.698809
 20
78.977248
 30
0.0
 11
22.712780
 21
78.980987
 31
0.0
  0
SPLINE
  5
20f
100
AcDbEntity
  8
0
 62
7
100
AcDbSpline
 70
8
 71
3
 72
8
 73
4
 74
0
 40
0
 40
0
 40
0
 40
0
 40
1
 40
1
 40
1
 40
1
 10
22.712780
 20
78.980987
 30
0.0
 10
22.977977
 20
79.051889
 30
0.0
 10
23.250742
 20
78.895724
 30
0.0
 10
23.323862
 20
78.631134
 30
0.0
  0
SPLINE
  5
210
100
AcDbEntity
  8
0
 62
7
100
AcDbSpline
 70
8
 71
3
 72
8
 73
4
 74
0
 40
0
 40
0
 40
0
 40
0
 40
1
 40
1
 40
1
 40
1
 10
23.323862
 20
78.631134
 30
0.0
 10
23.397011
 20
78.366310
 30
0.0
 10
23.242846
 20
78.092074
 30
0.0
 10
22.978570
 20
78.016993
 30
0.0
  0
SPLINE
  5
211
100
AcDbEntity
  8
0
 62
7
100
AcDbSpline
 70
8
 71
3
 72
8
 73
4
 74
0
 40
0
 40
0
 40
0
 40
0
 40
1
 40
1
 40
1
 40
1
 10
22.978570
 20
78.016993
 30
0.0
 10
22.714074
 20
77.941809
 30
0.0
 10
22.438509
 20
78.094311
 30
0.0
 10
22.361744
 20
78.358351
 30
0.0
  0
LINE
  5
212
100
AcDbEntity
  8
0
 62
7
100
AcDbLine
 10
22.361744
 20
78.358351
 30
0.0
 11
22.361751
 21
78.358355
 31
0.0
  0
SPLINE
  5
213
100
AcDbEntity
  8
0
 62
7
100
AcDbSpline
 70
8
 71
3
 72
8
 73
4
 74
0
 40
0
 40
0
 40
0
 40
0
 40
1
 40
1
 40
1
 40
1
 10
29.830342
 20
50.486567
 30
0.0
 10
29.753549
 20
50.750247
 30
0.0
 10
29.903822
 20
51.026501
 30
0.0
 10
30.166904
 20
51.105318
 30
0.0
  0
LINE
  5
214
100
AcDbEntity
  8
0
 62
7
100
AcDbLine
 10
30.166904
 20
51.105318
 30
0.0
 11
30.181298
 21
51.109552
 31
0.0
  0
SPLINE
  5
215
100
AcDbEntity
  8
0
 62
7
100
AcDbSpline
 70
8
 71
3
 72
8
 73
4
 74
0
 40
0
 40
0
 40
0
 40
0
 40
1
 40
1
 40
1
 40
1
 10
30.181298
 20
51.109552
 30
0.0
 10
30.446689
 20
51.180506
 30
0.0
 10
30.719623
 20
51.024059
 30
0.0
 10
30.792518
 20
50.759194
 30
0.0
  0
SPLINE
  5
216
100
AcDbEntity
  8
0
 62
7
100
AcDbSpline
 70
8
 71
3
 72
8
 73
4
 74
0
 40
0
 40
0
 40
0
 40
0
 40
1
 40
1
 40
1
 40
1
 10
30.792518
 20
50.759194
 30
0.0
 10
30.865275
 20
50.494479
 30
0.0
 10
30.711171
 20
50.220586
 30
0.0
 10
30.447095
 20
50.145553
 30
0.0
  0
SPLINE
  5
217
100
AcDbEntity
  8
0
 62
7
100
AcDbSpline
 70
8
 71
3
 72
8
 73
4
 74
0
 40
0
 40
0
 40
0
 40
0
 40
1
 40
1
 40
1
 40
1
 10
30.447095
 20
50.145553
 30
0.0
 10
30.182786
 20
50.070426
 30
0.0
 10
29.907378
 20
50.222643
 30
0.0
 10
29.830395
 20
50.486415
 30
0.0
  0
LINE
  5
218
100
AcDbEntity
  8
0
 62
7
100
AcDbLine
 10
29.830395
 20
50.486415
 30
0.0
 11
29.830342
 21
50.486567
 31
0.0
  0
SPLINE
  5
219
100
AcDbEntity
  8
0
 62
7
100
AcDbSpline
 70
8
 71
3
 72
8
 73
4
 74
0
 40
0
 40
0
 40
0
 40
0
 40
1
 40
1
 40
1
 40
1
 10
28.794991
 20
54.350536
 30
0.0
 10
28.718202
 20
54.614213
 30
0.0
 10
28.868475
 20
54.890473
 30
0.0
 10
29.131552
 20
54.969291
 30
0.0
  0
LINE
  5
21a
100
AcDbEntity
  8
0
 62
7
100
AcDbLine
 10
29.131552
 20
54.969291
 30
0.0
 11
29.145522
 21
54.973031
 31
0.0
  0
SPLINE
  5
21b
100
AcDbEntity
  8
0
 62
7
100
AcDbSpline
 70
8
 71
3
 72
8
 73
4
 74
0
 40
0
 40
0
 40
0
 40
0
 40
1
 40
1
 40
1
 40
1
 10
29.145522
 20
54.973031
 30
0.0
 10
29.410840
 20
55.044264
 30
0.0
 10
29.683936
 20
54.888103
 30
0.0
 10
29.757102
 20
54.623307
 30
0.0
  0
SPLINE
  5
21c
100
AcDbEntity
  8
0
 62
7
100
AcDbSpline
 70
8
 71
3
 72
8
 73
4
 74
0
 40
0
 40
0
 40
0
 40
0
 40
1
 40
1
 40
1
 40
1
 10
29.757102
 20
54.623307
 30
0.0
 10
29.830303
 20
54.358300
 30
0.0
 10
29.675861
 20
54.083902
 30
0.0
 10
29.411312
 20
54.009036
 30
0.0
  0
SPLINE
  5
21d
100
AcDbEntity
  8
0
 62
7
100
AcDbSpline
 70
8
 71
3
 72
8
 73
4
 74
0
 40
0
 40
0
 40
0
 40
0
 40
1
 40
1
 40
1
 40
1
 10
29.411312
 20
54.009036
 30
0.0
 10
29.146937
 20
53.934176
 30
0.0
 10
28.871696
 20
54.086686
 30
0.0
 10
28.794981
 20
54.350532
 30
0.0
  0
LINE
  5
21e
100
AcDbEntity
  8
0
 62
7
100
AcDbLine
 10
28.794981
 20
54.350532
 30
0.0
 11
28.794991
 21
54.350536
 31
0.0
  0
SPLINE
  5
21f
100
AcDbEntity
  8
0
 62
7
100
AcDbSpline
 70
8
 71
3
 72
8
 73
4
 74
0
 40
0
 40
0
 40
0
 40
0
 40
1
 40
1
 40
1
 40
1
 10
27.759778
 20
58.214008
 30
0.0
 10
27.682992
 20
58.477685
 30
0.0
 10
27.833261
 20
58.753945
 30
0.0
 10
28.096342
 20
58.832763
 30
0.0
  0
LINE
  5
220
100
AcDbEntity
  8
0
 62
7
100
AcDbLine
 10
28.096342
 20
58.832763
 30
0.0
 11
28.110206
 21
58.836855
 31
0.0
  0
SPLINE
  5
221
100
AcDbEntity
  8
0
 62
7
100
AcDbSpline
 70
8
 71
3
 72
8
 73
4
 74
0
 40
0
 40
0
 40
0
 40
0
 40
1
 40
1
 40
1
 40
1
 10
28.110206
 20
58.836855
 30
0.0
 10
28.375721
 20
58.908134
 30
0.0
 10
28.648976
 20
58.751691
 30
0.0
 10
28.721927
 20
58.486635
 30
0.0
  0
SPLINE
  5
222
100
AcDbEntity
  8
0
 62
7
100
AcDbSpline
 70
8
 71
3
 72
8
 73
4
 74
0
 40
0
 40
0
 40
0
 40
0
 40
1
 40
1
 40
1
 40
1
 10
28.721927
 20
58.486635
 30
0.0
 10
28.794734
 20
58.221726
 30
0.0
 10
28.640351
 20
57.947667
 30
0.0
 10
28.376000
 20
57.872857
 30
0.0
  0
SPLINE
  5
223
100
AcDbEntity
  8
0
 62
7
100
AcDbSpline
 70
8
 71
3
 72
8
 73
4
 74
0
 40
0
 40
0
 40
0
 40
0
 40
1
 40
1
 40
1
 40
1
 10
28.376000
 20
57.872857
 30
0.0
 10
28.111815
 20
57.798054
 30
0.0
 10
27.836733
 20
57.950281
 30
0.0
 10
27.759802
 20
58.213859
 30
0.0
  0
LINE
  5
224
100
AcDbEntity
  8
0
 62
7
100
AcDbLine
 10
27.759802
 20
58.213859
 30
0.0
 11
27.759778
 21
58.214008
 31
0.0
  0
SPLINE
  5
225
100
AcDbEntity
  8
0
 62
7
100
AcDbSpline
 70
8
 71
3
 72
8
 73
4
 74
0
 40
0
 40
0
 40
0
 40
0
 40
1
 40
1
 40
1
 40
1
 10
23.397437
 20
74.494481
 30
0.0
 10
23.320648
 20
74.758158
 30
0.0
 10
23.470918
 20
75.034415
 30
0.0
 10
23.733998
 20
75.113233
 30
0.0
  0
LINE
  5
226
100
AcDbEntity
  8
0
 62
7
100
AcDbLine
 10
23.733998
 20
75.113233
 30
0.0
 11
23.747863
 21
75.117325
 31
0.0
  0
SPLINE
  5
227
100
AcDbEntity
  8
0
 62
7
100
AcDbSpline
 70
8
 71
3
 72
8
 73
4
 74
0
 40
0
 40
0
 40
0
 40
0
 40
1
 40
1
 40
1
 40
1
 10
23.747863
 20
75.117325
 30
0.0
 10
24.013378
 20
75.188607
 30
0.0
 10
24.286629
 20
75.032168
 30
0.0
 10
24.359580
 20
74.767108
 30
0.0
  0
SPLINE
  5
228
100
AcDbEntity
  8
0
 62
7
100
AcDbSpline
 70
8
 71
3
 72
8
 73
4
 74
0
 40
0
 40
0
 40
0
 40
0
 40
1
 40
1
 40
1
 40
1
 10
24.359580
 20
74.767108
 30
0.0
 10
24.432390
 20
74.502200
 30
0.0
 10
24.278007
 20
74.228144
 30
0.0
 10
24.013653
 20
74.153334
 30
0.0
  0
SPLINE
  5
229
100
AcDbEntity
  8
0
 62
7
100
AcDbSpline
 70
8
 71
3
 72
8
 73
4
 74
0
 40
0
 40
0
 40
0
 40
0
 40
1
 40
1
 40
1
 40
1
 10
24.013653
 20
74.153334
 30
0.0
 10
23.749468
 20
74.078527
 30
0.0
 10
23.474389
 20
74.230751
 30
0.0
 10
23.397459
 20
74.494326
 30
0.0
  0
LINE
  5
22a
100
AcDbEntity
  8
0
 62
7
100
AcDbLine
 10
23.397459
 20
74.494326
 30
0.0
 11
23.397437
 21
74.494481
 31
0.0
  0
SPLINE
  5
22b
100
AcDbEntity
  8
0
 62
7
100
AcDbSpline
 70
8
 71
3
 72
8
 73
4
 74
0
 40
0
 40
0
 40
0
 40
0
 40
1
 40
1
 40
1
 40
1
 10
24.446621
 20
70.634756
 30
0.0
 10
24.369835
 20
70.898437
 30
0.0
 10
24.520105
 20
71.174690
 30
0.0
 10
24.783190
 20
71.253511
 30
0.0
  0
LINE
  5
22c
100
AcDbEntity
  8
0
 62
7
100
AcDbLine
 10
24.783190
 20
71.253511
 30
0.0
 11
24.797054
 21
71.257604
 31
0.0
  0
SPLINE
  5
22d
100
AcDbEntity
  8
0
 62
7
100
AcDbSpline
 70
8
 71
3
 72
8
 73
4
 74
0
 40
0
 40
0
 40
0
 40
0
 40
1
 40
1
 40
1
 40
1
 10
24.797054
 20
71.257604
 30
0.0
 10
25.062566
 20
71.328882
 30
0.0
 10
25.335817
 20
71.172443
 30
0.0
 10
25.408772
 20
70.907390
 30
0.0
  0
SPLINE
  5
22e
100
AcDbEntity
  8
0
 62
7
100
AcDbSpline
 70
8
 71
3
 72
8
 73
4
 74
0
 40
0
 40
0
 40
0
 40
0
 40
1
 40
1
 40
1
 40
1
 10
25.408772
 20
70.907390
 30
0.0
 10
25.481578
 20
70.642478
 30
0.0
 10
25.327188
 20
70.368426
 30
0.0
 10
25.062844
 20
70.293612
 30
0.0
  0
SPLINE
  5
22f
100
AcDbEntity
  8
0
 62
7
100
AcDbSpline
 70
8
 71
3
 72
8
 73
4
 74
0
 40
0
 40
0
 40
0
 40
0
 40
1
 40
1
 40
1
 40
1
 10
25.062844
 20
70.293612
 30
0.0
 10
24.798659
 20
70.218809
 30
0.0
 10
24.523580
 20
70.371037
 30
0.0
 10
24.446649
 20
70.634608
 30
0.0
  0
LINE
  5
230
100
AcDbEntity
  8
0
 62
7
100
AcDbLine
 10
24.446649
 20
70.634608
 30
0.0
 11
24.446621
 21
70.634756
 31
0.0
  0
LINE
  5
231
100
AcDbEntity
  8
0
 62
7
100
AcDbLine
 10
33.754923
 20
96.914067
 30
0.0
 11
30.804717
 21
96.914067
 31
0.0
  0
SPLINE
  5
232
100
AcDbEntity
  8
0
 62
7
100
AcDbSpline
 70
8
 71
3
 72
8
 73
4
 74
0
 40
0
 40
0
 40
0
 40
0
 40
1
 40
1
 40
1
 40
1
 10
30.804717
 20
96.914067
 30
0.0
 10
29.696717
 20
96.914067
 30
0.0
 10
28.804837
 20
96.021672
 30
0.0
 10
28.804837
 20
94.913669
 30
0.0
  0
LINE
  5
233
100
AcDbEntity
  8
0
 62
7
100
AcDbLine
 10
28.804837
 20
94.913669
 30
0.0
 11
28.804668
 21
73.713921
 31
0.0
  0
SPLINE
  5
234
100
AcDbEntity
  8
0
 62
7
100
AcDbSpline
 70
8
 71
3
 72
8
 73
4
 74
0
 40
0
 40
0
 40
0
 40
0
 40
1
 40
1
 40
1
 40
1
 10
28.804668
 20
73.713921
 30
0.0
 10
28.804668
 20
72.605918
 30
0.0
 10
29.696548
 20
71.713524
 30
0.0
 10
30.804547
 20
71.713524
 30
0.0
  0
LINE
  5
235
100
AcDbEntity
  8
0
 62
7
100
AcDbLine
 10
30.804547
 20
71.713524
 30
0.0
 11
33.754754
 21
71.713524
 31
0.0
  0
SPLINE
  5
236
100
AcDbEntity
  8
0
 62
7
100
AcDbSpline
 70
8
 71
3
 72
8
 73
4
 74
0
 40
0
 40
0
 40
0
 40
0
 40
1
 40
1
 40
1
 40
1
 10
33.754754
 20
71.713524
 30
0.0
 10
33.754680
 20
80.039086
 30
0.0
 10
33.754934
 20
89.343463
 30
0.0
 10
33.754923
 20
96.914067
 30
0.0
  0
LINE
  5
237
100
AcDbEntity
  8
0
 62
7
100
AcDbLine
 10
33.754923
 20
96.914067
 30
0.0
 11
33.754923
 21
96.914067
 31
0.0
  0
SPLINE
  5
238
100
AcDbEntity
  8
0
 62
7
100
AcDbSpline
 70
8
 71
3
 72
8
 73
4
 74
0
 40
0
 40
0
 40
0
 40
0
 40
1
 40
1
 40
1
 40
1
 10
30.554950
 20
77.594305
 30
0.0
 10
30.544437
 20
78.088413
 30
0.0
 10
30.934275
 20
78.498581
 30
0.0
 10
31.428280
 20
78.513112
 30
0.0
  0
LINE
  5
239
100
AcDbEntity
  8
0
 62
7
100
AcDbLine
 10
31.428280
 20
78.513112
 30
0.0
 11
31.454633
 21
78.513818
 31
0.0
  0
SPLINE
  5
23a
100
AcDbEntity
  8
0
 62
7
100
AcDbSpline
 70
8
 71
3
 72
8
 73
4
 74
0
 40
0
 40
0
 40
0
 40
0
 40
1
 40
1
 40
1
 40
1
 10
31.454633
 20
78.513818
 30
0.0
 10
31.949034
 20
78.513659
 30
0.0
 10
32.350739
 20
78.114720
 30
0.0
 10
32.354320
 20
77.620333
 30
0.0
  0
SPLINE
  5
23b
100
AcDbEntity
  8
0
 62
7
100
AcDbSpline
 70
8
 71
3
 72
8
 73
4
 74
0
 40
0
 40
0
 40
0
 40
0
 40
1
 40
1
 40
1
 40
1
 10
32.354320
 20
77.620333
 30
0.0
 10
32.357883
 20
77.125911
 30
0.0
 10
31.961939
 20
76.721186
 30
0.0
 10
31.467552
 20
76.713929
 30
0.0
  0
SPLINE
  5
23c
100
AcDbEntity
  8
0
 62
7
100
AcDbSpline
 70
8
 71
3
 72
8
 73
4
 74
0
 40
0
 40
0
 40
0
 40
0
 40
1
 40
1
 40
1
 40
1
 10
31.467552
 20
76.713929
 30
0.0
 10
30.973094
 20
76.706909
 30
0.0
 10
30.565575
 20
77.100101
 30
0.0
 10
30.554946
 20
77.594495
 30
0.0
  0
LINE
  5
23d
100
AcDbEntity
  8
0
 62
7
100
AcDbLine
 10
30.554946
 20
77.594495
 30
0.0
 11
30.554950
 21
77.594305
 31
0.0
  0
SPLINE
  5
23e
100
AcDbEntity
  8
0
 62
7
100
AcDbSpline
 70
8
 71
3
 72
8
 73
4
 74
0
 40
0
 40
0
 40
0
 40
0
 40
1
 40
1
 40
1
 40
1
 10
30.555119
 20
90.994014
 30
0.0
 10
30.544289
 20
91.488320
 30
0.0
 10
30.934239
 20
91.898805
 30
0.0
 10
31.428450
 20
91.913336
 30
0.0
  0
LINE
  5
23f
100
AcDbEntity
  8
0
 62
7
100
AcDbLine
 10
31.428450
 20
91.913336
 30
0.0
 11
31.454802
 21
91.913689
 31
0.0
  0
SPLINE
  5
240
100
AcDbEntity
  8
0
 62
7
100
AcDbSpline
 70
8
 71
3
 72
8
 73
4
 74
0
 40
0
 40
0
 40
0
 40
0
 40
1
 40
1
 40
1
 40
1
 10
31.454802
 20
91.913689
 30
0.0
 10
31.949203
 20
91.913530
 30
0.0
 10
32.350908
 20
91.514595
 30
0.0
 10
32.354489
 20
91.020204
 30
0.0
  0
SPLINE
  5
241
100
AcDbEntity
  8
0
 62
7
100
AcDbSpline
 70
8
 71
3
 72
8
 73
4
 74
0
 40
0
 40
0
 40
0
 40
0
 40
1
 40
1
 40
1
 40
1
 10
32.354489
 20
91.020204
 30
0.0
 10
32.358052
 20
90.525779
 30
0.0
 10
31.962108
 20
90.121057
 30
0.0
 10
31.467721
 20
90.113801
 30
0.0
  0
SPLINE
  5
242
100
AcDbEntity
  8
0
 62
7
100
AcDbSpline
 70
8
 71
3
 72
8
 73
4
 74
0
 40
0
 40
0
 40
0
 40
0
 40
1
 40
1
 40
1
 40
1
 10
31.467721
 20
90.113801
 30
0.0
 10
30.973461
 20
90.106745
 30
0.0
 10
30.566023
 20
90.499659
 30
0.0
 10
30.555116
 20
90.993848
 30
0.0
  0
LINE
  5
243
100
AcDbEntity
  8
0
 62
7
100
AcDbLine
 10
30.555116
 20
90.993848
 30
0.0
 11
30.555119
 21
90.994014
 31
0.0
  0
SPLINE
  5
244
100
AcDbEntity
  8
0
 62
7
100
AcDbSpline
 70
8
 71
3
 72
8
 73
4
 74
0
 40
0
 40
0
 40
0
 40
0
 40
1
 40
1
 40
1
 40
1
 10
96.357867
 20
11.140797
 30
0.0
 10
69.264776
 20
11.140797
 30
0.0
 10
65.669817
 20
7.733976
 30
0.0
 10
65.669821
 20
11.230195
 30
0.0
  0
SPLINE
  5
245
100
AcDbEntity
  8
0
 62
7
100
AcDbSpline
 70
8
 71
3
 72
8
 73
4
 74
0
 40
0
 40
0
 40
0
 40
0
 40
1
 40
1
 40
1
 40
1
 10
65.669821
 20
11.230195
 30
0.0
 10
65.669821
 20
12.338197
 30
0.0
 10
64.777941
 20
13.230077
 30
0.0
 10
63.669942
 20
13.230077
 30
0.0
  0
LINE
  5
246
100
AcDbEntity
  8
0
 62
7
100
AcDbLine
 10
63.669942
 20
13.230077
 30
0.0
 11
60.708884
 21
13.230077
 31
0.0
  0
LINE
  5
247
100
AcDbEntity
  8
0
 62
7
100
AcDbLine
 10
60.708884
 20
13.230077
 30
0.0
 11
60.708884
 21
5.540623
 31
0.0
  0
SPLINE
  5
248
100
AcDbEntity
  8
0
 62
7
100
AcDbSpline
 70
8
 71
3
 72
8
 73
4
 74
0
 40
0
 40
0
 40
0
 40
0
 40
1
 40
1
 40
1
 40
1
 10
60.708884
 20
5.540623
 30
0.0
 10
60.708884
 20
5.263621
 30
0.0
 10
60.485653
 20
5.040394
 30
0.0
 10
60.208655
 20
5.040394
 30
0.0
  0
LINE
  5
249
100
AcDbEntity
  8
0
 62
7
100
AcDbLine
 10
60.208655
 20
5.040394
 30
0.0
 11
38.208446
 21
5.040394
 31
0.0
  0
SPLINE
  5
24a
100
AcDbEntity
  8
0
 62
7
100
AcDbSpline
 70
8
 71
3
 72
8
 73
4
 74
0
 40
0
 40
0
 40
0
 40
0
 40
1
 40
1
 40
1
 40
1
 10
38.208446
 20
5.040394
 30
0.0
 10
37.931448
 20
5.040394
 30
0.0
 10
37.708735
 20
5.263621
 30
0.0
 10
37.708735
 20
5.540623
 30
0.0
  0
LINE
  5
24b
100
AcDbEntity
  8
0
 62
7
100
AcDbLine
 10
37.708735
 20
5.540623
 30
0.0
 11
37.708735
 21
13.230077
 31
0.0
  0
LINE
  5
24c
100
AcDbEntity
  8
0
 62
7
100
AcDbLine
 10
37.708735
 20
13.230077
 30
0.0
 11
34.958515
 21
13.230077
 31
0.0
  0
SPLINE
  5
24d
100
AcDbEntity
  8
0
 62
7
100
AcDbSpline
 70
8
 71
3
 72
8
 73
4
 74
0
 40
0
 40
0
 40
0
 40
0
 40
1
 40
1
 40
1
 40
1
 10
34.958515
 20
13.230077
 30
0.0
 10
33.850513
 20
13.230077
 30
0.0
 10
32.958637
 20
12.338197
 30
0.0
 10
32.958637
 20
11.230195
 30
0.0
  0
LINE
  5
24e
100
AcDbEntity
  8
0
 62
7
100
AcDbLine
 10
32.958637
 20
11.230195
 30
0.0
 11
32.958637
 21
6.240320
 31
0.0
  0
SPLINE
  5
24f
100
AcDbEntity
  8
0
 62
7
100
AcDbSpline
 70
8
 71
3
 72
8
 73
4
 74
0
 40
0
 40
0
 40
0
 40
0
 40
1
 40
1
 40
1
 40
1
 10
32.958637
 20
6.240320
 30
0.0
 10
32.958637
 20
4.024319
 30
0.0
 10
34.742911
 20
2.240563
 30
0.0
 10
36.958909
 20
2.240563
 30
0.0
  0
LINE
  5
250
100
AcDbEntity
  8
0
 62
7
100
AcDbLine
 10
36.958909
 20
2.240563
 30
0.0
 11
37.908722
 21
2.240563
 31
0.0
  0
SPLINE
  5
251
100
AcDbEntity
  8
0
 62
7
100
AcDbSpline
 70
8
 71
3
 72
8
 73
4
 74
0
 40
0
 40
0
 40
0
 40
0
 40
1
 40
1
 40
1
 40
1
 10
37.908722
 20
2.240563
 30
0.0
 10
60.508728
 20
2.240563
 30
0.0
 10
78.916580
 20
1.071064
 30
0.0
 10
96.357867
 20
11.140797
 30
0.0
  0
LINE
  5
252
100
AcDbEntity
  8
0
 62
7
100
AcDbLine
 10
96.357867
 20
11.140797
 30
0.0
 11
96.357867
 21
11.140797
 31
0.0
  0
SPLINE
  5
253
100
AcDbEntity
  8
0
 62
7
100
AcDbSpline
 70
8
 71
3
 72
8
 73
4
 74
0
 40
0
 40
0
 40
0
 40
0
 40
1
 40
1
 40
1
 40
1
 10
63.708702
 20
11.146971
 30
0.0
 10
63.712265
 20
10.652542
 30
0.0
 10
63.316317
 20
10.247820
 30
0.0
 10
62.821931
 20
10.240567
 30
0.0
  0
SPLINE
  5
254
100
AcDbEntity
  8
0
 62
7
100
AcDbSpline
 70
8
 71
3
 72
8
 73
4
 74
0
 40
0
 40
0
 40
0
 40
0
 40
1
 40
1
 40
1
 40
1
 10
62.821931
 20
10.240567
 30
0.0
 10
62.327275
 20
10.233229
 30
0.0
 10
61.919439
 20
10.626531
 30
0.0
 10
61.908810
 20
11.121130
 30
0.0
  0
SPLINE
  5
255
100
AcDbEntity
  8
0
 62
7
100
AcDbSpline
 70
8
 71
3
 72
8
 73
4
 74
0
 40
0
 40
0
 40
0
 40
0
 40
1
 40
1
 40
1
 40
1
 10
61.908810
 20
11.121130
 30
0.0
 10
61.898262
 20
11.615432
 30
0.0
 10
62.288449
 20
12.025685
 30
0.0
 10
62.782659
 20
12.039937
 30
0.0
  0
LINE
  5
256
100
AcDbEntity
  8
0
 62
7
100
AcDbLine
 10
62.782659
 20
12.039937
 30
0.0
 11
62.808483
 21
12.040290
 31
0.0
  0
SPLINE
  5
257
100
AcDbEntity
  8
0
 62
7
100
AcDbSpline
 70
8
 71
3
 72
8
 73
4
 74
0
 40
0
 40
0
 40
0
 40
0
 40
1
 40
1
 40
1
 40
1
 10
62.808483
 20
12.040290
 30
0.0
 10
63.303088
 20
12.040417
 30
0.0
 10
63.705107
 20
11.641397
 30
0.0
 10
63.708688
 20
11.146809
 30
0.0
  0
LINE
  5
258
100
AcDbEntity
  8
0
 62
7
100
AcDbLine
 10
63.708688
 20
11.146809
 30
0.0
 11
63.708702
 21
11.146971
 31
0.0
  0
SPLINE
  5
259
100
AcDbEntity
  8
0
 62
7
100
AcDbSpline
 70
8
 71
3
 72
8
 73
4
 74
0
 40
0
 40
0
 40
0
 40
0
 40
1
 40
1
 40
1
 40
1
 10
36.508806
 20
11.146971
 30
0.0
 10
36.512369
 20
10.652348
 30
0.0
 10
36.116111
 20
10.247542
 30
0.0
 10
35.621523
 20
10.240567
 30
0.0
  0
SPLINE
  5
25a
100
AcDbEntity
  8
0
 62
7
100
AcDbSpline
 70
8
 71
3
 72
8
 73
4
 74
0
 40
0
 40
0
 40
0
 40
0
 40
1
 40
1
 40
1
 40
1
 10
35.621523
 20
10.240567
 30
0.0
 10
35.127066
 20
10.233547
 30
0.0
 10
34.719547
 20
10.626739
 30
0.0
 10
34.708918
 20
11.121130
 30
0.0
  0
SPLINE
  5
25b
100
AcDbEntity
  8
0
 62
7
100
AcDbSpline
 70
8
 71
3
 72
8
 73
4
 74
0
 40
0
 40
0
 40
0
 40
0
 40
1
 40
1
 40
1
 40
1
 10
34.708918
 20
11.121130
 30
0.0
 10
34.698370
 20
11.615432
 30
0.0
 10
35.088556
 20
12.025681
 30
0.0
 10
35.582767
 20
12.039937
 30
0.0
  0
LINE
  5
25c
100
AcDbEntity
  8
0
 62
7
100
AcDbLine
 10
35.582767
 20
12.039937
 30
0.0
 11
35.608626
 21
12.040290
 31
0.0
  0
SPLINE
  5
25d
100
AcDbEntity
  8
0
 62
7
100
AcDbSpline
 70
8
 71
3
 72
8
 73
4
 74
0
 40
0
 40
0
 40
0
 40
0
 40
1
 40
1
 40
1
 40
1
 10
35.608626
 20
12.040290
 30
0.0
 10
36.103228
 20
12.040417
 30
0.0
 10
36.505250
 20
11.641397
 30
0.0
 10
36.508827
 20
11.146809
 30
0.0
  0
LINE
  5
25e
100
AcDbEntity
  8
0
 62
7
100
AcDbLine
 10
36.508827
 20
11.146809
 30
0.0
 11
36.508806
 21
11.146971
 31
0.0
  0
SPLINE
  5
25f
100
AcDbEntity
  8
0
 62
7
100
AcDbSpline
 70
8
 71
3
 72
8
 73
4
 74
0
 40
0
 40
0
 40
0
 40
0
 40
1
 40
1
 40
1
 40
1
 10
42.747065
 20
19.291207
 30
0.0
 10
39.086705
 20
18.070336
 30
0.0
 10
38.419746
 20
15.199166
 30
0.0
 10
39.078965
 20
12.611189
 30
0.0
  0
SPLINE
  5
260
100
AcDbEntity
  8
0
 62
7
100
AcDbSpline
 70
8
 71
3
 72
8
 73
4
 74
0
 40
0
 40
0
 40
0
 40
0
 40
1
 40
1
 40
1
 40
1
 10
39.078965
 20
12.611189
 30
0.0
 10
39.738187
 20
10.023218
 30
0.0
 10
42.200975
 20
7.918081
 30
0.0
 10
45.511135
 20
8.846879
 30
0.0
  0
SPLINE
  5
261
100
AcDbEntity
  8
0
 62
7
100
AcDbSpline
 70
8
 71
3
 72
8
 73
4
 74
0
 40
0
 40
0
 40
0
 40
0
 40
1
 40
1
 40
1
 40
1
 10
45.511135
 20
8.846879
 30
0.0
 10
46.861048
 20
9.225654
 30
0.0
 10
48.977573
 20
10.399583
 30
0.0
 10
51.248173
 20
11.683537
 30
0.0
  0
SPLINE
  5
262
100
AcDbEntity
  8
0
 62
7
100
AcDbSpline
 70
8
 71
3
 72
8
 73
4
 74
0
 40
0
 40
0
 40
0
 40
0
 40
1
 40
1
 40
1
 40
1
 10
51.248173
 20
11.683537
 30
0.0
 10
55.594888
 20
14.141456
 30
0.0
 10
59.739047
 20
15.354237
 30
0.0
 10
63.989291
 20
16.429484
 30
0.0
  0
SPLINE
  5
263
100
AcDbEntity
  8
0
 62
7
100
AcDbSpline
 70
8
 71
3
 72
8
 73
4
 74
0
 40
0
 40
0
 40
0
 40
0
 40
1
 40
1
 40
1
 40
1
 10
63.989291
 20
16.429484
 30
0.0
 10
69.006426
 20
17.698745
 30
0.0
 10
74.171384
 20
18.592346
 30
0.0
 10
79.991819
 20
18.458022
 30
0.0
  0
SPLINE
  5
264
100
AcDbEntity
  8
0
 62
7
100
AcDbSpline
 70
8
 71
3
 72
8
 73
4
 74
0
 40
0
 40
0
 40
0
 40
0
 40
1
 40
1
 40
1
 40
1
 10
79.991819
 20
18.458022
 30
0.0
 10
82.799483
 20
18.393227
 30
0.0
 10
84.891934
 20
18.958463
 30
0.0
 10
85.228999
 20
19.108714
 30
0.0
  0
SPLINE
  5
265
100
AcDbEntity
  8
0
 62
7
100
AcDbSpline
 70
8
 71
3
 72
8
 73
4
 74
0
 40
0
 40
0
 40
0
 40
0
 40
1
 40
1
 40
1
 40
1
 10
85.228999
 20
19.108714
 30
0.0
 10
89.483522
 20
21.005247
 30
0.0
 10
89.353026
 20
24.176476
 30
0.0
 10
88.894312
 20
25.924937
 30
0.0
  0
SPLINE
  5
266
100
AcDbEntity
  8
0
 62
7
100
AcDbSpline
 70
8
 71
3
 72
8
 73
4
 74
0
 40
0
 40
0
 40
0
 40
0
 40
1
 40
1
 40
1
 40
1
 10
88.894312
 20
25.924937
 30
0.0
 10
88.435601
 20
27.673401
 30
0.0
 10
86.108055
 20
30.932733
 30
0.0
 10
82.236283
 20
29.765630
 30
0.0
  0
SPLINE
  5
267
100
AcDbEntity
  8
0
 62
7
100
AcDbSpline
 70
8
 71
3
 72
8
 73
4
 74
0
 40
0
 40
0
 40
0
 40
0
 40
1
 40
1
 40
1
 40
1
 10
82.236283
 20
29.765630
 30
0.0
 10
79.485311
 20
28.936382
 30
0.0
 10
78.924006
 20
28.227199
 30
0.0
 10
77.443501
 20
27.157071
 30
0.0
  0
SPLINE
  5
268
100
AcDbEntity
  8
0
 62
7
100
AcDbSpline
 70
8
 71
3
 72
8
 73
4
 74
0
 40
0
 40
0
 40
0
 40
0
 40
1
 40
1
 40
1
 40
1
 10
77.443501
 20
27.157071
 30
0.0
 10
73.943902
 20
24.627510
 30
0.0
 10
67.496118
 20
24.958166
 30
0.0
 10
61.793582
 20
23.792502
 30
0.0
  0
SPLINE
  5
269
100
AcDbEntity
  8
0
 62
7
100
AcDbSpline
 70
8
 71
3
 72
8
 73
4
 74
0
 40
0
 40
0
 40
0
 40
0
 40
1
 40
1
 40
1
 40
1
 10
61.793582
 20
23.792502
 30
0.0
 10
56.665714
 20
22.744306
 30
0.0
 10
52.337401
 20
20.092288
 30
0.0
 10
47.939840
 20
19.777476
 30
0.0
  0
SPLINE
  5
26a
100
AcDbEntity
  8
0
 62
7
100
AcDbSpline
 70
8
 71
3
 72
8
 73
4
 74
0
 40
0
 40
0
 40
0
 40
0
 40
1
 40
1
 40
1
 40
1
 10
47.939840
 20
19.777476
 30
0.0
 10
45.590630
 20
19.609300
 30
0.0
 10
44.050185
 20
19.725851
 30
0.0
 10
42.747065
 20
19.291207
 30
0.0
  0
LINE
  5
26b
100
AcDbEntity
  8
0
 62
7
100
AcDbLine
 10
42.747065
 20
19.291207
 30
0.0
 11
42.747065
 21
19.291207
 31
0.0
  0
SPLINE
  5
26c
100
AcDbEntity
  8
0
 62
7
100
AcDbSpline
 70
8
 71
3
 72
8
 73
4
 74
0
 40
0
 40
0
 40
0
 40
0
 40
1
 40
1
 40
1
 40
1
 10
43.107671
 20
17.623952
 30
0.0
 10
45.112411
 20
18.208347
 30
0.0
 10
47.213089
 20
17.065614
 30
0.0
 10
47.811665
 20
15.065061
 30
0.0
  0
LINE
  5
26d
100
AcDbEntity
  8
0
 62
7
100
AcDbLine
 10
47.811665
 20
15.065061
 30
0.0
 11
47.841863
 21
14.959203
 31
0.0
  0
SPLINE
  5
26e
100
AcDbEntity
  8
0
 62
7
100
AcDbSpline
 70
8
 71
3
 72
8
 73
4
 74
0
 40
0
 40
0
 40
0
 40
0
 40
1
 40
1
 40
1
 40
1
 10
47.841863
 20
14.959203
 30
0.0
 10
48.382168
 20
12.942469
 30
0.0
 10
47.194205
 20
10.867565
 30
0.0
 10
45.181471
 20
10.312542
 30
0.0
  0
SPLINE
  5
26f
100
AcDbEntity
  8
0
 62
7
100
AcDbSpline
 70
8
 71
3
 72
8
 73
4
 74
0
 40
0
 40
0
 40
0
 40
0
 40
1
 40
1
 40
1
 40
1
 10
45.181471
 20
10.312542
 30
0.0
 10
43.168779
 20
9.757573
 30
0.0
 10
41.085303
 20
10.930314
 30
0.0
 10
40.515580
 20
12.938881
 30
0.0
  0
SPLINE
  5
270
100
AcDbEntity
  8
0
 62
7
100
AcDbSpline
 70
8
 71
3
 72
8
 73
4
 74
0
 40
0
 40
0
 40
0
 40
0
 40
1
 40
1
 40
1
 40
1
 10
40.515580
 20
12.938881
 30
0.0
 10
39.945804
 20
14.947554
 30
0.0
 10
41.103397
 20
17.039681
 30
0.0
 10
43.107883
 20
17.624005
 30
0.0
  0
LINE
  5
271
100
AcDbEntity
  8
0
 62
7
100
AcDbLine
 10
43.107883
 20
17.624005
 30
0.0
 11
43.107671
 21
17.623952
 31
0.0
  0
SPLINE
  5
272
100
AcDbEntity
  8
0
 62
7
100
AcDbSpline
 70
8
 71
3
 72
8
 73
4
 74
0
 40
0
 40
0
 40
0
 40
0
 40
1
 40
1
 40
1
 40
1
 10
82.570452
 20
28.197978
 30
0.0
 10
84.575192
 20
28.782370
 30
0.0
 10
86.675863
 20
27.639640
 30
0.0
 10
87.274439
 20
25.639084
 30
0.0
  0
LINE
  5
273
100
AcDbEntity
  8
0
 62
7
100
AcDbLine
 10
87.274439
 20
25.639084
 30
0.0
 11
87.304637
 21
25.533222
 31
0.0
  0
SPLINE
  5
274
100
AcDbEntity
  8
0
 62
7
100
AcDbSpline
 70
8
 71
3
 72
8
 73
4
 74
0
 40
0
 40
0
 40
0
 40
0
 40
1
 40
1
 40
1
 40
1
 10
87.304637
 20
25.533222
 30
0.0
 10
87.844948
 20
23.516492
 30
0.0
 10
86.656982
 20
21.441587
 30
0.0
 10
84.644252
 20
20.886569
 30
0.0
  0
SPLINE
  5
275
100
AcDbEntity
  8
0
 62
7
100
AcDbSpline
 70
8
 71
3
 72
8
 73
4
 74
0
 40
0
 40
0
 40
0
 40
0
 40
1
 40
1
 40
1
 40
1
 10
84.644252
 20
20.886569
 30
0.0
 10
82.631553
 20
20.331599
 30
0.0
 10
80.548084
 20
21.504333
 30
0.0
 10
79.978361
 20
23.512904
 30
0.0
  0
SPLINE
  5
276
100
AcDbEntity
  8
0
 62
7
100
AcDbSpline
 70
8
 71
3
 72
8
 73
4
 74
0
 40
0
 40
0
 40
0
 40
0
 40
1
 40
1
 40
1
 40
1
 10
79.978361
 20
23.512904
 30
0.0
 10
79.408589
 20
25.521577
 30
0.0
 10
80.566174
 20
27.613707
 30
0.0
 10
82.570664
 20
28.198031
 30
0.0
  0
LINE
  5
277
100
AcDbEntity
  8
0
 62
7
100
AcDbLine
 10
82.570664
 20
28.198031
 30
0.0
 11
82.570452
 21
28.197978
 31
0.0
  0
SPLINE
  5
278
100
AcDbEntity
  8
0
 62
7
100
AcDbSpline
 70
8
 71
3
 72
8
 73
4
 74
0
 40
0
 40
0
 40
0
 40
0
 40
1
 40
1
 40
1
 40
1
 10
77.698482
 20
23.477132
 30
0.0
 10
77.962350
 20
23.553971
 30
0.0
 10
78.238766
 20
23.403423
 30
0.0
 10
78.317375
 20
23.140074
 30
0.0
  0
LINE
  5
279
100
AcDbEntity
  8
0
 62
7
100
AcDbLine
 10
78.317375
 20
23.140074
 30
0.0
 11
78.321115
 21
23.126104
 31
0.0
  0
SPLINE
  5
27a
100
AcDbEntity
  8
0
 62
7
100
AcDbSpline
 70
8
 71
3
 72
8
 73
4
 74
0
 40
0
 40
0
 40
0
 40
0
 40
1
 40
1
 40
1
 40
1
 10
78.321115
 20
23.126104
 30
0.0
 10
78.392016
 20
22.860906
 30
0.0
 10
78.235852
 20
22.588141
 30
0.0
 10
77.971261
 20
22.515021
 30
0.0
  0
SPLINE
  5
27b
100
AcDbEntity
  8
0
 62
7
100
AcDbSpline
 70
8
 71
3
 72
8
 73
4
 74
0
 40
0
 40
0
 40
0
 40
0
 40
1
 40
1
 40
1
 40
1
 10
77.971261
 20
22.515021
 30
0.0
 10
77.706437
 20
22.441872
 30
0.0
 10
77.432202
 20
22.596037
 30
0.0
 10
77.357120
 20
22.860313
 30
0.0
  0
SPLINE
  5
27c
100
AcDbEntity
  8
0
 62
7
100
AcDbSpline
 70
8
 71
3
 72
8
 73
4
 74
0
 40
0
 40
0
 40
0
 40
0
 40
1
 40
1
 40
1
 40
1
 10
77.357120
 20
22.860313
 30
0.0
 10
77.281936
 20
23.124809
 30
0.0
 10
77.434438
 20
23.400375
 30
0.0
 10
77.698479
 20
23.477139
 30
0.0
  0
LINE
  5
27d
100
AcDbEntity
  8
0
 62
7
100
AcDbLine
 10
77.698479
 20
23.477139
 30
0.0
 11
77.698482
 21
23.477132
 31
0.0
  0
SPLINE
  5
27e
100
AcDbEntity
  8
0
 62
7
100
AcDbSpline
 70
8
 71
3
 72
8
 73
4
 74
0
 40
0
 40
0
 40
0
 40
0
 40
1
 40
1
 40
1
 40
1
 10
49.826696
 20
16.008542
 30
0.0
 10
50.090376
 20
16.085335
 30
0.0
 10
50.366630
 20
15.935062
 30
0.0
 10
50.445447
 20
15.671981
 30
0.0
  0
LINE
  5
27f
100
AcDbEntity
  8
0
 62
7
100
AcDbLine
 10
50.445447
 20
15.671981
 30
0.0
 11
50.449681
 21
15.657588
 31
0.0
  0
SPLINE
  5
280
100
AcDbEntity
  8
0
 62
7
100
AcDbSpline
 70
8
 71
3
 72
8
 73
4
 74
0
 40
0
 40
0
 40
0
 40
0
 40
1
 40
1
 40
1
 40
1
 10
50.449681
 20
15.657588
 30
0.0
 10
50.520635
 20
15.392196
 30
0.0
 10
50.364188
 20
15.119262
 30
0.0
 10
50.099323
 20
15.046368
 30
0.0
  0
SPLINE
  5
281
100
AcDbEntity
  8
0
 62
7
100
AcDbSpline
 70
8
 71
3
 72
8
 73
4
 74
0
 40
0
 40
0
 40
0
 40
0
 40
1
 40
1
 40
1
 40
1
 10
50.099323
 20
15.046368
 30
0.0
 10
49.834608
 20
14.973611
 30
0.0
 10
49.560715
 20
15.127715
 30
0.0
 10
49.485683
 20
15.391790
 30
0.0
  0
SPLINE
  5
282
100
AcDbEntity
  8
0
 62
7
100
AcDbSpline
 70
8
 71
3
 72
8
 73
4
 74
0
 40
0
 40
0
 40
0
 40
0
 40
1
 40
1
 40
1
 40
1
 10
49.485683
 20
15.391790
 30
0.0
 10
49.410555
 20
15.656099
 30
0.0
 10
49.562772
 20
15.931506
 30
0.0
 10
49.826544
 20
16.008489
 30
0.0
  0
LINE
  5
283
100
AcDbEntity
  8
0
 62
7
100
AcDbLine
 10
49.826544
 20
16.008489
 30
0.0
 11
49.826696
 21
16.008542
 31
0.0
  0
SPLINE
  5
284
100
AcDbEntity
  8
0
 62
7
100
AcDbSpline
 70
8
 71
3
 72
8
 73
4
 74
0
 40
0
 40
0
 40
0
 40
0
 40
1
 40
1
 40
1
 40
1
 10
53.690665
 20
17.043893
 30
0.0
 10
53.954342
 20
17.120682
 30
0.0
 10
54.230603
 20
16.970409
 30
0.0
 10
54.309420
 20
16.707332
 30
0.0
  0
LINE
  5
285
100
AcDbEntity
  8
0
 62
7
100
AcDbLine
 10
54.309420
 20
16.707332
 30
0.0
 11
54.313160
 21
16.693362
 31
0.0
  0
SPLINE
  5
286
100
AcDbEntity
  8
0
 62
7
100
AcDbSpline
 70
8
 71
3
 72
8
 73
4
 74
0
 40
0
 40
0
 40
0
 40
0
 40
1
 40
1
 40
1
 40
1
 10
54.313160
 20
16.693362
 30
0.0
 10
54.384393
 20
16.428044
 30
0.0
 10
54.228232
 20
16.154948
 30
0.0
 10
53.963437
 20
16.081782
 30
0.0
  0
SPLINE
  5
287
100
AcDbEntity
  8
0
 62
7
100
AcDbSpline
 70
8
 71
3
 72
8
 73
4
 74
0
 40
0
 40
0
 40
0
 40
0
 40
1
 40
1
 40
1
 40
1
 10
53.963437
 20
16.081782
 30
0.0
 10
53.698430
 20
16.008581
 30
0.0
 10
53.424032
 20
16.163023
 30
0.0
 10
53.349165
 20
16.427572
 30
0.0
  0
SPLINE
  5
288
100
AcDbEntity
  8
0
 62
7
100
AcDbSpline
 70
8
 71
3
 72
8
 73
4
 74
0
 40
0
 40
0
 40
0
 40
0
 40
1
 40
1
 40
1
 40
1
 10
53.349165
 20
16.427572
 30
0.0
 10
53.274305
 20
16.691947
 30
0.0
 10
53.426815
 20
16.967188
 30
0.0
 10
53.690661
 20
17.043904
 30
0.0
  0
LINE
  5
289
100
AcDbEntity
  8
0
 62
7
100
AcDbLine
 10
53.690661
 20
17.043904
 30
0.0
 11
53.690665
 21
17.043893
 31
0.0
  0
SPLINE
  5
28a
100
AcDbEntity
  8
0
 62
7
100
AcDbSpline
 70
8
 71
3
 72
8
 73
4
 74
0
 40
0
 40
0
 40
0
 40
0
 40
1
 40
1
 40
1
 40
1
 10
57.554137
 20
18.079107
 30
0.0
 10
57.817814
 20
18.155892
 30
0.0
 10
58.094074
 20
18.005623
 30
0.0
 10
58.172892
 20
17.742542
 30
0.0
  0
LINE
  5
28b
100
AcDbEntity
  8
0
 62
7
100
AcDbLine
 10
58.172892
 20
17.742542
 30
0.0
 11
58.176984
 21
17.728678
 31
0.0
  0
SPLINE
  5
28c
100
AcDbEntity
  8
0
 62
7
100
AcDbSpline
 70
8
 71
3
 72
8
 73
4
 74
0
 40
0
 40
0
 40
0
 40
0
 40
1
 40
1
 40
1
 40
1
 10
58.176984
 20
17.728678
 30
0.0
 10
58.248263
 20
17.463163
 30
0.0
 10
58.091820
 20
17.189908
 30
0.0
 10
57.826764
 20
17.116957
 30
0.0
  0
SPLINE
  5
28d
100
AcDbEntity
  8
0
 62
7
100
AcDbSpline
 70
8
 71
3
 72
8
 73
4
 74
0
 40
0
 40
0
 40
0
 40
0
 40
1
 40
1
 40
1
 40
1
 10
57.826764
 20
17.116957
 30
0.0
 10
57.561856
 20
17.044150
 30
0.0
 10
57.287796
 20
17.198533
 30
0.0
 10
57.212986
 20
17.462884
 30
0.0
  0
SPLINE
  5
28e
100
AcDbEntity
  8
0
 62
7
100
AcDbSpline
 70
8
 71
3
 72
8
 73
4
 74
0
 40
0
 40
0
 40
0
 40
0
 40
1
 40
1
 40
1
 40
1
 10
57.212986
 20
17.462884
 30
0.0
 10
57.138183
 20
17.727069
 30
0.0
 10
57.290410
 20
18.002152
 30
0.0
 10
57.553989
 20
18.079082
 30
0.0
  0
LINE
  5
28f
100
AcDbEntity
  8
0
 62
7
100
AcDbLine
 10
57.553989
 20
18.079082
 30
0.0
 11
57.554137
 21
18.079107
 31
0.0
  0
SPLINE
  5
290
100
AcDbEntity
  8
0
 62
7
100
AcDbSpline
 70
8
 71
3
 72
8
 73
4
 74
0
 40
0
 40
0
 40
0
 40
0
 40
1
 40
1
 40
1
 40
1
 10
73.834608
 20
22.441446
 30
0.0
 10
74.098285
 20
22.518235
 30
0.0
 10
74.374542
 20
22.367965
 30
0.0
 10
74.453360
 20
22.104885
 30
0.0
  0
LINE
  5
291
100
AcDbEntity
  8
0
 62
7
100
AcDbLine
 10
74.453360
 20
22.104885
 30
0.0
 11
74.457452
 21
22.091020
 31
0.0
  0
SPLINE
  5
292
100
AcDbEntity
  8
0
 62
7
100
AcDbSpline
 70
8
 71
3
 72
8
 73
4
 74
0
 40
0
 40
0
 40
0
 40
0
 40
1
 40
1
 40
1
 40
1
 10
74.457452
 20
22.091020
 30
0.0
 10
74.528735
 20
21.825505
 30
0.0
 10
74.372295
 20
21.552254
 30
0.0
 10
74.107235
 20
21.479303
 30
0.0
  0
SPLINE
  5
293
100
AcDbEntity
  8
0
 62
7
100
AcDbSpline
 70
8
 71
3
 72
8
 73
4
 74
0
 40
0
 40
0
 40
0
 40
0
 40
1
 40
1
 40
1
 40
1
 10
74.107235
 20
21.479303
 30
0.0
 10
73.842327
 20
21.406493
 30
0.0
 10
73.568271
 20
21.560876
 30
0.0
 10
73.493461
 20
21.825230
 30
0.0
  0
SPLINE
  5
294
100
AcDbEntity
  8
0
 62
7
100
AcDbSpline
 70
8
 71
3
 72
8
 73
4
 74
0
 40
0
 40
0
 40
0
 40
0
 40
1
 40
1
 40
1
 40
1
 10
73.493461
 20
21.825230
 30
0.0
 10
73.418655
 20
22.089415
 30
0.0
 10
73.570878
 20
22.364494
 30
0.0
 10
73.834453
 20
22.441424
 30
0.0
  0
LINE
  5
295
100
AcDbEntity
  8
0
 62
7
100
AcDbLine
 10
73.834453
 20
22.441424
 30
0.0
 11
73.834608
 21
22.441446
 31
0.0
  0
SPLINE
  5
296
100
AcDbEntity
  8
0
 62
7
100
AcDbSpline
 70
8
 71
3
 72
8
 73
4
 74
0
 40
0
 40
0
 40
0
 40
0
 40
1
 40
1
 40
1
 40
1
 10
69.974883
 20
21.392262
 30
0.0
 10
70.238563
 20
21.469048
 30
0.0
 10
70.514817
 20
21.318778
 30
0.0
 10
70.593638
 20
21.055694
 30
0.0
  0
LINE
  5
297
100
AcDbEntity
  8
0
 62
7
100
AcDbLine
 10
70.593638
 20
21.055694
 30
0.0
 11
70.597730
 21
21.041830
 31
0.0
  0
SPLINE
  5
298
100
AcDbEntity
  8
0
 62
7
100
AcDbSpline
 70
8
 71
3
 72
8
 73
4
 74
0
 40
0
 40
0
 40
0
 40
0
 40
1
 40
1
 40
1
 40
1
 10
70.597730
 20
21.041830
 30
0.0
 10
70.669009
 20
20.776318
 30
0.0
 10
70.512570
 20
20.503067
 30
0.0
 10
70.247517
 20
20.430112
 30
0.0
  0
SPLINE
  5
299
100
AcDbEntity
  8
0
 62
7
100
AcDbSpline
 70
8
 71
3
 72
8
 73
4
 74
0
 40
0
 40
0
 40
0
 40
0
 40
1
 40
1
 40
1
 40
1
 10
70.247517
 20
20.430112
 30
0.0
 10
69.982605
 20
20.357306
 30
0.0
 10
69.708553
 20
20.511696
 30
0.0
 10
69.633739
 20
20.776040
 30
0.0
  0
SPLINE
  5
29a
100
AcDbEntity
  8
0
 62
7
100
AcDbSpline
 70
8
 71
3
 72
8
 73
4
 74
0
 40
0
 40
0
 40
0
 40
0
 40
1
 40
1
 40
1
 40
1
 10
69.633739
 20
20.776040
 30
0.0
 10
69.558936
 20
21.040225
 30
0.0
 10
69.711164
 20
21.315303
 30
0.0
 10
69.974735
 20
21.392234
 30
0.0
  0
LINE
  5
29b
100
AcDbEntity
  8
0
 62
7
100
AcDbLine
 10
69.974735
 20
21.392234
 30
0.0
 11
69.974883
 21
21.392262
 31
0.0
  0
LINE
  5
29c
100
AcDbEntity
  8
0
 62
7
100
AcDbLine
 10
96.254190
 20
12.083959
 30
0.0
 11
96.254190
 21
15.034166
 31
0.0
  0
SPLINE
  5
29d
100
AcDbEntity
  8
0
 62
7
100
AcDbSpline
 70
8
 71
3
 72
8
 73
4
 74
0
 40
0
 40
0
 40
0
 40
0
 40
1
 40
1
 40
1
 40
1
 10
96.254190
 20
15.034166
 30
0.0
 10
96.254190
 20
16.142168
 30
0.0
 10
95.361795
 20
17.034048
 30
0.0
 10
94.253793
 20
17.034048
 30
0.0
  0
LINE
  5
29e
100
AcDbEntity
  8
0
 62
7
100
AcDbLine
 10
94.253793
 20
17.034048
 30
0.0
 11
73.054048
 21
17.034217
 31
0.0
  0
SPLINE
  5
29f
100
AcDbEntity
  8
0
 62
7
100
AcDbSpline
 70
8
 71
3
 72
8
 73
4
 74
0
 40
0
 40
0
 40
0
 40
0
 40
1
 40
1
 40
1
 40
1
 10
73.054048
 20
17.034217
 30
0.0
 10
71.946045
 20
17.034217
 30
0.0
 10
71.053650
 20
16.142338
 30
0.0
 10
71.053650
 20
15.034335
 30
0.0
  0
LINE
  5
2a0
100
AcDbEntity
  8
0
 62
7
100
AcDbLine
 10
71.053650
 20
15.034335
 30
0.0
 11
71.053650
 21
12.084129
 31
0.0
  0
SPLINE
  5
2a1
100
AcDbEntity
  8
0
 62
7
100
AcDbSpline
 70
8
 71
3
 72
8
 73
4
 74
0
 40
0
 40
0
 40
0
 40
0
 40
1
 40
1
 40
1
 40
1
 10
71.053650
 20
12.084129
 30
0.0
 10
79.379213
 20
12.084203
 30
0.0
 10
88.683587
 20
12.083949
 30
0.0
 10
96.254190
 20
12.083959
 30
0.0
  0
LINE
  5
2a2
100
AcDbEntity
  8
0
 62
7
100
AcDbLine
 10
96.254190
 20
12.083959
 30
0.0
 11
96.254190
 21
12.083959
 31
0.0
  0
SPLINE
  5
2a3
100
AcDbEntity
  8
0
 62
7
100
AcDbSpline
 70
8
 71
3
 72
8
 73
4
 74
0
 40
0
 40
0
 40
0
 40
0
 40
1
 40
1
 40
1
 40
1
 10
76.934432
 20
15.283933
 30
0.0
 10
77.428540
 20
15.294446
 30
0.0
 10
77.838708
 20
14.904608
 30
0.0
 10
77.853239
 20
14.410602
 30
0.0
  0
LINE
  5
2a4
100
AcDbEntity
  8
0
 62
7
100
AcDbLine
 10
77.853239
 20
14.410602
 30
0.0
 11
77.853945
 21
14.384250
 31
0.0
  0
SPLINE
  5
2a5
100
AcDbEntity
  8
0
 62
7
100
AcDbSpline
 70
8
 71
3
 72
8
 73
4
 74
0
 40
0
 40
0
 40
0
 40
0
 40
1
 40
1
 40
1
 40
1
 10
77.853945
 20
14.384250
 30
0.0
 10
77.853786
 20
13.889849
 30
0.0
 10
77.454847
 20
13.488144
 30
0.0
 10
76.960460
 20
13.484563
 30
0.0
  0
SPLINE
  5
2a6
100
AcDbEntity
  8
0
 62
7
100
AcDbSpline
 70
8
 71
3
 72
8
 73
4
 74
0
 40
0
 40
0
 40
0
 40
0
 40
1
 40
1
 40
1
 40
1
 10
76.960460
 20
13.484563
 30
0.0
 10
76.466037
 20
13.481000
 30
0.0
 10
76.061313
 20
13.876944
 30
0.0
 10
76.054056
 20
14.371331
 30
0.0
  0
SPLINE
  5
2a7
100
AcDbEntity
  8
0
 62
7
100
AcDbSpline
 70
8
 71
3
 72
8
 73
4
 74
0
 40
0
 40
0
 40
0
 40
0
 40
1
 40
1
 40
1
 40
1
 10
76.054056
 20
14.371331
 30
0.0
 10
76.047036
 20
14.865789
 30
0.0
 10
76.440228
 20
15.273307
 30
0.0
 10
76.934622
 20
15.283937
 30
0.0
  0
LINE
  5
2a8
100
AcDbEntity
  8
0
 62
7
100
AcDbLine
 10
76.934622
 20
15.283937
 30
0.0
 11
76.934432
 21
15.283933
 31
0.0
  0
SPLINE
  5
2a9
100
AcDbEntity
  8
0
 62
7
100
AcDbSpline
 70
8
 71
3
 72
8
 73
4
 74
0
 40
0
 40
0
 40
0
 40
0
 40
1
 40
1
 40
1
 40
1
 10
90.334137
 20
15.283764
 30
0.0
 10
90.828443
 20
15.294594
 30
0.0
 10
91.238929
 20
14.904643
 30
0.0
 10
91.253460
 20
14.410433
 30
0.0
  0
LINE
  5
2aa
100
AcDbEntity
  8
0
 62
7
100
AcDbLine
 10
91.253460
 20
14.410433
 30
0.0
 11
91.253813
 21
14.384080
 31
0.0
  0
SPLINE
  5
2ab
100
AcDbEntity
  8
0
 62
7
100
AcDbSpline
 70
8
 71
3
 72
8
 73
4
 74
0
 40
0
 40
0
 40
0
 40
0
 40
1
 40
1
 40
1
 40
1
 10
91.253813
 20
14.384080
 30
0.0
 10
91.253654
 20
13.889679
 30
0.0
 10
90.854718
 20
13.487974
 30
0.0
 10
90.360328
 20
13.484394
 30
0.0
  0
SPLINE
  5
2ac
100
AcDbEntity
  8
0
 62
7
100
AcDbSpline
 70
8
 71
3
 72
8
 73
4
 74
0
 40
0
 40
0
 40
0
 40
0
 40
1
 40
1
 40
1
 40
1
 10
90.360328
 20
13.484394
 30
0.0
 10
89.865902
 20
13.480831
 30
0.0
 10
89.461181
 20
13.876775
 30
0.0
 10
89.453924
 20
14.371162
 30
0.0
  0
SPLINE
  5
2ad
100
AcDbEntity
  8
0
 62
7
100
AcDbSpline
 70
8
 71
3
 72
8
 73
4
 74
0
 40
0
 40
0
 40
0
 40
0
 40
1
 40
1
 40
1
 40
1
 10
89.453924
 20
14.371162
 30
0.0
 10
89.446868
 20
14.865422
 30
0.0
 10
89.839782
 20
15.272859
 30
0.0
 10
90.333972
 20
15.283767
 30
0.0
  0
LINE
  5
2ae
100
AcDbEntity
  8
0
 62
7
100
AcDbLine
 10
90.333972
 20
15.283767
 30
0.0
 11
90.334137
 21
15.283764
 31
0.0
  0
SPLINE
  5
2af
100
AcDbEntity
  8
0
 62
7
100
AcDbSpline
 70
8
 71
3
 72
8
 73
4
 74
0
 40
0
 40
0
 40
0
 40
0
 40
1
 40
1
 40
1
 40
1
 10
7.164891
 20
97.008615
 30
0.0
 10
7.164891
 20
69.915524
 30
0.0
 10
10.571712
 20
66.320565
 30
0.0
 10
7.075493
 20
66.320569
 30
0.0
  0
SPLINE
  5
2b0
100
AcDbEntity
  8
0
 62
7
100
AcDbSpline
 70
8
 71
3
 72
8
 73
4
 74
0
 40
0
 40
0
 40
0
 40
0
 40
1
 40
1
 40
1
 40
1
 10
7.075493
 20
66.320569
 30
0.0
 10
5.967491
 20
66.320569
 30
0.0
 10
5.075611
 20
65.428689
 30
0.0
 10
5.075611
 20
64.320690
 30
0.0
  0
LINE
  5
2b1
100
AcDbEntity
  8
0
 62
7
100
AcDbLine
 10
5.075611
 20
64.320690
 30
0.0
 11
5.075611
 21
61.359632
 31
0.0
  0
LINE
  5
2b2
100
AcDbEntity
  8
0
 62
7
100
AcDbLine
 10
5.075611
 20
61.359632
 30
0.0
 11
12.765065
 21
61.359632
 31
0.0
  0
SPLINE
  5
2b3
100
AcDbEntity
  8
0
 62
7
100
AcDbSpline
 70
8
 71
3
 72
8
 73
4
 74
0
 40
0
 40
0
 40
0
 40
0
 40
1
 40
1
 40
1
 40
1
 10
12.765065
 20
61.359632
 30
0.0
 10
13.042067
 20
61.359632
 30
0.0
 10
13.265294
 20
61.136401
 30
0.0
 10
13.265294
 20
60.859403
 30
0.0
  0
LINE
  5
2b4
100
AcDbEntity
  8
0
 62
7
100
AcDbLine
 10
13.265294
 20
60.859403
 30
0.0
 11
13.265294
 21
38.859194
 31
0.0
  0
SPLINE
  5
2b5
100
AcDbEntity
  8
0
 62
7
100
AcDbSpline
 70
8
 71
3
 72
8
 73
4
 74
0
 40
0
 40
0
 40
0
 40
0
 40
1
 40
1
 40
1
 40
1
 10
13.265294
 20
38.859194
 30
0.0
 10
13.265294
 20
38.582196
 30
0.0
 10
13.042067
 20
38.359484
 30
0.0
 10
12.765065
 20
38.359484
 30
0.0
  0
LINE
  5
2b6
100
AcDbEntity
  8
0
 62
7
100
AcDbLine
 10
12.765065
 20
38.359484
 30
0.0
 11
5.075611
 21
38.359484
 31
0.0
  0
LINE
  5
2b7
100
AcDbEntity
  8
0
 62
7
100
AcDbLine
 10
5.075611
 20
38.359484
 30
0.0
 11
5.075611
 21
35.609263
 31
0.0
  0
SPLINE
  5
2b8
100
AcDbEntity
  8
0
 62
7
100
AcDbSpline
 70
8
 71
3
 72
8
 73
4
 74
0
 40
0
 40
0
 40
0
 40
0
 40
1
 40
1
 40
1
 40
1
 10
5.075611
 20
35.609263
 30
0.0
 10
5.075611
 20
34.501261
 30
0.0
 10
5.967491
 20
33.609385
 30
0.0
 10
7.075493
 20
33.609385
 30
0.0
  0
LINE
  5
2b9
100
AcDbEntity
  8
0
 62
7
100
AcDbLine
 10
7.075493
 20
33.609385
 30
0.0
 11
12.065368
 21
33.609385
 31
0.0
  0
SPLINE
  5
2ba
100
AcDbEntity
  8
0
 62
7
100
AcDbSpline
 70
8
 71
3
 72
8
 73
4
 74
0
 40
0
 40
0
 40
0
 40
0
 40
1
 40
1
 40
1
 40
1
 10
12.065368
 20
33.609385
 30
0.0
 10
14.281369
 20
33.609385
 30
0.0
 10
16.065125
 20
35.393659
 30
0.0
 10
16.065125
 20
37.609657
 30
0.0
  0
LINE
  5
2bb
100
AcDbEntity
  8
0
 62
7
100
AcDbLine
 10
16.065125
 20
37.609657
 30
0.0
 11
16.065125
 21
38.559470
 31
0.0
  0
SPLINE
  5
2bc
100
AcDbEntity
  8
0
 62
7
100
AcDbSpline
 70
8
 71
3
 72
8
 73
4
 74
0
 40
0
 40
0
 40
0
 40
0
 40
1
 40
1
 40
1
 40
1
 10
16.065125
 20
38.559470
 30
0.0
 10
16.065125
 20
61.159477
 30
0.0
 10
17.234624
 20
79.567328
 30
0.0
 10
7.164891
 20
97.008615
 30
0.0
  0
LINE
  5
2bd
100
AcDbEntity
  8
0
 62
7
100
AcDbLine
 10
7.164891
 20
97.008615
 30
0.0
 11
7.164891
 21
97.008615
 31
0.0
  0
SPLINE
  5
2be
100
AcDbEntity
  8
0
 62
7
100
AcDbSpline
 70
8
 71
3
 72
8
 73
4
 74
0
 40
0
 40
0
 40
0
 40
0
 40
1
 40
1
 40
1
 40
1
 10
7.158717
 20
64.359450
 30
0.0
 10
7.653146
 20
64.363013
 30
0.0
 10
8.057868
 20
63.967066
 30
0.0
 10
8.065121
 20
63.472679
 30
0.0
  0
SPLINE
  5
2bf
100
AcDbEntity
  8
0
 62
7
100
AcDbSpline
 70
8
 71
3
 72
8
 73
4
 74
0
 40
0
 40
0
 40
0
 40
0
 40
1
 40
1
 40
1
 40
1
 10
8.065121
 20
63.472679
 30
0.0
 10
8.072459
 20
62.978024
 30
0.0
 10
7.679157
 20
62.570187
 30
0.0
 10
7.184558
 20
62.559558
 30
0.0
  0
SPLINE
  5
2c0
100
AcDbEntity
  8
0
 62
7
100
AcDbSpline
 70
8
 71
3
 72
8
 73
4
 74
0
 40
0
 40
0
 40
0
 40
0
 40
1
 40
1
 40
1
 40
1
 10
7.184558
 20
62.559558
 30
0.0
 10
6.690256
 20
62.549010
 30
0.0
 10
6.280003
 20
62.939197
 30
0.0
 10
6.265751
 20
63.433407
 30
0.0
  0
LINE
  5
2c1
100
AcDbEntity
  8
0
 62
7
100
AcDbLine
 10
6.265751
 20
63.433407
 30
0.0
 11
6.265398
 21
63.459231
 31
0.0
  0
SPLINE
  5
2c2
100
AcDbEntity
  8
0
 62
7
100
AcDbSpline
 70
8
 71
3
 72
8
 73
4
 74
0
 40
0
 40
0
 40
0
 40
0
 40
1
 40
1
 40
1
 40
1
 10
6.265398
 20
63.459231
 30
0.0
 10
6.265271
 20
63.953836
 30
0.0
 10
6.664291
 20
64.355855
 30
0.0
 10
7.158879
 20
64.359436
 30
0.0
  0
LINE
  5
2c3
100
AcDbEntity
  8
0
 62
7
100
AcDbLine
 10
7.158879
 20
64.359436
 30
0.0
 11
7.158717
 21
64.359450
 31
0.0
  0
SPLINE
  5
2c4
100
AcDbEntity
  8
0
 62
7
100
AcDbSpline
 70
8
 71
3
 72
8
 73
4
 74
0
 40
0
 40
0
 40
0
 40
0
 40
1
 40
1
 40
1
 40
1
 10
7.158717
 20
37.159554
 30
0.0
 10
7.653340
 20
37.163117
 30
0.0
 10
8.058146
 20
36.766859
 30
0.0
 10
8.065121
 20
36.272271
 30
0.0
  0
SPLINE
  5
2c5
100
AcDbEntity
  8
0
 62
7
100
AcDbSpline
 70
8
 71
3
 72
8
 73
4
 74
0
 40
0
 40
0
 40
0
 40
0
 40
1
 40
1
 40
1
 40
1
 10
8.065121
 20
36.272271
 30
0.0
 10
8.072141
 20
35.777814
 30
0.0
 10
7.678949
 20
35.370295
 30
0.0
 10
7.184558
 20
35.359666
 30
0.0
  0
SPLINE
  5
2c6
100
AcDbEntity
  8
0
 62
7
100
AcDbSpline
 70
8
 71
3
 72
8
 73
4
 74
0
 40
0
 40
0
 40
0
 40
0
 40
1
 40
1
 40
1
 40
1
 10
7.184558
 20
35.359666
 30
0.0
 10
6.690256
 20
35.349118
 30
0.0
 10
6.280007
 20
35.739304
 30
0.0
 10
6.265751
 20
36.233515
 30
0.0
  0
LINE
  5
2c7
100
AcDbEntity
  8
0
 62
7
100
AcDbLine
 10
6.265751
 20
36.233515
 30
0.0
 11
6.265398
 21
36.259374
 31
0.0
  0
SPLINE
  5
2c8
100
AcDbEntity
  8
0
 62
7
100
AcDbSpline
 70
8
 71
3
 72
8
 73
4
 74
0
 40
0
 40
0
 40
0
 40
0
 40
1
 40
1
 40
1
 40
1
 10
6.265398
 20
36.259374
 30
0.0
 10
6.265271
 20
36.753976
 30
0.0
 10
6.664291
 20
37.155998
 30
0.0
 10
7.158879
 20
37.159575
 30
0.0
  0
LINE
  5
2c9
100
AcDbEntity
  8
0
 62
7
100
AcDbLine
 10
7.158879
 20
37.159575
 30
0.0
 11
7.158717
 21
37.159554
 31
0.0
  0
SPLINE
  5
2ca
100
AcDbEntity
  8
0
 62
7
100
AcDbSpline
 70
8
 71
3
 72
8
 73
4
 74
0
 40
0
 40
0
 40
0
 40
0
 40
1
 40
1
 40
1
 40
1
 10
51.281761
 20
23.689229
 30
0.0
 10
54.942121
 20
24.910100
 30
0.0
 10
55.609080
 20
27.781270
 30
0.0
 10
54.949861
 20
30.369247
 30
0.0
  0
SPLINE
  5
2cb
100
AcDbEntity
  8
0
 62
7
100
AcDbSpline
 70
8
 71
3
 72
8
 73
4
 74
0
 40
0
 40
0
 40
0
 40
0
 40
1
 40
1
 40
1
 40
1
 10
54.949861
 20
30.369247
 30
0.0
 10
54.290639
 20
32.957218
 30
0.0
 10
51.827852
 20
35.062355
 30
0.0
 10
48.517691
 20
34.133557
 30
0.0
  0
SPLINE
  5
2cc
100
AcDbEntity
  8
0
 62
7
100
AcDbSpline
 70
8
 71
3
 72
8
 73
4
 74
0
 40
0
 40
0
 40
0
 40
0
 40
1
 40
1
 40
1
 40
1
 10
48.517691
 20
34.133557
 30
0.0
 10
47.167778
 20
33.754782
 30
0.0
 10
45.051254
 20
32.580853
 30
0.0
 10
42.780653
 20
31.296899
 30
0.0
  0
SPLINE
  5
2cd
100
AcDbEntity
  8
0
 62
7
100
AcDbSpline
 70
8
 71
3
 72
8
 73
4
 74
0
 40
0
 40
0
 40
0
 40
0
 40
1
 40
1
 40
1
 40
1
 10
42.780653
 20
31.296899
 30
0.0
 10
38.433938
 20
28.838980
 30
0.0
 10
34.289780
 20
27.626199
 30
0.0
 10
30.039536
 20
26.550952
 30
0.0
  0
SPLINE
  5
2ce
100
AcDbEntity
  8
0
 62
7
100
AcDbSpline
 70
8
 71
3
 72
8
 73
4
 74
0
 40
0
 40
0
 40
0
 40
0
 40
1
 40
1
 40
1
 40
1
 10
30.039536
 20
26.550952
 30
0.0
 10
25.022402
 20
25.281691
 30
0.0
 10
19.857443
 20
24.388090
 30
0.0
 10
14.037008
 20
24.522414
 30
0.0
  0
SPLINE
  5
2cf
100
AcDbEntity
  8
0
 62
7
100
AcDbSpline
 70
8
 71
3
 72
8
 73
4
 74
0
 40
0
 40
0
 40
0
 40
0
 40
1
 40
1
 40
1
 40
1
 10
14.037008
 20
24.522414
 30
0.0
 10
11.229345
 20
24.587209
 30
0.0
 10
9.136894
 20
24.021973
 30
0.0
 10
8.799828
 20
23.871722
 30
0.0
  0
SPLINE
  5
2d0
100
AcDbEntity
  8
0
 62
7
100
AcDbSpline
 70
8
 71
3
 72
8
 73
4
 74
0
 40
0
 40
0
 40
0
 40
0
 40
1
 40
1
 40
1
 40
1
 10
8.799828
 20
23.871722
 30
0.0
 10
4.545305
 20
21.975189
 30
0.0
 10
4.675802
 20
18.803960
 30
0.0
 10
5.134516
 20
17.055500
 30
0.0
  0
SPLINE
  5
2d1
100
AcDbEntity
  8
0
 62
7
100
AcDbSpline
 70
8
 71
3
 72
8
 73
4
 74
0
 40
0
 40
0
 40
0
 40
0
 40
1
 40
1
 40
1
 40
1
 10
5.134516
 20
17.055500
 30
0.0
 10
5.593226
 20
15.307035
 30
0.0
 10
7.920772
 20
12.047703
 30
0.0
 10
11.792544
 20
13.214807
 30
0.0
  0
SPLINE
  5
2d2
100
AcDbEntity
  8
0
 62
7
100
AcDbSpline
 70
8
 71
3
 72
8
 73
4
 74
0
 40
0
 40
0
 40
0
 40
0
 40
1
 40
1
 40
1
 40
1
 10
11.792544
 20
13.214807
 30
0.0
 10
14.543516
 20
14.044054
 30
0.0
 10
15.104822
 20
14.753237
 30
0.0
 10
16.585326
 20
15.823365
 30
0.0
  0
SPLINE
  5
2d3
100
AcDbEntity
  8
0
 62
7
100
AcDbSpline
 70
8
 71
3
 72
8
 73
4
 74
0
 40
0
 40
0
 40
0
 40
0
 40
1
 40
1
 40
1
 40
1
 10
16.585326
 20
15.823365
 30
0.0
 10
20.084925
 20
18.352926
 30
0.0
 10
26.532709
 20
18.022271
 30
0.0
 10
32.235245
 20
19.187934
 30
0.0
  0
SPLINE
  5
2d4
100
AcDbEntity
  8
0
 62
7
100
AcDbSpline
 70
8
 71
3
 72
8
 73
4
 74
0
 40
0
 40
0
 40
0
 40
0
 40
1
 40
1
 40
1
 40
1
 10
32.235245
 20
19.187934
 30
0.0
 10
37.363112
 20
20.236130
 30
0.0
 10
41.691426
 20
22.888148
 30
0.0
 10
46.088986
 20
23.202960
 30
0.0
  0
SPLINE
  5
2d5
100
AcDbEntity
  8
0
 62
7
100
AcDbSpline
 70
8
 71
3
 72
8
 73
4
 74
0
 40
0
 40
0
 40
0
 40
0
 40
1
 40
1
 40
1
 40
1
 10
46.088986
 20
23.202960
 30
0.0
 10
48.438196
 20
23.371136
 30
0.0
 10
49.978641
 20
23.254585
 30
0.0
 10
51.281761
 20
23.689229
 30
0.0
  0
LINE
  5
2d6
100
AcDbEntity
  8
0
 62
7
100
AcDbLine
 10
51.281761
 20
23.689229
 30
0.0
 11
51.281761
 21
23.689229
 31
0.0
  0
SPLINE
  5
2d7
100
AcDbEntity
  8
0
 62
7
100
AcDbSpline
 70
8
 71
3
 72
8
 73
4
 74
0
 40
0
 40
0
 40
0
 40
0
 40
1
 40
1
 40
1
 40
1
 10
50.921155
 20
25.356484
 30
0.0
 10
48.916415
 20
24.772089
 30
0.0
 10
46.815737
 20
25.914823
 30
0.0
 10
46.217161
 20
27.915375
 30
0.0
  0
LINE
  5
2d8
100
AcDbEntity
  8
0
 62
7
100
AcDbLine
 10
46.217161
 20
27.915375
 30
0.0
 11
46.186963
 21
28.021233
 31
0.0
  0
SPLINE
  5
2d9
100
AcDbEntity
  8
0
 62
7
100
AcDbSpline
 70
8
 71
3
 72
8
 73
4
 74
0
 40
0
 40
0
 40
0
 40
0
 40
1
 40
1
 40
1
 40
1
 10
46.186963
 20
28.021233
 30
0.0
 10
45.646659
 20
30.037967
 30
0.0
 10
46.834622
 20
32.112871
 30
0.0
 10
48.847355
 20
32.667894
 30
0.0
  0
SPLINE
  5
2da
100
AcDbEntity
  8
0
 62
7
100
AcDbSpline
 70
8
 71
3
 72
8
 73
4
 74
0
 40
0
 40
0
 40
0
 40
0
 40
1
 40
1
 40
1
 40
1
 10
48.847355
 20
32.667894
 30
0.0
 10
50.860047
 20
33.222863
 30
0.0
 10
52.943523
 20
32.050123
 30
0.0
 10
53.513246
 20
30.041555
 30
0.0
  0
SPLINE
  5
2db
100
AcDbEntity
  8
0
 62
7
100
AcDbSpline
 70
8
 71
3
 72
8
 73
4
 74
0
 40
0
 40
0
 40
0
 40
0
 40
1
 40
1
 40
1
 40
1
 10
53.513246
 20
30.041555
 30
0.0
 10
54.083022
 20
28.032882
 30
0.0
 10
52.925429
 20
25.940755
 30
0.0
 10
50.920943
 20
25.356431
 30
0.0
  0
LINE
  5
2dc
100
AcDbEntity
  8
0
 62
7
100
AcDbLine
 10
50.920943
 20
25.356431
 30
0.0
 11
50.921155
 21
25.356484
 31
0.0
  0
SPLINE
  5
2dd
100
AcDbEntity
  8
0
 62
7
100
AcDbSpline
 70
8
 71
3
 72
8
 73
4
 74
0
 40
0
 40
0
 40
0
 40
0
 40
1
 40
1
 40
1
 40
1
 10
11.458375
 20
14.782458
 30
0.0
 10
9.453635
 20
14.198066
 30
0.0
 10
7.352965
 20
15.340796
 30
0.0
 10
6.754388
 20
17.341352
 30
0.0
  0
LINE
  5
2de
100
AcDbEntity
  8
0
 62
7
100
AcDbLine
 10
6.754388
 20
17.341352
 30
0.0
 11
6.724191
 21
17.447214
 31
0.0
  0
SPLINE
  5
2df
100
AcDbEntity
  8
0
 62
7
100
AcDbSpline
 70
8
 71
3
 72
8
 73
4
 74
0
 40
0
 40
0
 40
0
 40
0
 40
1
 40
1
 40
1
 40
1
 10
6.724191
 20
17.447214
 30
0.0
 10
6.183879
 20
19.463945
 30
0.0
 10
7.371846
 20
21.538849
 30
0.0
 10
9.384576
 20
22.093867
 30
0.0
  0
SPLINE
  5
2e0
100
AcDbEntity
  8
0
 62
7
100
AcDbSpline
 70
8
 71
3
 72
8
 73
4
 74
0
 40
0
 40
0
 40
0
 40
0
 40
1
 40
1
 40
1
 40
1
 10
9.384576
 20
22.093867
 30
0.0
 10
11.397274
 20
22.648837
 30
0.0
 10
13.480743
 20
21.476103
 30
0.0
 10
14.050466
 20
19.467532
 30
0.0
  0
SPLINE
  5
2e1
100
AcDbEntity
  8
0
 62
7
100
AcDbSpline
 70
8
 71
3
 72
8
 73
4
 74
0
 40
0
 40
0
 40
0
 40
0
 40
1
 40
1
 40
1
 40
1
 10
14.050466
 20
19.467532
 30
0.0
 10
14.620238
 20
17.458859
 30
0.0
 10
13.462653
 20
15.366729
 30
0.0
 10
11.458164
 20
14.782405
 30
0.0
  0
LINE
  5
2e2
100
AcDbEntity
  8
0
 62
7
100
AcDbLine
 10
11.458164
 20
14.782405
 30
0.0
 11
11.458375
 21
14.782458
 31
0.0
  0
SPLINE
  5
2e3
100
AcDbEntity
  8
0
 62
7
100
AcDbSpline
 70
8
 71
3
 72
8
 73
4
 74
0
 40
0
 40
0
 40
0
 40
0
 40
1
 40
1
 40
1
 40
1
 10
16.330345
 20
19.503304
 30
0.0
 10
16.066477
 20
19.426465
 30
0.0
 10
15.790061
 20
19.577014
 30
0.0
 10
15.711452
 20
19.840363
 30
0.0
  0
LINE
  5
2e4
100
AcDbEntity
  8
0
 62
7
100
AcDbLine
 10
15.711452
 20
19.840363
 30
0.0
 11
15.707712
 21
19.854333
 31
0.0
  0
SPLINE
  5
2e5
100
AcDbEntity
  8
0
 62
7
100
AcDbSpline
 70
8
 71
3
 72
8
 73
4
 74
0
 40
0
 40
0
 40
0
 40
0
 40
1
 40
1
 40
1
 40
1
 10
15.707712
 20
19.854333
 30
0.0
 10
15.636811
 20
20.119530
 30
0.0
 10
15.792975
 20
20.392295
 30
0.0
 10
16.057566
 20
20.465415
 30
0.0
  0
SPLINE
  5
2e6
100
AcDbEntity
  8
0
 62
7
100
AcDbSpline
 70
8
 71
3
 72
8
 73
4
 74
0
 40
0
 40
0
 40
0
 40
0
 40
1
 40
1
 40
1
 40
1
 10
16.057566
 20
20.465415
 30
0.0
 10
16.322390
 20
20.538564
 30
0.0
 10
16.596625
 20
20.384399
 30
0.0
 10
16.671707
 20
20.120123
 30
0.0
  0
SPLINE
  5
2e7
100
AcDbEntity
  8
0
 62
7
100
AcDbSpline
 70
8
 71
3
 72
8
 73
4
 74
0
 40
0
 40
0
 40
0
 40
0
 40
1
 40
1
 40
1
 40
1
 10
16.671707
 20
20.120123
 30
0.0
 10
16.746891
 20
19.855627
 30
0.0
 10
16.594389
 20
19.580062
 30
0.0
 10
16.330348
 20
19.503297
 30
0.0
  0
LINE
  5
2e8
100
AcDbEntity
  8
0
 62
7
100
AcDbLine
 10
16.330348
 20
19.503297
 30
0.0
 11
16.330345
 21
19.503304
 31
0.0
  0
SPLINE
  5
2e9
100
AcDbEntity
  8
0
 62
7
100
AcDbSpline
 70
8
 71
3
 72
8
 73
4
 74
0
 40
0
 40
0
 40
0
 40
0
 40
1
 40
1
 40
1
 40
1
 10
44.202130
 20
26.971894
 30
0.0
 10
43.938450
 20
26.895101
 30
0.0
 10
43.662196
 20
27.045374
 30
0.0
 10
43.583379
 20
27.308455
 30
0.0
  0
LINE
  5
2ea
100
AcDbEntity
  8
0
 62
7
100
AcDbLine
 10
43.583379
 20
27.308455
 30
0.0
 11
43.579145
 21
27.322849
 31
0.0
  0
SPLINE
  5
2eb
100
AcDbEntity
  8
0
 62
7
100
AcDbSpline
 70
8
 71
3
 72
8
 73
4
 74
0
 40
0
 40
0
 40
0
 40
0
 40
1
 40
1
 40
1
 40
1
 10
43.579145
 20
27.322849
 30
0.0
 10
43.508191
 20
27.588240
 30
0.0
 10
43.664638
 20
27.861174
 30
0.0
 10
43.929503
 20
27.934069
 30
0.0
  0
SPLINE
  5
2ec
100
AcDbEntity
  8
0
 62
7
100
AcDbSpline
 70
8
 71
3
 72
8
 73
4
 74
0
 40
0
 40
0
 40
0
 40
0
 40
1
 40
1
 40
1
 40
1
 10
43.929503
 20
27.934069
 30
0.0
 10
44.194218
 20
28.006826
 30
0.0
 10
44.468111
 20
27.852721
 30
0.0
 10
44.543144
 20
27.588646
 30
0.0
  0
SPLINE
  5
2ed
100
AcDbEntity
  8
0
 62
7
100
AcDbSpline
 70
8
 71
3
 72
8
 73
4
 74
0
 40
0
 40
0
 40
0
 40
0
 40
1
 40
1
 40
1
 40
1
 10
44.543144
 20
27.588646
 30
0.0
 10
44.618271
 20
27.324337
 30
0.0
 10
44.466054
 20
27.048930
 30
0.0
 10
44.202282
 20
26.971947
 30
0.0
  0
LINE
  5
2ee
100
AcDbEntity
  8
0
 62
7
100
AcDbLine
 10
44.202282
 20
26.971947
 30
0.0
 11
44.202130
 21
26.971894
 31
0.0
  0
SPLINE
  5
2ef
100
AcDbEntity
  8
0
 62
7
100
AcDbSpline
 70
8
 71
3
 72
8
 73
4
 74
0
 40
0
 40
0
 40
0
 40
0
 40
1
 40
1
 40
1
 40
1
 10
40.338161
 20
25.936543
 30
0.0
 10
40.074484
 20
25.859754
 30
0.0
 10
39.798224
 20
26.010027
 30
0.0
 10
39.719406
 20
26.273104
 30
0.0
  0
LINE
  5
2f0
100
AcDbEntity
  8
0
 62
7
100
AcDbLine
 10
39.719406
 20
26.273104
 30
0.0
 11
39.715666
 21
26.287074
 31
0.0
  0
SPLINE
  5
2f1
100
AcDbEntity
  8
0
 62
7
100
AcDbSpline
 70
8
 71
3
 72
8
 73
4
 74
0
 40
0
 40
0
 40
0
 40
0
 40
1
 40
1
 40
1
 40
1
 10
39.715666
 20
26.287074
 30
0.0
 10
39.644433
 20
26.552392
 30
0.0
 10
39.800594
 20
26.825488
 30
0.0
 10
40.065390
 20
26.898654
 30
0.0
  0
SPLINE
  5
2f2
100
AcDbEntity
  8
0
 62
7
100
AcDbSpline
 70
8
 71
3
 72
8
 73
4
 74
0
 40
0
 40
0
 40
0
 40
0
 40
1
 40
1
 40
1
 40
1
 10
40.065390
 20
26.898654
 30
0.0
 10
40.330397
 20
26.971855
 30
0.0
 10
40.604795
 20
26.817413
 30
0.0
 10
40.679661
 20
26.552864
 30
0.0
  0
SPLINE
  5
2f3
100
AcDbEntity
  8
0
 62
7
100
AcDbSpline
 70
8
 71
3
 72
8
 73
4
 74
0
 40
0
 40
0
 40
0
 40
0
 40
1
 40
1
 40
1
 40
1
 10
40.679661
 20
26.552864
 30
0.0
 10
40.754521
 20
26.288489
 30
0.0
 10
40.602011
 20
26.013248
 30
0.0
 10
40.338165
 20
25.936532
 30
0.0
  0
LINE
  5
2f4
100
AcDbEntity
  8
0
 62
7
100
AcDbLine
 10
40.338165
 20
25.936532
 30
0.0
 11
40.338161
 21
25.936543
 31
0.0
  0
SPLINE
  5
2f5
100
AcDbEntity
  8
0
 62
7
100
AcDbSpline
 70
8
 71
3
 72
8
 73
4
 74
0
 40
0
 40
0
 40
0
 40
0
 40
1
 40
1
 40
1
 40
1
 10
36.474689
 20
24.901329
 30
0.0
 10
36.211012
 20
24.824544
 30
0.0
 10
35.934752
 20
24.974813
 30
0.0
 10
35.855934
 20
25.237894
 30
0.0
  0
LINE
  5
2f6
100
AcDbEntity
  8
0
 62
7
100
AcDbLine
 10
35.855934
 20
25.237894
 30
0.0
 11
35.851842
 21
25.251758
 31
0.0
  0
SPLINE
  5
2f7
100
AcDbEntity
  8
0
 62
7
100
AcDbSpline
 70
8
 71
3
 72
8
 73
4
 74
0
 40
0
 40
0
 40
0
 40
0
 40
1
 40
1
 40
1
 40
1
 10
35.851842
 20
25.251758
 30
0.0
 10
35.780563
 20
25.517273
 30
0.0
 10
35.937006
 20
25.790528
 30
0.0
 10
36.202062
 20
25.863479
 30
0.0
  0
SPLINE
  5
2f8
100
AcDbEntity
  8
0
 62
7
100
AcDbSpline
 70
8
 71
3
 72
8
 73
4
 74
0
 40
0
 40
0
 40
0
 40
0
 40
1
 40
1
 40
1
 40
1
 10
36.202062
 20
25.863479
 30
0.0
 10
36.466971
 20
25.936286
 30
0.0
 10
36.741030
 20
25.781903
 30
0.0
 10
36.815840
 20
25.517552
 30
0.0
  0
SPLINE
  5
2f9
100
AcDbEntity
  8
0
 62
7
100
AcDbSpline
 70
8
 71
3
 72
8
 73
4
 74
0
 40
0
 40
0
 40
0
 40
0
 40
1
 40
1
 40
1
 40
1
 10
36.815840
 20
25.517552
 30
0.0
 10
36.890643
 20
25.253367
 30
0.0
 10
36.738416
 20
24.978285
 30
0.0
 10
36.474838
 20
24.901354
 30
0.0
  0
LINE
  5
2fa
100
AcDbEntity
  8
0
 62
7
100
AcDbLine
 10
36.474838
 20
24.901354
 30
0.0
 11
36.474689
 21
24.901329
 31
0.0
  0
SPLINE
  5
2fb
100
AcDbEntity
  8
0
 62
7
100
AcDbSpline
 70
8
 71
3
 72
8
 73
4
 74
0
 40
0
 40
0
 40
0
 40
0
 40
1
 40
1
 40
1
 40
1
 10
20.194219
 20
20.538990
 30
0.0
 10
19.930542
 20
20.462201
 30
0.0
 10
19.654285
 20
20.612471
 30
0.0
 10
19.575467
 20
20.875551
 30
0.0
  0
LINE
  5
2fc
100
AcDbEntity
  8
0
 62
7
100
AcDbLine
 10
19.575467
 20
20.875551
 30
0.0
 11
19.571375
 21
20.889416
 31
0.0
  0
SPLINE
  5
2fd
100
AcDbEntity
  8
0
 62
7
100
AcDbSpline
 70
8
 71
3
 72
8
 73
4
 74
0
 40
0
 40
0
 40
0
 40
0
 40
1
 40
1
 40
1
 40
1
 10
19.571375
 20
20.889416
 30
0.0
 10
19.500092
 20
21.154931
 30
0.0
 10
19.656532
 20
21.428182
 30
0.0
 10
19.921592
 20
21.501133
 30
0.0
  0
SPLINE
  5
2fe
100
AcDbEntity
  8
0
 62
7
100
AcDbSpline
 70
8
 71
3
 72
8
 73
4
 74
0
 40
0
 40
0
 40
0
 40
0
 40
1
 40
1
 40
1
 40
1
 10
19.921592
 20
21.501133
 30
0.0
 10
20.186500
 20
21.573943
 30
0.0
 10
20.460556
 20
21.419560
 30
0.0
 10
20.535366
 20
21.155206
 30
0.0
  0
SPLINE
  5
2ff
100
AcDbEntity
  8
0
 62
7
100
AcDbSpline
 70
8
 71
3
 72
8
 73
4
 74
0
 40
0
 40
0
 40
0
 40
0
 40
1
 40
1
 40
1
 40
1
 10
20.535366
 20
21.155206
 30
0.0
 10
20.610173
 20
20.891021
 30
0.0
 10
20.457949
 20
20.615942
 30
0.0
 10
20.194374
 20
20.539012
 30
0.0
  0
LINE
  5
300
100
AcDbEntity
  8
0
 62
7
100
AcDbLine
 10
20.194374
 20
20.539012
 30
0.0
 11
20.194219
 21
20.538990
 31
0.0
  0
SPLINE
  5
301
100
AcDbEntity
  8
0
 62
7
100
AcDbSpline
 70
8
 71
3
 72
8
 73
4
 74
0
 40
0
 40
0
 40
0
 40
0
 40
1
 40
1
 40
1
 40
1
 10
24.053944
 20
21.588174
 30
0.0
 10
23.790264
 20
21.511388
 30
0.0
 10
23.514010
 20
21.661658
 30
0.0
 10
23.435189
 20
21.924742
 30
0.0
  0
LINE
  5
302
100
AcDbEntity
  8
0
 62
7
100
AcDbLine
 10
23.435189
 20
21.924742
 30
0.0
 11
23.431097
 21
21.938606
 31
0.0
  0
SPLINE
  5
303
100
AcDbEntity
  8
0
 62
7
100
AcDbSpline
 70
8
 71
3
 72
8
 73
4
 74
0
 40
0
 40
0
 40
0
 40
0
 40
1
 40
1
 40
1
 40
1
 10
23.431097
 20
21.938606
 30
0.0
 10
23.359818
 20
22.204118
 30
0.0
 10
23.516257
 20
22.477369
 30
0.0
 10
23.781310
 20
22.550324
 30
0.0
  0
SPLINE
  5
304
100
AcDbEntity
  8
0
 62
7
100
AcDbSpline
 70
8
 71
3
 72
8
 73
4
 74
0
 40
0
 40
0
 40
0
 40
0
 40
1
 40
1
 40
1
 40
1
 10
23.781310
 20
22.550324
 30
0.0
 10
24.046222
 20
22.623130
 30
0.0
 10
24.320274
 20
22.468740
 30
0.0
 10
24.395088
 20
22.204396
 30
0.0
  0
SPLINE
  5
305
100
AcDbEntity
  8
0
 62
7
100
AcDbSpline
 70
8
 71
3
 72
8
 73
4
 74
0
 40
0
 40
0
 40
0
 40
0
 40
1
 40
1
 40
1
 40
1
 10
24.395088
 20
22.204396
 30
0.0
 10
24.469891
 20
21.940211
 30
0.0
 10
24.317664
 20
21.665133
 30
0.0
 10
24.054092
 20
21.588202
 30
0.0
  0
LINE
  5
306
100
AcDbEntity
  8
0
 62
7
100
AcDbLine
 10
24.054092
 20
21.588202
 30
0.0
 11
24.053944
 21
21.588174
 31
0.0
  0
LINE
  5
307
100
AcDbEntity
  8
0
 62
7
100
AcDbLine
 10
23.456252
 20
52.175351
 30
0.0
 11
20.506045
 21
52.175351
 31
0.0
  0
SPLINE
  5
308
100
AcDbEntity
  8
0
 62
7
100
AcDbSpline
 70
8
 71
3
 72
8
 73
4
 74
0
 40
0
 40
0
 40
0
 40
0
 40
1
 40
1
 40
1
 40
1
 10
20.506045
 20
52.175351
 30
0.0
 10
19.398043
 20
52.175351
 30
0.0
 10
18.506163
 20
51.282956
 30
0.0
 10
18.506163
 20
50.174954
 30
0.0
  0
LINE
  5
309
100
AcDbEntity
  8
0
 62
7
100
AcDbLine
 10
18.506163
 20
50.174954
 30
0.0
 11
18.505994
 21
28.975209
 31
0.0
  0
SPLINE
  5
30a
100
AcDbEntity
  8
0
 62
7
100
AcDbSpline
 70
8
 71
3
 72
8
 73
4
 74
0
 40
0
 40
0
 40
0
 40
0
 40
1
 40
1
 40
1
 40
1
 10
18.505994
 20
28.975209
 30
0.0
 10
18.505994
 20
27.867207
 30
0.0
 10
19.397874
 20
26.974812
 30
0.0
 10
20.505876
 20
26.974812
 30
0.0
  0
LINE
  5
30b
100
AcDbEntity
  8
0
 62
7
100
AcDbLine
 10
20.505876
 20
26.974812
 30
0.0
 11
23.456083
 21
26.974812
 31
0.0
  0
SPLINE
  5
30c
100
AcDbEntity
  8
0
 62
7
100
AcDbSpline
 70
8
 71
3
 72
8
 73
4
 74
0
 40
0
 40
0
 40
0
 40
0
 40
1
 40
1
 40
1
 40
1
 10
23.456083
 20
26.974812
 30
0.0
 10
23.456008
 20
35.300374
 30
0.0
 10
23.456262
 20
44.604748
 30
0.0
 10
23.456252
 20
52.175351
 30
0.0
  0
LINE
  5
30d
100
AcDbEntity
  8
0
 62
7
100
AcDbLine
 10
23.456252
 20
52.175351
 30
0.0
 11
23.456252
 21
52.175351
 31
0.0
  0
SPLINE
  5
30e
100
AcDbEntity
  8
0
 62
7
100
AcDbSpline
 70
8
 71
3
 72
8
 73
4
 74
0
 40
0
 40
0
 40
0
 40
0
 40
1
 40
1
 40
1
 40
1
 10
20.256278
 20
32.855593
 30
0.0
 10
20.245765
 20
33.349701
 30
0.0
 10
20.635603
 20
33.759869
 30
0.0
 10
21.129609
 20
33.774400
 30
0.0
  0
LINE
  5
30f
100
AcDbEntity
  8
0
 62
7
100
AcDbLine
 10
21.129609
 20
33.774400
 30
0.0
 11
21.155961
 21
33.775106
 31
0.0
  0
SPLINE
  5
310
100
AcDbEntity
  8
0
 62
7
100
AcDbSpline
 70
8
 71
3
 72
8
 73
4
 74
0
 40
0
 40
0
 40
0
 40
0
 40
1
 40
1
 40
1
 40
1
 10
21.155961
 20
33.775106
 30
0.0
 10
21.650362
 20
33.774947
 30
0.0
 10
22.052068
 20
33.376008
 30
0.0
 10
22.055648
 20
32.881621
 30
0.0
  0
SPLINE
  5
311
100
AcDbEntity
  8
0
 62
7
100
AcDbSpline
 70
8
 71
3
 72
8
 73
4
 74
0
 40
0
 40
0
 40
0
 40
0
 40
1
 40
1
 40
1
 40
1
 10
22.055648
 20
32.881621
 30
0.0
 10
22.059211
 20
32.387199
 30
0.0
 10
21.663267
 20
31.982474
 30
0.0
 10
21.168880
 20
31.975217
 30
0.0
  0
SPLINE
  5
312
100
AcDbEntity
  8
0
 62
7
100
AcDbSpline
 70
8
 71
3
 72
8
 73
4
 74
0
 40
0
 40
0
 40
0
 40
0
 40
1
 40
1
 40
1
 40
1
 10
21.168880
 20
31.975217
 30
0.0
 10
20.674423
 20
31.968197
 30
0.0
 10
20.266904
 20
32.361389
 30
0.0
 10
20.256275
 20
32.855783
 30
0.0
  0
LINE
  5
313
100
AcDbEntity
  8
0
 62
7
100
AcDbLine
 10
20.256275
 20
32.855783
 30
0.0
 11
20.256278
 21
32.855593
 31
0.0
  0
SPLINE
  5
314
100
AcDbEntity
  8
0
 62
7
100
AcDbSpline
 70
8
 71
3
 72
8
 73
4
 74
0
 40
0
 40
0
 40
0
 40
0
 40
1
 40
1
 40
1
 40
1
 10
20.256448
 20
46.255299
 30
0.0
 10
20.245617
 20
46.749604
 30
0.0
 10
20.635568
 20
47.160090
 30
0.0
 10
21.129778
 20
47.174621
 30
0.0
  0
LINE
  5
315
100
AcDbEntity
  8
0
 62
7
100
AcDbLine
 10
21.129778
 20
47.174621
 30
0.0
 11
21.156131
 21
47.174974
 31
0.0
  0
SPLINE
  5
316
100
AcDbEntity
  8
0
 62
7
100
AcDbSpline
 70
8
 71
3
 72
8
 73
4
 74
0
 40
0
 40
0
 40
0
 40
0
 40
1
 40
1
 40
1
 40
1
 10
21.156131
 20
47.174974
 30
0.0
 10
21.650532
 20
47.174815
 30
0.0
 10
22.052237
 20
46.775879
 30
0.0
 10
22.055818
 20
46.281489
 30
0.0
  0
SPLINE
  5
317
100
AcDbEntity
  8
0
 62
7
100
AcDbSpline
 70
8
 71
3
 72
8
 73
4
 74
0
 40
0
 40
0
 40
0
 40
0
 40
1
 40
1
 40
1
 40
1
 10
22.055818
 20
46.281489
 30
0.0
 10
22.059381
 20
45.787063
 30
0.0
 10
21.663436
 20
45.382342
 30
0.0
 10
21.169050
 20
45.375085
 30
0.0
  0
SPLINE
  5
318
100
AcDbEntity
  8
0
 62
7
100
AcDbSpline
 70
8
 71
3
 72
8
 73
4
 74
0
 40
0
 40
0
 40
0
 40
0
 40
1
 40
1
 40
1
 40
1
 10
21.169050
 20
45.375085
 30
0.0
 10
20.674790
 20
45.368030
 30
0.0
 10
20.267352
 20
45.760943
 30
0.0
 10
20.256444
 20
46.255133
 30
0.0
  0
LINE
  5
319
100
AcDbEntity
  8
0
 62
7
100
AcDbLine
 10
20.256444
 20
46.255133
 30
0.0
 11
20.256448
 21
46.255299
 31
0.0
  0
ENDSEC
  0
SECTION
  2
OBJECTS
  0
DICTIONARY
  5
C
330
0
100
AcDbDictionary
  3
ACAD_GROUP
350
D
  3
ACAD_MLINESTYLE
350
17
  0
DICTIONARY
  5
D
330
C
100
AcDbDictionary
  0
DICTIONARY
  5
1A
330
C
100
AcDbDictionary
  0
DICTIONARY
  5
17
330
C
100
AcDbDictionary
  3
STANDARD
350
18
  0
DICTIONARY
  5
19
330
C
100
AcDbDictionary
  0
ENDSEC
  0
EOF
