<?xml version="1.0" encoding="UTF-8" standalone="no"?>

<svg
   id="svg9709"
   viewBox="0 0 149.74789 34.015136"
   height="1.1999799cm"
   width="5.2827783cm"
   y="0in"
   x="0in"
   version="1.2"
   sodipodi:docname="femur.svg"
   inkscape:version="1.1.2 (0a00cf5339, 2022-02-04)"
   xmlns:inkscape="http://www.inkscape.org/namespaces/inkscape"
   xmlns:sodipodi="http://sodipodi.sourceforge.net/DTD/sodipodi-0.dtd"
   xmlns="http://www.w3.org/2000/svg"
   xmlns:svg="http://www.w3.org/2000/svg"
   xmlns:rdf="http://www.w3.org/1999/02/22-rdf-syntax-ns#"
   xmlns:cc="http://creativecommons.org/ns#"
   xmlns:dc="http://purl.org/dc/elements/1.1/">
  <sodipodi:namedview
     id="namedview64"
     pagecolor="#ffffff"
     bordercolor="#999999"
     borderopacity="1"
     inkscape:pageshadow="0"
     inkscape:pageopacity="0"
     inkscape:pagecheckerboard="0"
     inkscape:document-units="cm"
     showgrid="false"
     fit-margin-top="0"
     fit-margin-left="0"
     fit-margin-right="0"
     fit-margin-bottom="0"
     inkscape:zoom="3.6010487"
     inkscape:cx="6.6647252"
     inkscape:cy="22.632296"
     inkscape:current-layer="svg9709" />
  <metadata
     id="metadata9715">
    <rdf:RDF>
      <cc:Work
         rdf:about="">
        <dc:format>image/svg+xml</dc:format>
        <dc:type
           rdf:resource="http://purl.org/dc/dcmitype/StillImage" />
      </cc:Work>
    </rdf:RDF>
  </metadata>
  <path
     id="path295"
     style="fill:#3465a4;stroke-width:14.1732;stroke-linecap:round;stroke-linejoin:round;paint-order:markers stroke fill"
     d="m 132.73957,0 c 9.4224,2.4000683e-4 17.0083,7.58593 17.0083,17.00829 -1e-5,9.42235 -7.5859,17.00656 -17.00828,17.00685 -10.7712,3.1e-4 -10.77114,-9.23732 -57.865662,-9.23731 C 27.69639,24.77784 27.69634,34.01547 17.00827,34.01514 7.58589,34.01486 -1.999996e-5,26.43069 0,17.00829 2.000004e-5,7.58594 7.58591,2.8000683e-4 17.00829,2.0006828e-5 27.69636,-2.7999317e-4 27.6964,9.2373 74.873938,9.2373 121.96845,9.23729 121.96842,-2.8999317e-4 132.7396,0 Z m 1e-5,6.23729 c -5.94838,-10e-6 -10.77063,4.82156 -10.77104,10.76949 -4.2e-4,5.94859 4.82205,10.771 10.771,10.771 5.94896,10e-6 10.77141,-4.82241 10.77098,-10.771 -3.7e-4,-5.94796 -4.82259,-10.76953 -10.77096,-10.76954 z M 16.93062,6.23828 c -5.94839,0 -10.77057,4.82157 -10.77096,10.76956 4.2e-4,5.94795 4.8226,10.76953 10.77096,10.76954 5.94837,2e-5 10.77098,-4.82156 10.77098,-10.76956 -2e-5,-5.94794 -4.82262,-10.76951 -10.77096,-10.76954 z m 98.79919,9.35303 a 1.4172599,1.4167299 0 0 0 -1.41794,1.41653 1.4172599,1.4167299 0 0 0 1.41796,1.41653 1.4172599,1.4167299 0 0 0 1.4165,-1.41652 1.4172599,1.4167299 0 0 0 -1.41652,-1.41649 z m -11.32907,-10e-6 a 1.4172599,1.4167299 0 0 0 -1.41795,1.41654 1.4172599,1.4167299 0 0 0 1.41794,1.41654 1.4172599,1.4167299 0 0 0 1.4165,-1.41652 1.4172599,1.4167299 0 0 0 -1.4165,-1.4165 z m -11.337882,0 a 1.4172599,1.4167299 0 0 0 -1.41796,1.41654 1.4172599,1.4167299 0 0 0 1.41795,1.41654 1.4172599,1.4167299 0 0 0 1.4165,-1.41652 1.4172599,1.4167299 0 0 0 -1.41649,-1.4165 z m -36.43942,-10e-6 a 1.4172599,1.4167299 0 0 0 -1.41794,1.41654 1.4172599,1.4167299 0 0 0 1.41794,1.41652 1.4172599,1.4167299 0 0 0 1.4165,-1.41651 1.4172599,1.4167299 0 0 0 -1.41649,-1.41651 z m -11.337888,10e-6 a 1.4172599,1.4167299 0 0 0 -1.41648,1.4165 1.4172599,1.4167299 0 0 0 1.41649,1.41652 1.4172599,1.4167299 0 0 0 1.41794,-1.41653 1.4172599,1.4167299 0 0 0 -1.41794,-1.41653 z m -11.33933,10e-6 a 1.4172599,1.4167299 0 0 0 -1.41794,1.41652 1.4172599,1.4167299 0 0 0 1.41794,1.41652 1.4172599,1.4167299 0 0 0 1.4165,-1.4165 1.4172599,1.4167299 0 0 0 -1.41651,-1.41651 z" />
</svg>
