<?xml version="1.0" encoding="UTF-8" standalone="no"?>
<svg
   id="svg9709"
   viewBox="0 0 31.151415 179.71431"
   height="6.3399296cm"
   width="1.0989538cm"
   y="0in"
   x="0in"
   version="1.2"
   xmlns="http://www.w3.org/2000/svg"
   xmlns:svg="http://www.w3.org/2000/svg"
   xmlns:rdf="http://www.w3.org/1999/02/22-rdf-syntax-ns#"
   xmlns:cc="http://creativecommons.org/ns#"
   xmlns:dc="http://purl.org/dc/elements/1.1/">
  <metadata
     id="metadata9715">
    <rdf:RDF>
      <cc:Work
         rdf:about="">
        <dc:format>image/svg+xml</dc:format>
        <dc:type
           rdf:resource="http://purl.org/dc/dcmitype/StillImage" />
      </cc:Work>
    </rdf:RDF>
  </metadata>
  <path
     style="fill:#3465a4;fill-opacity:1;stroke:none;stroke-width:1.41732;stroke-linecap:round;stroke-linejoin:round;stroke-miterlimit:4;stroke-dasharray:none;stroke-opacity:1;paint-order:markers stroke fill"
     d="m 25.22904,179.71415 c 5.92237,0.1448 -27.82374,-86.98965 0.25342,-86.98965 3.1408,0 5.66895,-2.52816 5.66895,-5.66894 V 78.66202 H 9.35453 c -0.7852,-1e-5 -1.41797,-0.63279 -1.41797,-1.41797 V 14.88133 c 0,-0.78519 0.63277,-1.41651 1.41797,-1.4165 H 31.15141 V 5.66894 C 31.15141,2.52815 28.62325,0 25.48246,0 H 11.33793 C 5.05634,-9.9999852e-6 3e-5,5.05778 3e-5,11.33933 L 0,78.66202 c 0,60.40509 19.30668,100.90733 25.22904,101.05213 z m 0.0175,-92.54872 c -1.40153,0.0101 -2.54877,-1.11227 -2.56933,-2.51368 -0.0208,-1.40217 1.09407,-2.55824 2.49608,-2.58837 1.40118,-0.0299 2.5641,1.07614 2.6045,2.47705 l 9.9e-4,0.0732 c 3.6e-4,1.40203 -1.13072,2.54161 -2.53271,2.55176 z m 0,-77.10197 c -1.40208,0.0101 -2.54956,-1.11315 -2.56933,-2.51513 -0.0199,-1.40161 1.09466,-2.55678 2.49608,-2.58691 1.40118,-0.0299 2.56409,1.07614 2.6045,2.47705 l 0.001,0.0733 c 3.7e-4,1.40202 -1.13072,2.5416 -2.5327,2.55175 z"
     id="path259" />
</svg>
