<?xml version="1.0" encoding="UTF-8" standalone="no"?>
<!-- Created with Fritzing (http://www.fritzing.org/) -->

<svg
   sodipodi:docname="pibug-v1.svg"
   id="svg9709"
   viewBox="0 0 283.46427 283.46421"
   height="10cm"
   width="10cm"
   y="0in"
   x="0in"
   version="1.2"
   inkscape:version="1.1.2 (0a00cf5339, 2022-02-04)"
   xmlns:inkscape="http://www.inkscape.org/namespaces/inkscape"
   xmlns:sodipodi="http://sodipodi.sourceforge.net/DTD/sodipodi-0.dtd"
   xmlns="http://www.w3.org/2000/svg"
   xmlns:svg="http://www.w3.org/2000/svg"
   xmlns:rdf="http://www.w3.org/1999/02/22-rdf-syntax-ns#"
   xmlns:cc="http://creativecommons.org/ns#"
   xmlns:dc="http://purl.org/dc/elements/1.1/">
  <metadata
     id="metadata9715">
    <rdf:RDF>
      <cc:Work
         rdf:about="">
        <dc:format>image/svg+xml</dc:format>
        <dc:type
           rdf:resource="http://purl.org/dc/dcmitype/StillImage" />
      </cc:Work>
    </rdf:RDF>
  </metadata>
  <defs
     id="defs9713">
    <marker
       inkscape:stockid="Arrow1Mstart"
       orient="auto"
       refY="0.0"
       refX="0.0"
       id="Arrow1Mstart"
       style="overflow:visible"
       inkscape:isstock="true">
      <path
         id="path24894"
         d="M 0.0,0.0 L 5.0,-5.0 L -12.5,0.0 L 5.0,5.0 L 0.0,0.0 z "
         style="fill-rule:evenodd;stroke:#000000;stroke-width:1pt;stroke-opacity:1;fill:#000000;fill-opacity:1"
         transform="scale(0.4) translate(10,0)" />
    </marker>
    <marker
       inkscape:stockid="Arrow1Mend"
       orient="auto"
       refY="0.0"
       refX="0.0"
       id="Arrow1Mend"
       style="overflow:visible;"
       inkscape:isstock="true">
      <path
         id="path24897"
         d="M 0.0,0.0 L 5.0,-5.0 L -12.5,0.0 L 5.0,5.0 L 0.0,0.0 z "
         style="fill-rule:evenodd;stroke:#000000;stroke-width:1pt;stroke-opacity:1;fill:#000000;fill-opacity:1"
         transform="scale(0.4) rotate(180) translate(10,0)" />
    </marker>
    <marker
       inkscape:stockid="Arrow1Lend"
       orient="auto"
       refY="0.0"
       refX="0.0"
       id="Arrow1Lend"
       style="overflow:visible;"
       inkscape:isstock="true">
      <path
         id="path24891"
         d="M 0.0,0.0 L 5.0,-5.0 L -12.5,0.0 L 5.0,5.0 L 0.0,0.0 z "
         style="fill-rule:evenodd;stroke:#000000;stroke-width:1pt;stroke-opacity:1;fill:#000000;fill-opacity:1"
         transform="scale(0.8) rotate(180) translate(12.5,0)" />
    </marker>
    <marker
       inkscape:stockid="Arrow1Lstart"
       orient="auto"
       refY="0.0"
       refX="0.0"
       id="Arrow1Lstart"
       style="overflow:visible"
       inkscape:isstock="true">
      <path
         id="path24888"
         d="M 0.0,0.0 L 5.0,-5.0 L -12.5,0.0 L 5.0,5.0 L 0.0,0.0 z "
         style="fill-rule:evenodd;stroke:#000000;stroke-width:1pt;stroke-opacity:1;fill:#000000;fill-opacity:1"
         transform="scale(0.8) translate(12.5,0)" />
    </marker>
    <defs
       id="defs4" />
    <defs
       id="defs8572" />
    <defs
       id="defs8544" />
    <defs
       id="defs8516" />
    <defs
       id="defs8488" />
    <defs
       id="defs1220" />
    <defs
       id="defs1200" />
    <defs
       id="defs1180" />
    <defs
       id="defs1160" />
    <defs
       id="defs1140" />
    <defs
       id="defs1120" />
    <defs
       id="defs1100" />
    <defs
       id="defs1080" />
    <defs
       id="defs1060" />
    <defs
       id="defs1040" />
    <defs
       id="defs8369" />
    <defs
       id="defs8398" />
    <defs
       id="defs8428" />
    <defs
       id="defs8458" />
    <defs
       id="defs2" />
    <defs
       id="defs9396" />
    <marker
       inkscape:stockid="Arrow1Mstart"
       orient="auto"
       refY="0.0"
       refX="0.0"
       id="Arrow1Mstart-5"
       style="overflow:visible"
       inkscape:isstock="true">
      <path
         id="path24894-3"
         d="M 0.0,0.0 L 5.0,-5.0 L -12.5,0.0 L 5.0,5.0 L 0.0,0.0 z "
         style="fill-rule:evenodd;stroke:#000000;stroke-width:1pt;stroke-opacity:1;fill:#000000;fill-opacity:1"
         transform="scale(0.4) translate(10,0)" />
    </marker>
    <marker
       inkscape:stockid="Arrow1Mend"
       orient="auto"
       refY="0.0"
       refX="0.0"
       id="Arrow1Mend-5"
       style="overflow:visible;"
       inkscape:isstock="true">
      <path
         id="path24897-6"
         d="M 0.0,0.0 L 5.0,-5.0 L -12.5,0.0 L 5.0,5.0 L 0.0,0.0 z "
         style="fill-rule:evenodd;stroke:#000000;stroke-width:1pt;stroke-opacity:1;fill:#000000;fill-opacity:1"
         transform="scale(0.4) rotate(180) translate(10,0)" />
    </marker>
    <marker
       inkscape:stockid="Arrow1Lend"
       orient="auto"
       refY="0.0"
       refX="0.0"
       id="Arrow1Lend-2"
       style="overflow:visible;"
       inkscape:isstock="true">
      <path
         id="path24891-9"
         d="M 0.0,0.0 L 5.0,-5.0 L -12.5,0.0 L 5.0,5.0 L 0.0,0.0 z "
         style="fill-rule:evenodd;stroke:#000000;stroke-width:1pt;stroke-opacity:1;fill:#000000;fill-opacity:1"
         transform="scale(0.8) rotate(180) translate(12.5,0)" />
    </marker>
    <marker
       inkscape:stockid="Arrow1Lstart"
       orient="auto"
       refY="0.0"
       refX="0.0"
       id="Arrow1Lstart-1"
       style="overflow:visible"
       inkscape:isstock="true">
      <path
         id="path24888-2"
         d="M 0.0,0.0 L 5.0,-5.0 L -12.5,0.0 L 5.0,5.0 L 0.0,0.0 z "
         style="fill-rule:evenodd;stroke:#000000;stroke-width:1pt;stroke-opacity:1;fill:#000000;fill-opacity:1"
         transform="scale(0.8) translate(12.5,0)" />
    </marker>
    <defs
       id="defs4-7" />
    <defs
       id="defs8572-0" />
    <defs
       id="defs8544-9" />
    <defs
       id="defs8516-3" />
    <defs
       id="defs8488-6" />
    <defs
       id="defs1220-0" />
    <defs
       id="defs1200-6" />
    <defs
       id="defs1180-2" />
    <defs
       id="defs1160-6" />
    <defs
       id="defs1140-1" />
    <defs
       id="defs1120-8" />
    <defs
       id="defs1100-7" />
    <defs
       id="defs1080-9" />
    <defs
       id="defs1060-2" />
    <defs
       id="defs1040-0" />
    <defs
       id="defs8369-2" />
    <defs
       id="defs8398-3" />
    <defs
       id="defs8428-7" />
    <defs
       id="defs8458-5" />
    <defs
       id="defs2-9" />
    <defs
       id="defs9396-2" />
  </defs>
  <sodipodi:namedview
     pagecolor="#ffffff"
     bordercolor="#666666"
     borderopacity="1"
     objecttolerance="10"
     gridtolerance="10"
     guidetolerance="10"
     inkscape:pageopacity="0"
     inkscape:pageshadow="2"
     inkscape:window-width="640"
     inkscape:window-height="480"
     id="namedview9711"
     showgrid="false"
     showguides="true"
     inkscape:guide-bbox="true"
     inkscape:snap-bbox="true"
     inkscape:snap-center="true"
     inkscape:snap-bbox-midpoints="false"
     inkscape:snap-smooth-nodes="true"
     inkscape:snap-object-midpoints="true"
     fit-margin-top="2"
     fit-margin-left="2"
     fit-margin-right="2"
     fit-margin-bottom="2"
     inkscape:zoom="2.6714601"
     inkscape:cx="188.09939"
     inkscape:cy="188.84804"
     inkscape:current-layer="svg9709"
     inkscape:snap-to-guides="true"
     inkscape:snap-global="true"
     inkscape:object-paths="true"
     units="cm"
     inkscape:pagecheckerboard="0"
     inkscape:document-units="cm"
     inkscape:snap-grids="false"
     inkscape:bbox-nodes="true"
     inkscape:snap-page="true" />
  <g
     id="g5608"
     transform="matrix(-1,0,0,1,190.06007,216.78605)"
     style="fill:#3465a4" />
  <g
     id="g5927"
     transform="matrix(1,0,0,-1,129.32128,202.04605)"
     style="fill:#3465a4" />
  <g
     id="g5951"
     transform="matrix(0,1,1,0,154.23757,148.47776)"
     style="fill:#3465a4" />
  <g
     id="g5975"
     transform="matrix(0,1,1,0,150.63757,148.47776)"
     style="fill:#3465a4" />
  <g
     id="g5999"
     transform="matrix(0,1,1,0,170.43757,146.67776)"
     style="fill:#3465a4" />
  <g
     id="g6023"
     transform="matrix(0,1,1,0,166.83757,146.67776)"
     style="fill:#3465a4" />
  <g
     id="g6053"
     transform="matrix(1,0,0,-1,164.70057,173.67105)"
     style="fill:#3465a4" />
  <g
     style="fill:#3465a4"
     d="M2.338,3.401L2.338,3.401L2.338,3.401z"
     id="connector0terminal"
     transform="matrix(-1,0,0,1,164.15157,165.86805)" />
  <g
     style="fill:#3465a4"
     d="M11.551,3.401L11.551,3.401L11.551,3.401z"
     id="connector1terminal"
     transform="matrix(-1,0,0,1,164.15157,165.86805)" />
  <g
     style="fill:#3465a4"
     d="M2.338,3.401L2.338,3.401L2.338,3.401z"
     id="g6131"
     transform="matrix(-1,0,0,1,134.71057,191.86105)" />
  <g
     style="fill:#3465a4"
     d="M11.551,3.401L11.551,3.401L11.551,3.401z"
     id="g6135"
     transform="matrix(-1,0,0,1,134.71057,191.86105)" />
  <g
     gorn="0.0.5"
     id="g6233"
     transform="matrix(-1,0,0,1,197.62557,192.76905)"
     style="fill:#3465a4" />
  <g
     id="g6281"
     transform="matrix(-1,0,0,1,203.30586,200.39505)"
     style="fill:#3465a4" />
  <g
     id="g6307"
     transform="matrix(1,0,0,-1,197.72128,195.74605)"
     style="fill:#3465a4" />
  <g
     gorn="0.1.6"
     id="g6335"
     transform="matrix(-1,0,0,1,128.34057,200.86905)"
     style="fill:#3465a4" />
  <g
     id="g6357"
     transform="matrix(-1,0,0,1,140.30586,212.99505)"
     style="fill:#3465a4" />
  <g
     id="g6379"
     transform="matrix(-1,0,0,1,134.00586,212.99505)"
     style="fill:#3465a4" />
  <g
     id="g6401"
     transform="matrix(-1,0,0,1,134.90586,208.49505)"
     style="fill:#3465a4" />
  <g
     id="g6427"
     transform="matrix(1,0,0,-1,129.32128,205.64605)"
     style="fill:#3465a4" />
  <path
     style="fill:#3465a4;fill-opacity:1;stroke:none;stroke-width:1.41732;stroke-linecap:round;stroke-linejoin:round;stroke-miterlimit:4;stroke-dasharray:none;stroke-opacity:1;paint-order:markers stroke fill"
     d="m 179.71426,77.743612 c 0.1448,5.92237 -86.98966,-27.82371 -86.98966,0.25341 0,3.14079 -2.52816,5.66895 -5.66894,5.66895 h -8.39354 v -21.79685 c -1e-5,-0.78521 -0.63278,-1.41797 -1.41797,-1.41797 H 14.88143 c -0.78519,-1e-5 -1.41651,0.63277 -1.4165,1.41797 v 21.79685 H 5.66904 c -3.1408,0 -5.66894,-2.52816 -5.66894,-5.66895 v -14.14452 c 0,-6.28157 5.05777,-11.33788 11.33933,-11.33787 l 67.32269,-3e-5 c 60.40509,0 100.90734,19.30665 101.05214,25.22901 z m -92.54873,0.0175 c 0.0101,-1.40153 -1.11227,-2.54877 -2.51368,-2.56934 -1.40217,-0.0208 -2.55824,1.09407 -2.58837,2.49609 -0.0299,1.40117 1.07614,2.56409 2.47705,2.60449 l 0.0732,9.9e-4 c 1.40203,3.5e-4 2.54161,-1.13072 2.55176,-2.5327 z m -77.10197,0 c 0.0101,-1.40208 -1.11315,-2.54957 -2.51513,-2.56933 -1.40161,-0.0199 -2.55678,1.09466 -2.58692,2.49608 -0.0299,1.40117 1.07615,2.56408 2.47706,2.60449 l 0.0733,0.001 c 1.40202,3.6e-4 2.5416,-1.13072 2.55175,-2.5327 z"
     id="rect78"
     inkscape:connector-curvature="0"
     sodipodi:nodetypes="zsscsssscssscczacccccaccccacc" />
  <path
     style="fill:#3465a4;fill-opacity:1;stroke:none;stroke-width:1.41732;stroke-linecap:round;stroke-linejoin:round;stroke-miterlimit:4;stroke-dasharray:none;stroke-opacity:1;paint-order:markers stroke fill"
     d="m 102.25009,40.073726 c -0.1448,-5.92236 86.98965,27.82371 86.98965,-0.25341 0,-3.1408 2.52816,-5.66895 5.66894,-5.66895 h 8.39354 v 21.79685 c 1e-5,0.7852 0.63279,1.41797 1.41797,1.41797 h 62.36272 c 0.78519,0 1.41651,-0.63277 1.4165,-1.41797 v -21.79685 h 7.79589 c 3.14079,0 5.66894,2.52816 5.66894,5.66895 v 14.14451 c 10e-6,6.28158 -5.05778,11.33788 -11.33933,11.33788 l -67.32269,3e-5 c -60.40509,0 -100.90733,-19.30665 -101.05213,-25.22901 z m 92.54872,-0.0175 c -0.0101,1.40153 1.11227,2.54877 2.51368,2.56933 1.40217,0.0208 2.55824,-1.09407 2.58837,-2.49608 0.0299,-1.40117 -1.07614,-2.56409 -2.47705,-2.60449 l -0.0732,-9.9e-4 c -1.40203,-3.6e-4 -2.54161,1.13072 -2.55176,2.5327 z m 77.10197,0 c -0.0101,1.40208 1.11315,2.54956 2.51513,2.56933 1.40161,0.0199 2.55678,-1.09466 2.58691,-2.49608 0.0299,-1.40117 -1.07614,-2.56408 -2.47705,-2.60449 l -0.0733,-10e-4 c -1.40202,-3.7e-4 -2.5416,1.13072 -2.55175,2.53269 z"
     id="path3709"
     inkscape:connector-curvature="0"
     sodipodi:nodetypes="zsscsssscssscczacccccaccccacc" />
  <path
     style="fill:#3465a4;fill-opacity:1;stroke:none;stroke-width:1.41732;stroke-linecap:round;stroke-linejoin:round;stroke-miterlimit:4;stroke-dasharray:none;stroke-opacity:1;paint-order:markers stroke fill"
     d="m 179.71426,45.092244 c 0.14481,5.92237 -86.98967,-27.82371 -86.98966,0.25342 0,3.14079 -2.52816,5.66895 -5.66894,5.66894 h -8.39355 l -1e-5,-21.79685 c 0,-0.78521 -0.63278,-1.41797 -1.41797,-1.41797 l -62.36279,-2e-5 c -0.7852,-10e-6 -1.41652,0.63277 -1.41651,1.41796 l 1e-5,21.79683 H 5.66895 C 2.52816,51.014544 0,48.486384 -1e-5,45.345604 v -14.14449 c 0,-6.28157 5.05777,-11.33788 11.33934,-11.33787 l 67.32276,-1e-5 c 60.40512,1e-5 100.90737,19.30666 101.05217,25.22901 z m -92.54874,0.0175 c 0.0101,-1.40153 -1.11227,-2.54877 -2.51368,-2.56933 -1.40217,-0.0208 -2.55824,1.09407 -2.58837,2.49608 -0.0299,1.40117 1.07614,2.56409 2.47705,2.60449 l 0.0732,9.9e-4 c 1.40203,3.6e-4 2.54162,-1.13072 2.55176,-2.5327 z m -77.10205,-4e-5 c 0.0101,-1.40208 -1.11316,-2.54957 -2.51514,-2.56933 -1.40161,-0.0199 -2.55678,1.09466 -2.58691,2.49608 -0.0299,1.40117 1.07614,2.56407 2.47706,2.60448 l 0.0733,10e-4 c 1.40202,3.6e-4 2.54162,-1.13072 2.55176,-2.5327 z"
     id="path4156"
     inkscape:connector-curvature="0"
     sodipodi:nodetypes="zsscsssscssscczacccccaccccacc" />
  <path
     style="fill:#3465a4;fill-opacity:1;stroke:none;stroke-width:1.41732;stroke-linecap:round;stroke-linejoin:round;stroke-miterlimit:4;stroke-dasharray:none;stroke-opacity:1;paint-order:markers stroke fill"
     d="m 102.25009,7.4223583 c -0.14481,-5.92236 86.98965,27.8237097 86.98965,-0.25341 0,-3.14079 2.52816,-5.66895 5.66894,-5.66895 h 8.39354 V 23.296848 c 1e-5,0.78521 0.63278,1.41797 1.41797,1.41797 h 62.36271 c 0.78519,0 1.41651,-0.63277 1.4165,-1.41797 V 1.4999983 h 7.79589 c 3.14079,0 5.66894,2.52816 5.66894,5.66895 V 21.313458 c 1e-5,6.28158 -5.05778,11.33788 -11.33933,11.33788 l -67.32268,3e-5 c -60.40509,0 -100.90734,-19.30665 -101.05213,-25.2290097 z m 92.54872,-0.0175 c -0.0101,1.40153 1.11227,2.54877 2.51368,2.56934 1.40217,0.0208 2.55824,-1.09407 2.58837,-2.49609 0.0299,-1.40117 -1.07614,-2.56409 -2.47705,-2.60449 l -0.0732,-9.9e-4 c -1.40203,-3.6e-4 -2.54161,1.13072 -2.55176,2.5327 z m 77.10196,-10e-6 c -0.0101,1.40208 1.11315,2.54957 2.51513,2.56934 1.40161,0.0199 2.55678,-1.09466 2.58691,-2.49609 0.0299,-1.40116 -1.07614,-2.56407 -2.47705,-2.60448 l -0.0733,-0.001 c -1.40202,-3.7e-4 -2.5416,1.13072 -2.55175,2.53269 z"
     id="path4162"
     inkscape:connector-curvature="0"
     sodipodi:nodetypes="zsscsssscssscczacccccaccccacc" />
  <path
     style="fill:#3465a4;fill-opacity:1;stroke:none;stroke-width:1.41732;stroke-linecap:round;stroke-linejoin:round;stroke-miterlimit:4;stroke-dasharray:none;stroke-dashoffset:0;stroke-opacity:1;paint-order:markers stroke fill"
     d="m 207.96717,37.151384 v 8.36278 c 0,3.14078 2.52962,5.66894 5.67041,5.66894 l 45.09372,4.8e-4 c 3.14079,0 5.67041,-2.52816 5.67041,-5.66894 v -8.36278 c -23.59999,2.1e-4 -34.97459,-5.1e-4 -56.43454,-4.8e-4 z m 47.26462,9.07078 c -1.40062,0.0298 -2.5633,-1.07525 -2.60449,-2.47558 l -0.002,-0.0747 c 4.5e-4,-1.40145 1.1313,-2.54014 2.53271,-2.55029 1.40151,-0.0101 2.54876,1.11226 2.56933,2.51367 0.0199,1.40161 -1.09466,2.55678 -2.49609,2.58691 z m -37.98338,-4.8e-4 c -1.40118,0.0307 -2.56476,-1.07467 -2.60595,-2.47558 l -0.001,-0.0747 c 4.5e-4,-1.40145 1.13129,-2.54014 2.53271,-2.55029 1.40152,-0.0101 2.54876,1.11226 2.56933,2.51367 0.02,1.40105 -1.09377,2.55599 -2.49462,2.58691 z"
     id="path4523"
     inkscape:connector-curvature="0"
     sodipodi:nodetypes="csccsccccccccccccccsc" />
  <path
     style="fill:#3465a4;fill-opacity:1;stroke:none;stroke-width:1.41732;stroke-linecap:round;stroke-linejoin:round;stroke-miterlimit:4;stroke-dasharray:none;stroke-dashoffset:0;stroke-opacity:1;paint-order:markers stroke fill"
     d="m 74.244158,48.014632 v -8.36278 c 0,-3.14078 -2.52962,-5.66894 -5.67041,-5.66894 l -45.09372,-4.8e-4 c -3.14079,0 -5.67041,2.52816 -5.67041,5.66894 v 8.36278 c 23.59999,-2.1e-4 34.97459,5.1e-4 56.43454,4.8e-4 z m -47.26462,-9.07078 c 1.40062,-0.0298 2.5633,1.07525 2.60449,2.47558 l 0.002,0.0747 c -4.5e-4,1.40145 -1.1313,2.54014 -2.53271,2.55029 -1.40151,0.0101 -2.54876,-1.11226 -2.56933,-2.51367 -0.0199,-1.40161 1.09466,-2.55678 2.49609,-2.58691 z m 37.98338,4.8e-4 c 1.40118,-0.0307 2.56476,1.07467 2.60595,2.47558 l 0.001,0.0747 c -4.5e-4,1.40145 -1.13129,2.54014 -2.53271,2.55029 -1.40152,0.0101 -2.54876,-1.11226 -2.56933,-2.51367 -0.02,-1.40105 1.09377,-2.55599 2.49462,-2.58691 z"
     id="path4527"
     inkscape:connector-curvature="0"
     sodipodi:nodetypes="csccsccccccccccccccsc" />
  <path
     style="fill:#3465a4;fill-opacity:1;stroke:none;stroke-width:1.41732;stroke-linecap:round;stroke-linejoin:round;stroke-miterlimit:4;stroke-dasharray:none;stroke-dashoffset:0;stroke-opacity:1;paint-order:markers stroke fill"
     d="m 17.80961,64.950666 v 8.36278 c 0,3.14078 2.52962,5.66894 5.67041,5.66894 l 45.09372,4.8e-4 c 3.14079,0 5.67041,-2.52816 5.67041,-5.66894 v -8.36278 c -23.59999,2.1e-4 -34.97459,-5.1e-4 -56.43454,-4.8e-4 z m 47.26462,9.07078 c -1.40062,0.0298 -2.5633,-1.07525 -2.60449,-2.47558 l -0.002,-0.0747 c 4.5e-4,-1.40145 1.1313,-2.54014 2.53271,-2.55029 1.40151,-0.0101 2.54876,1.11226 2.56933,2.51367 0.0199,1.40161 -1.09466,2.55678 -2.49609,2.58691 z m -37.98338,-4.8e-4 c -1.40118,0.0307 -2.56476,-1.07467 -2.60595,-2.47558 l -0.001,-0.0747 c 4.5e-4,-1.40145 1.13129,-2.54014 2.53271,-2.55029 1.40152,-0.0101 2.54876,1.11226 2.56933,2.51367 0.02,1.40105 -1.09377,2.55599 -2.49462,2.58691 z"
     id="path4529"
     inkscape:connector-curvature="0"
     sodipodi:nodetypes="csccsccccccccccccccsc" />
  <path
     id="rect7536"
     style="fill:#3465a4;stroke-width:14.1732;stroke-linecap:round;stroke-linejoin:round;paint-order:markers stroke fill"
     d="m 102.04532,264.75418 c 2.6e-4,9.42239 7.58593,17.00829 17.00829,17.00829 9.42235,0 17.00654,-7.5859 17.00682,-17.00829 3.2e-4,-10.77117 -9.23731,-10.77113 -9.23731,-57.86565 0,-47.17755 9.23763,-47.17759 9.23731,-57.86566 -2.8e-4,-9.42239 -7.58447,-17.00831 -17.00682,-17.00831 -9.42236,0 -17.00803,7.58592 -17.00829,17.00831 -2.9e-4,10.68807 9.2373,10.68811 9.2373,57.86566 0,47.09452 -9.23759,47.09448 -9.2373,57.86565 z m 6.2373,0 c 0,-5.94837 4.82157,-10.7706 10.76952,-10.77098 5.94857,-4.3e-4 10.77098,4.82203 10.77098,10.77098 0,5.94896 -4.82241,10.77142 -10.77098,10.77099 -5.94795,-3.8e-4 -10.76952,-4.82261 -10.76952,-10.77099 z m 0.001,-115.80895 c 0,-5.9484 4.82157,-10.77058 10.76952,-10.771 5.94795,4.3e-4 10.76952,4.82261 10.76952,10.771 0,5.94838 -4.82157,10.77098 -10.76952,10.77099 -5.94795,0 -10.76952,-4.8226 -10.76952,-10.77099 z m 9.35302,98.79921 a 1.4167299,1.4172599 0 0 1 1.4165,-1.41797 1.4167299,1.4172599 0 0 1 1.4165,1.41797 1.4167299,1.4172599 0 0 1 -1.4165,1.41651 1.4167299,1.4172599 0 0 1 -1.4165,-1.41651 z m 0,-11.32908 a 1.4167299,1.4172599 0 0 1 1.4165,-1.41798 1.4167299,1.4172599 0 0 1 1.4165,1.41798 1.4167299,1.4172599 0 0 1 -1.4165,1.4165 1.4167299,1.4172599 0 0 1 -1.4165,-1.4165 z m 0,-11.33788 a 1.4167299,1.4172599 0 0 1 1.4165,-1.41798 1.4167299,1.4172599 0 0 1 1.4165,1.41798 1.4167299,1.4172599 0 0 1 -1.4165,1.4165 1.4167299,1.4172599 0 0 1 -1.4165,-1.4165 z m 0,-36.43942 a 1.4167299,1.4172599 0 0 1 1.4165,-1.41796 1.4167299,1.4172599 0 0 1 1.4165,1.41796 1.4167299,1.4172599 0 0 1 -1.4165,1.4165 1.4167299,1.4172599 0 0 1 -1.4165,-1.4165 z m 0,-11.33787 a 1.4167299,1.4172599 0 0 1 1.4165,-1.4165 1.4167299,1.4172599 0 0 1 1.4165,1.4165 1.4167299,1.4172599 0 0 1 -1.4165,1.41797 1.4167299,1.4172599 0 0 1 -1.4165,-1.41797 z m 0,-11.33935 a 1.4167299,1.4172599 0 0 1 1.4165,-1.41796 1.4167299,1.4172599 0 0 1 1.4165,1.41796 1.4167299,1.4172599 0 0 1 -1.4165,1.4165 1.4167299,1.4172599 0 0 1 -1.4165,-1.4165 z" />
  <path
     id="path9361"
     style="fill:#3465a4;stroke-width:14.1732;stroke-linecap:round;stroke-linejoin:round;paint-order:markers stroke fill"
     d="m 68.03022,251.25418 c 2.5e-4,9.42239 7.58593,17.0083 17.008281,17.00829 9.42235,0 17.006539,-7.5859 17.006809,-17.00829 3.2e-4,-10.77117 -9.237289,-10.77113 -9.237289,-57.86565 0,-47.17754 9.237619,-47.17759 9.237299,-57.86566 -2.8e-4,-9.42239 -7.584469,-17.00832 -17.006819,-17.00831 -9.422351,-1e-5 -17.008021,7.58591 -17.008291,17.0083 -2.9e-4,10.68808 9.2373,10.68813 9.2373,57.86567 0,47.09452 -9.23759,47.09448 -9.23729,57.86565 z m 6.2373,0 c 0,-5.94836 4.82156,-10.7706 10.769511,-10.77098 5.94858,-4.3e-4 10.77099,4.82203 10.77098,10.77098 1e-5,5.94896 -4.82241,10.77142 -10.77098,10.77099 -5.947951,-3.8e-4 -10.769521,-4.82261 -10.769511,-10.77099 z m 0.002,-115.80895 c -1e-5,-5.94841 4.82157,-10.77059 10.769521,-10.77101 5.94795,4.3e-4 10.76952,4.82262 10.76951,10.771 0,5.94839 -4.82156,10.77099 -10.76952,10.771 -5.947951,0 -10.769521,-4.8226 -10.769511,-10.77099 z m 9.353021,98.79922 a 1.4167299,1.4172599 0 0 1 1.4165,-1.41798 1.4167299,1.4172599 0 0 1 1.4165,1.41797 1.4167299,1.4172599 0 0 1 -1.4165,1.41651 1.4167299,1.4172599 0 0 1 -1.4165,-1.4165 z m 0,-11.32909 a 1.4167299,1.4172599 0 0 1 1.4165,-1.41798 1.4167299,1.4172599 0 0 1 1.4165,1.41798 1.4167299,1.4172599 0 0 1 -1.4165,1.4165 1.4167299,1.4172599 0 0 1 -1.4165,-1.4165 z m 0,-11.33788 a 1.4167299,1.4172599 0 0 1 1.4165,-1.41798 1.4167299,1.4172599 0 0 1 1.4165,1.41798 1.4167299,1.4172599 0 0 1 -1.4165,1.4165 1.4167299,1.4172599 0 0 1 -1.4165,-1.4165 z m 0,-36.43942 a 1.4167299,1.4172599 0 0 1 1.4165,-1.41795 1.4167299,1.4172599 0 0 1 1.4165,1.41795 1.4167299,1.4172599 0 0 1 -1.4165,1.4165 1.4167299,1.4172599 0 0 1 -1.4165,-1.4165 z m -1e-5,-11.33787 a 1.4167299,1.4172599 0 0 1 1.41651,-1.41651 1.4167299,1.4172599 0 0 1 1.4165,1.4165 1.4167299,1.4172599 0 0 1 -1.41651,1.41797 1.4167299,1.4172599 0 0 1 -1.4165,-1.41796 z m 1e-5,-11.33935 a 1.4167299,1.4172599 0 0 1 1.41649,-1.41796 1.4167299,1.4172599 0 0 1 1.4165,1.41796 1.4167299,1.4172599 0 0 1 -1.41649,1.4165 1.4167299,1.4172599 0 0 1 -1.4165,-1.4165 z" />
  <path
     id="path9363"
     style="fill:#3465a4;stroke-width:14.1732;stroke-linecap:round;stroke-linejoin:round;paint-order:markers stroke fill"
     d="M -9.9931721e-6,251.25415 C 2.4000683e-4,260.67654 7.58592,268.26244 17.00827,268.26244 c 9.42236,0 17.00654,-7.5859 17.00682,-17.00829 3.2e-4,-10.77118 -9.2373,-10.77114 -9.2373,-57.86566 0,-47.17755 9.23762,-47.17759 9.2373,-57.86565 -2.8e-4,-9.42239 -7.58446,-17.0083 -17.00682,-17.0083 -9.42235,0 -17.00801999317,7.58591 -17.0082799931721,17.0083 C -2.9999317e-4,146.2109 9.23729,146.21094 9.23729,193.38849 c 0,47.09452 -9.23758999317,47.09448 -9.2372999931721,57.86566 z m 6.2372999931721,0 c 0,-5.94838 4.82156,-10.77061 10.76951,-10.77099 5.94858,-4.3e-4 10.77099,4.82203 10.77099,10.77099 0,5.94896 -4.82241,10.77142 -10.77099,10.77099 -5.94795,-3.8e-4 -10.76951,-4.82261 -10.76951,-10.77099 z m 0.001,-115.80895 c 0,-5.9484 4.82157,-10.77058 10.76952,-10.771 5.94795,4.3e-4 10.76952,4.82261 10.76952,10.771 0,5.94837 -4.82157,10.77097 -10.76952,10.77098 -5.94795,0 -10.76952,-4.8226 -10.76952,-10.77098 z m 9.35302,98.7992 a 1.4167299,1.4172599 0 0 1 1.4165,-1.41797 1.4167299,1.4172599 0 0 1 1.4165,1.41797 1.4167299,1.4172599 0 0 1 -1.4165,1.41651 1.4167299,1.4172599 0 0 1 -1.4165,-1.41651 z m 0,-11.32908 a 1.4167299,1.4172599 0 0 1 1.4165,-1.41798 1.4167299,1.4172599 0 0 1 1.4165,1.41798 1.4167299,1.4172599 0 0 1 -1.4165,1.4165 1.4167299,1.4172599 0 0 1 -1.4165,-1.4165 z m 0,-11.33788 a 1.4167299,1.4172599 0 0 1 1.4165,-1.41798 1.4167299,1.4172599 0 0 1 1.4165,1.41798 1.4167299,1.4172599 0 0 1 -1.4165,1.4165 1.4167299,1.4172599 0 0 1 -1.4165,-1.4165 z m 0,-36.43942 a 1.4167299,1.4172599 0 0 1 1.4165,-1.41796 1.4167299,1.4172599 0 0 1 1.4165,1.41796 1.4167299,1.4172599 0 0 1 -1.4165,1.4165 1.4167299,1.4172599 0 0 1 -1.4165,-1.4165 z m 0,-11.33788 a 1.4167299,1.4172599 0 0 1 1.4165,-1.4165 1.4167299,1.4172599 0 0 1 1.4165,1.4165 1.4167299,1.4172599 0 0 1 -1.4165,1.41797 1.4167299,1.4172599 0 0 1 -1.4165,-1.41797 z m 0,-11.33934 a 1.4167299,1.4172599 0 0 1 1.4165,-1.41796 1.4167299,1.4172599 0 0 1 1.4165,1.41796 1.4167299,1.4172599 0 0 1 -1.4165,1.4165 1.4167299,1.4172599 0 0 1 -1.4165,-1.4165 z" />
  <path
     id="path9365"
     style="fill:#3465a4;stroke-width:14.1732;stroke-linecap:round;stroke-linejoin:round;paint-order:markers stroke fill"
     d="m 68.03023,264.75414 c -2.4e-4,9.42239 -7.58593,17.0083 -17.00828,17.00829 -9.42236,0 -17.00656,-7.58589 -17.00686,-17.00827 -3.1e-4,-10.7712 9.23732,-10.77114 9.23731,-57.86566 0,-47.17754 -9.23763,-47.17759 -9.23731,-57.86566 2.8e-4,-9.42238 7.58446,-17.00829 17.00685,-17.00827 9.42235,1e-5 17.00801,7.58591 17.00827,17.00829 2.9e-4,10.68807 -9.23728,10.68811 -9.23728,57.86565 0,47.09451 9.23759,47.09448 9.2373,57.86566 z m -6.23729,10e-6 c 10e-6,-5.94838 -4.82157,-10.77063 -10.76948,-10.77104 -5.94859,-4.2e-4 -10.77101,4.82205 -10.77101,10.771 0,5.94896 4.82241,10.77141 10.771,10.77098 5.94796,-3.7e-4 10.76953,-4.82259 10.76954,-10.77096 z m -0.001,-115.80896 c 0,-5.94839 -4.82157,-10.77057 -10.76954,-10.77096 -5.94795,4.2e-4 -10.76953,4.8226 -10.76955,10.77096 -1e-5,5.94837 4.82157,10.77098 10.76956,10.77098 5.94794,-2e-5 10.76951,-4.82262 10.76954,-10.77096 z m -9.35301,98.79919 a 1.4167299,1.4172599 0 0 0 -1.41653,-1.41794 1.4167299,1.4172599 0 0 0 -1.41653,1.41795 1.4167299,1.4172599 0 0 0 1.41651,1.41651 1.4167299,1.4172599 0 0 0 1.41649,-1.41652 z m 1e-5,-11.32907 a 1.4167299,1.4172599 0 0 0 -1.41654,-1.41796 1.4167299,1.4172599 0 0 0 -1.41654,1.41796 1.4167299,1.4172599 0 0 0 1.41651,1.41649 1.4167299,1.4172599 0 0 0 1.4165,-1.4165 z m 0,-11.33788 a 1.4167299,1.4172599 0 0 0 -1.41654,-1.41796 1.4167299,1.4172599 0 0 0 -1.41654,1.41795 1.4167299,1.4172599 0 0 0 1.41651,1.4165 1.4167299,1.4172599 0 0 0 1.41651,-1.41649 z m 0,-36.43942 a 1.4167299,1.4172599 0 0 0 -1.41653,-1.41794 1.4167299,1.4172599 0 0 0 -1.41652,1.41794 1.4167299,1.4172599 0 0 0 1.4165,1.4165 1.4167299,1.4172599 0 0 0 1.41651,-1.41649 z m -1e-5,-11.33789 a 1.4167299,1.4172599 0 0 0 -1.4165,-1.41648 1.4167299,1.4172599 0 0 0 -1.41651,1.41649 1.4167299,1.4172599 0 0 0 1.41653,1.41794 1.4167299,1.4172599 0 0 0 1.41652,-1.41794 z m 0,-11.33933 a 1.4167299,1.4172599 0 0 0 -1.41652,-1.41794 1.4167299,1.4172599 0 0 0 -1.41653,1.41794 1.4167299,1.4172599 0 0 0 1.41651,1.4165 1.4167299,1.4172599 0 0 0 1.4165,-1.4165 z" />
  <path
     style="fill:#3465a4;fill-opacity:1;stroke:none;stroke-width:1.41732;stroke-linecap:round;stroke-linejoin:round;stroke-miterlimit:4;stroke-dasharray:none;stroke-dashoffset:0;stroke-opacity:1;paint-order:markers stroke fill"
     d="m 264.40171,20.215331 v -8.36278 c 0,-3.1407803 -2.52962,-5.6689407 -5.67041,-5.6689407 l -45.09372,-4.8e-4 c -3.14079,0 -5.67041,2.5281604 -5.67041,5.6689407 v 8.36278 c 23.59999,-2.1e-4 34.97459,5.1e-4 56.43454,4.8e-4 z m -47.26462,-9.07078 c 1.40062,-0.0298 2.5633,1.07525 2.60449,2.47558 l 0.002,0.0747 c -4.5e-4,1.40145 -1.1313,2.54014 -2.53271,2.55029 -1.40151,0.0101 -2.54876,-1.11226 -2.56933,-2.51367 -0.0199,-1.40161 1.09466,-2.55678 2.49609,-2.58691 z m 37.98338,4.8e-4 c 1.40118,-0.0307 2.56476,1.07467 2.60595,2.47558 l 10e-4,0.0747 c -4.5e-4,1.40145 -1.13129,2.54014 -2.53271,2.55029 -1.40152,0.0101 -2.54876,-1.11226 -2.56933,-2.51367 -0.02,-1.40105 1.09377,-2.55599 2.49462,-2.58691 z"
     id="path9425"
     inkscape:connector-curvature="0"
     sodipodi:nodetypes="csccsccccccccccccccsc" />
  <path
     style="fill:#3465a4;fill-opacity:1;stroke:none;stroke-width:1.41732;stroke-linecap:round;stroke-linejoin:round;stroke-miterlimit:4;stroke-dasharray:none;stroke-opacity:1;paint-order:markers stroke fill"
     d="m 102.25009,106.07365 c -0.1448,-5.92237 86.98965,27.82374 86.98965,-0.25342 0,-3.1408 2.52816,-5.66895 5.66894,-5.66895 h 8.39354 v 21.79688 c 1e-5,0.7852 0.63279,1.41797 1.41797,1.41797 h 62.36272 c 0.78519,0 1.41651,-0.63277 1.4165,-1.41797 v -21.79688 h 7.79589 c 3.14079,0 5.66894,2.52816 5.66894,5.66895 v 14.14453 c 10e-6,6.28159 -5.05778,11.3379 -11.33933,11.3379 l -67.32269,3e-5 c -60.40509,0 -100.90733,-19.30668 -101.05213,-25.22904 z m 92.54872,-0.0175 c -0.0101,1.40153 1.11227,2.54877 2.51368,2.56933 1.40217,0.0208 2.55824,-1.09407 2.58837,-2.49608 0.0299,-1.40118 -1.07614,-2.5641 -2.47705,-2.6045 l -0.0732,-9.9e-4 c -1.40203,-3.6e-4 -2.54161,1.13072 -2.55176,2.53271 z m 77.10197,0 c -0.0101,1.40208 1.11315,2.54956 2.51513,2.56933 1.40161,0.0199 2.55678,-1.09466 2.58691,-2.49608 0.0299,-1.40118 -1.07614,-2.56409 -2.47705,-2.6045 l -0.0733,-0.001 c -1.40202,-3.7e-4 -2.5416,1.13072 -2.55175,2.5327 z"
     id="path259"
     inkscape:connector-curvature="0"
     sodipodi:nodetypes="zsscsssscssscczacccccaccccacc" />
  <path
     style="fill:#3465a4;fill-opacity:1;stroke:none;stroke-width:1.41732;stroke-linecap:round;stroke-linejoin:round;stroke-miterlimit:4;stroke-dasharray:none;stroke-opacity:1;paint-order:markers stroke fill"
     d="m 179.71426,111.09217 c 0.14481,5.92238 -86.98967,-27.823724 -86.98966,0.25342 0,3.14079 -2.52816,5.66896 -5.66894,5.66895 h -8.39355 l -1e-5,-21.796874 c 0,-0.78521 -0.63278,-1.41797 -1.41797,-1.41797 l -62.36279,-2e-5 c -0.7852,-1e-5 -1.41652,0.63277 -1.41651,1.41796 l 1e-5,21.796854 H 5.66895 C 2.52816,117.01448 0,114.48631 -1e-5,111.34553 V 97.201026 c 0,-6.28157 5.05777,-11.33788 11.33934,-11.33787 l 67.32276,-1e-5 c 60.40512,1e-5 100.90737,19.306664 101.05217,25.229024 z m -92.54874,0.0175 c 0.0101,-1.40153 -1.11227,-2.54877 -2.51368,-2.56933 -1.40217,-0.0208 -2.55824,1.09407 -2.58837,2.49608 -0.0299,1.40117 1.07614,2.56409 2.47705,2.60449 l 0.0732,9.9e-4 c 1.40203,3.6e-4 2.54162,-1.13072 2.55176,-2.5327 z m -77.10205,-4e-5 c 0.0101,-1.40208 -1.11316,-2.54957 -2.51514,-2.56933 -1.40161,-0.0199 -2.55678,1.09466 -2.58691,2.49608 -0.0299,1.40117 1.07614,2.56407 2.47706,2.60448 l 0.0733,10e-4 c 1.40202,3.6e-4 2.54162,-1.13072 2.55176,-2.5327 z"
     id="path261"
     inkscape:connector-curvature="0"
     sodipodi:nodetypes="zsscsssscssscczacccccaccccacc" />
  <path
     style="fill:#3465a4;fill-opacity:1;stroke:none;stroke-width:1.41732;stroke-linecap:round;stroke-linejoin:round;stroke-miterlimit:4;stroke-dasharray:none;stroke-opacity:1;paint-order:markers stroke fill"
     d="m 102.25009,73.422271 c -0.14481,-5.922359 86.98965,27.823709 86.98965,-0.25341 0,-3.14079 2.52816,-5.668949 5.66894,-5.668949 h 8.39354 V 89.29676 c 1e-5,0.78521 0.63278,1.41797 1.41797,1.41797 h 62.36271 c 0.78519,0 1.41651,-0.63277 1.4165,-1.41797 V 67.499912 h 7.79589 c 3.14079,0 5.66894,2.528159 5.66894,5.668949 V 87.31337 c 1e-5,6.28158 -5.05778,11.33788 -11.33933,11.33788 l -67.32268,3e-5 c -60.40509,0 -100.90734,-19.30665 -101.05213,-25.229009 z m 92.54872,-0.0175 c -0.0101,1.40153 1.11227,2.54877 2.51368,2.56934 1.40217,0.0208 2.55824,-1.09407 2.58837,-2.49609 0.0299,-1.40117 -1.07614,-2.56409 -2.47705,-2.60449 l -0.0732,-9.9e-4 c -1.40203,-3.6e-4 -2.54161,1.13072 -2.55176,2.5327 z m 77.10196,-1e-5 c -0.0101,1.40208 1.11315,2.54957 2.51513,2.56934 1.40161,0.0199 2.55678,-1.09466 2.58691,-2.49609 0.0299,-1.40116 -1.07614,-2.56407 -2.47705,-2.60448 l -0.0733,-0.001 c -1.40202,-3.7e-4 -2.5416,1.13072 -2.55175,2.53269 z"
     id="path263"
     inkscape:connector-curvature="0"
     sodipodi:nodetypes="zsscsssscssscczacccccaccccacc" />
  <path
     style="fill:#3465a4;fill-opacity:1;stroke:none;stroke-width:1.41732;stroke-linecap:round;stroke-linejoin:round;stroke-miterlimit:4;stroke-dasharray:none;stroke-dashoffset:0;stroke-opacity:1;paint-order:markers stroke fill"
     d="m 207.96717,103.1513 v 8.36279 c 0,3.14078 2.52962,5.66895 5.67041,5.66895 l 45.09372,4.8e-4 c 3.14079,0 5.67041,-2.52817 5.67041,-5.66895 v -8.36279 c -23.59999,2.1e-4 -34.97459,-5.1e-4 -56.43454,-4.8e-4 z m 47.26462,9.07079 c -1.40062,0.0298 -2.5633,-1.07525 -2.60449,-2.47558 l -0.002,-0.0747 c 4.5e-4,-1.40145 1.1313,-2.54015 2.53271,-2.5503 1.40151,-0.0101 2.54876,1.11227 2.56933,2.51368 0.0199,1.40161 -1.09466,2.55678 -2.49609,2.58691 z m -37.98338,-4.8e-4 c -1.40118,0.0307 -2.56476,-1.07467 -2.60595,-2.47558 l -0.001,-0.0747 c 4.5e-4,-1.40145 1.13129,-2.54015 2.53271,-2.5503 1.40152,-0.0101 2.54876,1.11227 2.56933,2.51368 0.02,1.40105 -1.09377,2.55599 -2.49462,2.58691 z"
     id="path265"
     inkscape:connector-curvature="0"
     sodipodi:nodetypes="csccsccccccccccccccsc" />
  <path
     style="fill:#3465a4;fill-opacity:1;stroke:none;stroke-width:1.41732;stroke-linecap:round;stroke-linejoin:round;stroke-miterlimit:4;stroke-dasharray:none;stroke-dashoffset:0;stroke-opacity:1;paint-order:markers stroke fill"
     d="m 74.244158,114.01456 v -8.36279 c 0,-3.14078 -2.52962,-5.668946 -5.67041,-5.668946 l -45.09372,-4.8e-4 c -3.14079,0 -5.67041,2.528166 -5.67041,5.668946 v 8.36279 c 23.59999,-2.1e-4 34.97459,5.1e-4 56.43454,4.8e-4 z m -47.26462,-9.07079 c 1.40062,-0.0298 2.5633,1.07525 2.60449,2.47558 l 0.002,0.0747 c -4.5e-4,1.40145 -1.1313,2.54015 -2.53271,2.5503 -1.40151,0.0101 -2.54876,-1.11227 -2.56933,-2.51368 -0.0199,-1.40161 1.09466,-2.55678 2.49609,-2.58691 z m 37.98338,4.8e-4 c 1.40118,-0.0307 2.56476,1.07467 2.60595,2.47558 l 0.001,0.0747 c -4.5e-4,1.40145 -1.13129,2.54015 -2.53271,2.5503 -1.40152,0.0101 -2.54876,-1.11227 -2.56933,-2.51368 -0.02,-1.40105 1.09377,-2.55599 2.49462,-2.58691 z"
     id="path267"
     inkscape:connector-curvature="0"
     sodipodi:nodetypes="csccsccccccccccccccsc" />
  <path
     style="fill:#3465a4;fill-opacity:1;stroke:none;stroke-width:1.41732;stroke-linecap:round;stroke-linejoin:round;stroke-miterlimit:4;stroke-dasharray:none;stroke-dashoffset:0;stroke-opacity:1;paint-order:markers stroke fill"
     d="m 264.40171,86.215243 v -8.36278 c 0,-3.14078 -2.52962,-5.66894 -5.67041,-5.66894 l -45.09372,-4.8e-4 c -3.14079,0 -5.67041,2.52816 -5.67041,5.66894 v 8.36278 c 23.59999,-2.1e-4 34.97459,5.1e-4 56.43454,4.8e-4 z m -47.26462,-9.07078 c 1.40062,-0.0298 2.5633,1.07525 2.60449,2.47558 l 0.002,0.0747 c -4.5e-4,1.40145 -1.1313,2.54014 -2.53271,2.55029 -1.40151,0.0101 -2.54876,-1.11226 -2.56933,-2.51367 -0.0199,-1.40161 1.09466,-2.55678 2.49609,-2.58691 z m 37.98338,4.8e-4 c 1.40118,-0.0307 2.56476,1.07467 2.60595,2.47558 l 10e-4,0.0747 c -4.5e-4,1.40145 -1.13129,2.54014 -2.53271,2.55029 -1.40152,0.0101 -2.54876,-1.11226 -2.56933,-2.51367 -0.02,-1.40105 1.09377,-2.55599 2.49462,-2.58691 z"
     id="path271"
     inkscape:connector-curvature="0"
     sodipodi:nodetypes="csccsccccccccccccccsc" />
  <path
     id="path295"
     style="fill:#3465a4;stroke-width:14.1732;stroke-linecap:round;stroke-linejoin:round;paint-order:markers stroke fill"
     d="m 173.44722,149.22467 c 2.4e-4,-9.4224 7.58593,-17.0083 17.00829,-17.0083 9.42235,10e-6 17.00656,7.5859 17.00685,17.00828 3.1e-4,10.7712 -9.23732,10.77114 -9.23731,57.86566 1e-5,47.17754 9.23764,47.17759 9.23731,57.86566 -2.8e-4,9.42238 -7.58445,17.00829 -17.00685,17.00827 -9.42235,-2e-5 -17.00801,-7.58591 -17.00827,-17.00829 -3e-4,-10.68807 9.23728,-10.68811 9.23728,-57.86565 -1e-5,-47.09451 -9.23759,-47.09448 -9.2373,-57.86566 z m 6.23729,-1e-5 c -10e-6,5.94838 4.82156,10.77063 10.76949,10.77104 5.94859,4.2e-4 10.771,-4.82205 10.771,-10.771 1e-5,-5.94896 -4.82241,-10.77141 -10.771,-10.77098 -5.94796,3.7e-4 -10.76953,4.82259 -10.76954,10.77096 z m 9.9e-4,115.80896 c 0,5.94839 4.82157,10.77057 10.76956,10.77096 5.94795,-4.2e-4 10.76953,-4.8226 10.76954,-10.77096 2e-5,-5.94837 -4.82156,-10.77098 -10.76956,-10.77098 -5.94794,2e-5 -10.76951,4.82262 -10.76954,10.77096 z m 9.35303,-98.79919 a 1.4167299,1.4172599 0 0 0 1.41653,1.41794 1.4167299,1.4172599 0 0 0 1.41653,-1.41796 1.4167299,1.4172599 0 0 0 -1.41652,-1.4165 1.4167299,1.4172599 0 0 0 -1.41649,1.41652 z m -1e-5,11.32907 a 1.4167299,1.4172599 0 0 0 1.41654,1.41795 1.4167299,1.4172599 0 0 0 1.41654,-1.41794 1.4167299,1.4172599 0 0 0 -1.41652,-1.4165 1.4167299,1.4172599 0 0 0 -1.4165,1.4165 z m 0,11.33788 a 1.4167299,1.4172599 0 0 0 1.41654,1.41796 1.4167299,1.4172599 0 0 0 1.41654,-1.41795 1.4167299,1.4172599 0 0 0 -1.41652,-1.4165 1.4167299,1.4172599 0 0 0 -1.4165,1.41649 z m -1e-5,36.43942 a 1.4167299,1.4172599 0 0 0 1.41654,1.41794 1.4167299,1.4172599 0 0 0 1.41652,-1.41794 1.4167299,1.4172599 0 0 0 -1.41651,-1.4165 1.4167299,1.4172599 0 0 0 -1.41651,1.41649 z m 1e-5,11.33789 a 1.4167299,1.4172599 0 0 0 1.4165,1.41648 1.4167299,1.4172599 0 0 0 1.41652,-1.41649 1.4167299,1.4172599 0 0 0 -1.41653,-1.41794 1.4167299,1.4172599 0 0 0 -1.41653,1.41794 z m 1e-5,11.33933 a 1.4167299,1.4172599 0 0 0 1.41652,1.41794 1.4167299,1.4172599 0 0 0 1.41652,-1.41794 1.4167299,1.4172599 0 0 0 -1.4165,-1.4165 1.4167299,1.4172599 0 0 0 -1.41651,1.41651 z" />
  <path
     id="path297"
     style="fill:#3465a4;stroke-width:14.1732;stroke-linecap:round;stroke-linejoin:round;paint-order:markers stroke fill"
     d="m 137.56043,149.0229 c 2.4e-4,-9.42241 7.58593,-17.00831 17.00829,-17.00831 9.42235,1e-5 17.00656,7.5859 17.00685,17.00829 3.1e-4,10.7712 -9.23732,10.77114 -9.23731,57.86565 1e-5,47.17755 9.23764,47.1776 9.23731,57.86567 -2.8e-4,9.42238 -7.58445,17.00829 -17.00685,17.00827 -9.42235,-2e-5 -17.00801,-7.58591 -17.00827,-17.00829 -3e-4,-10.68807 9.23728,-10.68811 9.23728,-57.86566 -1e-5,-47.0945 -9.23759,-47.09447 -9.2373,-57.86565 z m 6.23729,-1e-5 c -1e-5,5.94838 4.82156,10.77063 10.76949,10.77104 5.94859,4.2e-4 10.771,-4.82205 10.771,-10.771 1e-5,-5.94897 -4.82241,-10.77142 -10.771,-10.77099 -5.94796,3.7e-4 -10.76953,4.82259 -10.76954,10.77097 z m 9.9e-4,115.80896 c 0,5.94839 4.82157,10.77057 10.76956,10.77096 5.94795,-4.2e-4 10.76953,-4.8226 10.76954,-10.77096 2e-5,-5.94837 -4.82156,-10.77098 -10.76956,-10.77098 -5.94794,2e-5 -10.76951,4.82262 -10.76954,10.77096 z m 9.35303,-98.79919 a 1.4167299,1.4172599 0 0 0 1.41653,1.41794 1.4167299,1.4172599 0 0 0 1.41653,-1.41796 1.4167299,1.4172599 0 0 0 -1.41652,-1.4165 1.4167299,1.4172599 0 0 0 -1.41649,1.41652 z m -1e-5,11.32907 a 1.4167299,1.4172599 0 0 0 1.41654,1.41795 1.4167299,1.4172599 0 0 0 1.41654,-1.41794 1.4167299,1.4172599 0 0 0 -1.41652,-1.4165 1.4167299,1.4172599 0 0 0 -1.4165,1.4165 z m -10e-6,11.33787 a 1.4167299,1.4172599 0 0 0 1.41655,1.41796 1.4167299,1.4172599 0 0 0 1.41653,-1.41795 1.4167299,1.4172599 0 0 0 -1.41651,-1.4165 1.4167299,1.4172599 0 0 0 -1.4165,1.41649 z m 0,36.43942 a 1.4167299,1.4172599 0 0 0 1.41654,1.41794 1.4167299,1.4172599 0 0 0 1.41652,-1.41794 1.4167299,1.4172599 0 0 0 -1.41651,-1.4165 1.4167299,1.4172599 0 0 0 -1.41651,1.41649 z m 10e-6,11.3379 a 1.4167299,1.4172599 0 0 0 1.4165,1.41648 1.4167299,1.4172599 0 0 0 1.41652,-1.41649 1.4167299,1.4172599 0 0 0 -1.41653,-1.41794 1.4167299,1.4172599 0 0 0 -1.41653,1.41794 z m 1e-5,11.33933 a 1.4167299,1.4172599 0 0 0 1.41652,1.41794 1.4167299,1.4172599 0 0 0 1.41652,-1.41794 1.4167299,1.4172599 0 0 0 -1.4165,-1.4165 1.4167299,1.4172599 0 0 0 -1.41651,1.41651 z" />
  <path
     id="path299"
     style="fill:#3465a4;stroke-width:14.1732;stroke-linecap:round;stroke-linejoin:round;paint-order:markers stroke fill"
     d="m 208.96234,149.22469 c 2.4e-4,-9.4224 7.58593,-17.0083 17.00829,-17.0083 9.42235,1e-5 17.00656,7.5859 17.00685,17.00828 3.1e-4,10.7712 -9.23732,10.77114 -9.23731,57.86566 1e-5,47.17754 9.23764,47.17759 9.23731,57.86566 -2.8e-4,9.42238 -7.58445,17.00829 -17.00685,17.00827 -9.42235,-2e-5 -17.00801,-7.58591 -17.00827,-17.00829 -3e-4,-10.68807 9.23728,-10.68811 9.23728,-57.86565 -10e-6,-47.09451 -9.23759,-47.09448 -9.2373,-57.86566 z m 6.23729,-1e-5 c -1e-5,5.94838 4.82156,10.77063 10.76949,10.77104 5.94859,4.2e-4 10.771,-4.82205 10.771,-10.771 1e-5,-5.94896 -4.82241,-10.77141 -10.771,-10.77098 -5.94796,3.7e-4 -10.76953,4.82259 -10.76954,10.77096 z m 9.9e-4,115.80896 c 0,5.94839 4.82157,10.77057 10.76956,10.77096 5.94795,-4.2e-4 10.76953,-4.8226 10.76954,-10.77096 2e-5,-5.94837 -4.82156,-10.77098 -10.76956,-10.77098 -5.94794,2e-5 -10.76951,4.82262 -10.76954,10.77096 z m 9.35303,-98.79919 a 1.4167299,1.4172599 0 0 0 1.41653,1.41794 1.4167299,1.4172599 0 0 0 1.41653,-1.41796 1.4167299,1.4172599 0 0 0 -1.41652,-1.4165 1.4167299,1.4172599 0 0 0 -1.41649,1.41652 z m -1e-5,11.32907 a 1.4167299,1.4172599 0 0 0 1.41654,1.41795 1.4167299,1.4172599 0 0 0 1.41654,-1.41794 1.4167299,1.4172599 0 0 0 -1.41652,-1.4165 1.4167299,1.4172599 0 0 0 -1.4165,1.4165 z m 0,11.33788 a 1.4167299,1.4172599 0 0 0 1.41654,1.41796 1.4167299,1.4172599 0 0 0 1.41654,-1.41795 1.4167299,1.4172599 0 0 0 -1.41652,-1.4165 1.4167299,1.4172599 0 0 0 -1.4165,1.41649 z m -1e-5,36.43942 a 1.4167299,1.4172599 0 0 0 1.41654,1.41794 1.4167299,1.4172599 0 0 0 1.41652,-1.41794 1.4167299,1.4172599 0 0 0 -1.41651,-1.4165 1.4167299,1.4172599 0 0 0 -1.41651,1.41649 z m 1e-5,11.33789 a 1.4167299,1.4172599 0 0 0 1.4165,1.41648 1.4167299,1.4172599 0 0 0 1.41652,-1.41649 1.4167299,1.4172599 0 0 0 -1.41653,-1.41794 1.4167299,1.4172599 0 0 0 -1.41653,1.41794 z m 1e-5,11.33933 a 1.4167299,1.4172599 0 0 0 1.41652,1.41794 1.4167299,1.4172599 0 0 0 1.41652,-1.41794 1.4167299,1.4172599 0 0 0 -1.4165,-1.4165 1.4167299,1.4172599 0 0 0 -1.41651,1.41651 z" />
  <path
     id="path463"
     style="fill:#3465a4;stroke-width:14.1732;stroke-linecap:round;stroke-linejoin:round;paint-order:markers stroke fill"
     d="m 244.47746,149.22471 c 2.4e-4,-9.4224 7.58593,-17.0083 17.00829,-17.0083 9.42235,1e-5 17.00656,7.5859 17.00685,17.00828 3.1e-4,10.7712 -9.23732,10.77114 -9.23731,57.86566 10e-6,47.17754 9.23764,47.17759 9.23731,57.86566 -2.8e-4,9.42238 -7.58445,17.00829 -17.00685,17.00827 -9.42235,-2e-5 -17.00801,-7.58591 -17.00827,-17.00829 -3e-4,-10.68807 9.23728,-10.68811 9.23728,-57.86565 -1e-5,-47.09451 -9.23759,-47.09448 -9.2373,-57.86566 z m 6.23729,-10e-6 c -1e-5,5.94838 4.82156,10.77063 10.76949,10.77104 5.94859,4.2e-4 10.771,-4.82205 10.771,-10.771 10e-6,-5.94896 -4.82241,-10.77141 -10.771,-10.77098 -5.94796,3.7e-4 -10.76953,4.82259 -10.76954,10.77096 z m 9.9e-4,115.80896 c 0,5.94839 4.82157,10.77057 10.76956,10.77096 5.94795,-4.2e-4 10.76953,-4.8226 10.76954,-10.77096 2e-5,-5.94837 -4.82156,-10.77098 -10.76956,-10.77098 -5.94794,2e-5 -10.76951,4.82262 -10.76954,10.77096 z m 9.35303,-98.79919 a 1.4167299,1.4172599 0 0 0 1.41653,1.41794 1.4167299,1.4172599 0 0 0 1.41653,-1.41796 1.4167299,1.4172599 0 0 0 -1.41652,-1.4165 1.4167299,1.4172599 0 0 0 -1.41649,1.41652 z m -10e-6,11.32907 a 1.4167299,1.4172599 0 0 0 1.41654,1.41795 1.4167299,1.4172599 0 0 0 1.41654,-1.41794 1.4167299,1.4172599 0 0 0 -1.41652,-1.4165 1.4167299,1.4172599 0 0 0 -1.4165,1.4165 z m 0,11.33788 a 1.4167299,1.4172599 0 0 0 1.41654,1.41796 1.4167299,1.4172599 0 0 0 1.41654,-1.41795 1.4167299,1.4172599 0 0 0 -1.41652,-1.4165 1.4167299,1.4172599 0 0 0 -1.4165,1.41649 z m -10e-6,36.43942 a 1.4167299,1.4172599 0 0 0 1.41654,1.41794 1.4167299,1.4172599 0 0 0 1.41652,-1.41794 1.4167299,1.4172599 0 0 0 -1.41651,-1.4165 1.4167299,1.4172599 0 0 0 -1.41651,1.41649 z m 10e-6,11.33789 a 1.4167299,1.4172599 0 0 0 1.4165,1.41648 1.4167299,1.4172599 0 0 0 1.41652,-1.41649 1.4167299,1.4172599 0 0 0 -1.41653,-1.41794 1.4167299,1.4172599 0 0 0 -1.41653,1.41794 z m 10e-6,11.33933 a 1.4167299,1.4172599 0 0 0 1.41652,1.41794 1.4167299,1.4172599 0 0 0 1.41652,-1.41794 1.4167299,1.4172599 0 0 0 -1.4165,-1.4165 1.4167299,1.4172599 0 0 0 -1.41651,1.41651 z" />
  <path
     style="fill:#3465a4;fill-opacity:1;stroke:none;stroke-width:1.41732;stroke-linecap:round;stroke-linejoin:round;stroke-miterlimit:4;stroke-dasharray:none;stroke-dashoffset:0;stroke-opacity:1;paint-order:markers stroke fill"
     d="M 74.244158,16.514668 V 8.1518881 c 0,-3.14078 -2.52962,-5.66894 -5.67041,-5.66894 l -45.09372,-4.8e-4 c -3.14079,0 -5.67041,2.52816 -5.67041,5.66894 v 8.3627799 c 23.59999,-2.1e-4 34.97459,5.1e-4 56.43454,4.8e-4 z M 26.979538,7.4438881 c 1.40062,-0.0298 2.5633,1.0752496 2.60449,2.4755796 l 0.002,0.0747 c -4.5e-4,1.4014503 -1.1313,2.5401403 -2.53271,2.5502903 -1.40151,0.0101 -2.54876,-1.11226 -2.56933,-2.51367 -0.0199,-1.4016103 1.09466,-2.5567799 2.49609,-2.5869099 z m 37.98338,4.8e-4 c 1.40118,-0.0307 2.56476,1.0746696 2.60595,2.4755796 l 0.001,0.0747 c -4.5e-4,1.4014503 -1.13129,2.5401403 -2.53271,2.5502903 -1.40152,0.0101 -2.54876,-1.11226 -2.56933,-2.51367 -0.02,-1.4010503 1.09377,-2.5559899 2.49462,-2.5869099 z"
     id="path465"
     inkscape:connector-curvature="0"
     sodipodi:nodetypes="csccsccccccccccccccsc" />
  <path
     style="fill:#3465a4;fill-opacity:1;stroke:none;stroke-width:1.41732;stroke-linecap:round;stroke-linejoin:round;stroke-miterlimit:4;stroke-dasharray:none;stroke-dashoffset:0;stroke-opacity:1;paint-order:markers stroke fill"
     d="m 130.51068,235.71564 h 8.36278 c 3.14078,0 5.66894,-2.52963 5.66894,-5.67042 l 4.8e-4,-45.09376 c 0,-3.14079 -2.52816,-5.67041 -5.66894,-5.67041 h -8.36278 c 2.1e-4,23.59999 -5.1e-4,34.97461 -4.8e-4,56.43459 z m 9.07078,-47.26467 c 0.0298,1.40062 -1.07525,2.5633 -2.47558,2.60449 l -0.0747,0.002 c -1.40145,-4.5e-4 -2.54014,-1.1313 -2.55029,-2.53271 -0.0101,-1.40151 1.11226,-2.54876 2.51367,-2.56933 1.40161,-0.0199 2.55678,1.09466 2.58691,2.49609 z m -4.8e-4,37.98341 c 0.0307,1.40119 -1.07467,2.56477 -2.47558,2.60596 l -0.0747,0.001 c -1.40145,-4.5e-4 -2.54014,-1.13129 -2.55029,-2.53272 -0.0101,-1.40152 1.11226,-2.54876 2.51367,-2.56933 1.40105,-0.02 2.55599,1.09377 2.58691,2.49462 z"
     id="path467"
     inkscape:connector-curvature="0"
     sodipodi:nodetypes="csccsccccccccccccccsc" />
  <path
     style="fill:#3465a4;fill-opacity:1;stroke:none;stroke-width:1.41732;stroke-linecap:round;stroke-linejoin:round;stroke-miterlimit:4;stroke-dasharray:none;stroke-dashoffset:0;stroke-opacity:1;paint-order:markers stroke fill"
     d="m 166.51062,235.71564 h 8.36278 c 3.14078,0 5.66894,-2.52963 5.66894,-5.67042 l 4.8e-4,-45.09376 c 0,-3.14079 -2.52816,-5.67041 -5.66894,-5.67041 h -8.36278 c 2.1e-4,23.59999 -5.1e-4,34.97461 -4.8e-4,56.43459 z m 9.07078,-47.26467 c 0.0298,1.40062 -1.07525,2.5633 -2.47558,2.60449 l -0.0747,0.002 c -1.40145,-4.5e-4 -2.54014,-1.1313 -2.55029,-2.53271 -0.0101,-1.40151 1.11226,-2.54876 2.51367,-2.56933 1.40161,-0.0199 2.55678,1.09466 2.58691,2.49609 z m -4.8e-4,37.98341 c 0.0307,1.40119 -1.07467,2.56477 -2.47558,2.60596 l -0.0747,0.001 c -1.40145,-4.5e-4 -2.54014,-1.13129 -2.55029,-2.53272 -0.0101,-1.40152 1.11226,-2.54876 2.51367,-2.56933 1.40105,-0.02 2.55599,1.09377 2.58691,2.49462 z"
     id="path469"
     inkscape:connector-curvature="0"
     sodipodi:nodetypes="csccsccccccccccccccsc" />
  <path
     style="fill:#3465a4;fill-opacity:1;stroke:none;stroke-width:1.41732;stroke-linecap:round;stroke-linejoin:round;stroke-miterlimit:4;stroke-dasharray:none;stroke-dashoffset:0;stroke-opacity:1;paint-order:markers stroke fill"
     d="m 201.01056,235.71564 h 8.36278 c 3.14078,0 5.66894,-2.52963 5.66894,-5.67042 l 4.8e-4,-45.09376 c 0,-3.14079 -2.52816,-5.67041 -5.66894,-5.67041 h -8.36278 c 2.1e-4,23.59999 -5.1e-4,34.97461 -4.8e-4,56.43459 z m 9.07078,-47.26467 c 0.0298,1.40062 -1.07525,2.5633 -2.47558,2.60449 l -0.0747,0.002 c -1.40145,-4.5e-4 -2.54014,-1.1313 -2.55029,-2.53271 -0.0101,-1.40151 1.11226,-2.54876 2.51367,-2.56933 1.40161,-0.0199 2.55678,1.09466 2.58691,2.49609 z m -4.8e-4,37.98341 c 0.0307,1.40119 -1.07467,2.56477 -2.47558,2.60596 l -0.0747,0.001 c -1.40145,-4.5e-4 -2.54014,-1.13129 -2.55029,-2.53272 -0.0101,-1.40152 1.11226,-2.54876 2.51367,-2.56933 1.40105,-0.02 2.55599,1.09377 2.58691,2.49462 z"
     id="path471"
     inkscape:connector-curvature="0"
     sodipodi:nodetypes="csccsccccccccccccccsc" />
  <path
     style="fill:#3465a4;fill-opacity:1;stroke:none;stroke-width:1.41732;stroke-linecap:round;stroke-linejoin:round;stroke-miterlimit:4;stroke-dasharray:none;stroke-dashoffset:0;stroke-opacity:1;paint-order:markers stroke fill"
     d="m 237.0105,235.71564 h 8.36278 c 3.14078,0 5.66894,-2.52963 5.66894,-5.67042 l 4.8e-4,-45.09376 c 0,-3.14079 -2.52816,-5.67041 -5.66894,-5.67041 h -8.36278 c 2.1e-4,23.59999 -5.1e-4,34.97461 -4.8e-4,56.43459 z m 9.07078,-47.26467 c 0.0298,1.40062 -1.07525,2.5633 -2.47558,2.60449 l -0.0747,0.002 c -1.40145,-4.5e-4 -2.54014,-1.1313 -2.55029,-2.53271 -0.0101,-1.40151 1.11226,-2.54876 2.51367,-2.56933 1.40161,-0.0199 2.55678,1.09466 2.58691,2.49609 z m -4.8e-4,37.98341 c 0.0307,1.40119 -1.07467,2.56477 -2.47558,2.60596 l -0.0747,0.001 c -1.40145,-4.5e-4 -2.54014,-1.13129 -2.55029,-2.53272 -0.0101,-1.40152 1.11226,-2.54876 2.51367,-2.56933 1.40105,-0.02 2.55599,1.09377 2.58691,2.49462 z"
     id="path473"
     inkscape:connector-curvature="0"
     sodipodi:nodetypes="csccsccccccccccccccsc" />
  <g
     id="g844"
     transform="rotate(-90,-58.823195,-4.0965853)">
    <path
       style="fill:none;fill-rule:evenodd;stroke:#000000;stroke-width:0.749999px;stroke-linecap:butt;stroke-linejoin:miter;stroke-opacity:1"
       d="m -167.10825,68.191444 h -53.93548"
       id="path106"
       inkscape:connector-curvature="0" />
    <path
       style="fill:none;fill-rule:evenodd;stroke:#000000;stroke-width:0.749999px;stroke-linecap:butt;stroke-linejoin:miter;stroke-opacity:1"
       d="m -167.10825,133.38863 h -52.06048"
       id="path108"
       inkscape:connector-curvature="0" />
    <path
       style="fill:none;fill-rule:evenodd;stroke:#000000;stroke-width:0.749999;stroke-linecap:butt;stroke-linejoin:miter;stroke-miterlimit:4;stroke-dasharray:none;stroke-opacity:1;marker-start:url(#Arrow1Mstart-5);marker-end:url(#Arrow1Mend-5)"
       d="M -213.35624,68.191444 V 133.15984"
       id="path110"
       inkscape:connector-curvature="0" />
    <text
       xml:space="preserve"
       style="font-style:normal;font-variant:normal;font-weight:bold;font-stretch:normal;font-size:12px;line-height:32px;font-family:sans-serif;-inkscape-font-specification:'sans-serif, Bold';font-variant-ligatures:normal;font-variant-caps:normal;font-variant-numeric:normal;font-feature-settings:normal;text-align:center;letter-spacing:0px;word-spacing:0px;writing-mode:lr-tb;text-anchor:middle;fill:#000000;fill-opacity:1;stroke:none;stroke-width:0.749999px;stroke-linecap:butt;stroke-linejoin:miter;stroke-opacity:1"
       x="-101.22157"
       y="-215.67239"
       id="text973"
       transform="rotate(-90)"><tspan
         sodipodi:role="line"
         id="tspan971"
         x="-101.22157"
         y="-215.67239"
         style="stroke-width:0.749999px">23mm</tspan></text>
  </g>
</svg>
